<svg width="1024" height="1024" viewBox="0 0 1024 1024" fill="none" xmlns="http://www.w3.org/2000/svg">
<path d="M490.075 0C324.754 0 153.727 71.5154 153.727 201.58C153.727 321.865 269.387 293.939 297.529 227.881C327.306 158.021 442.357 -19.8637 676.84 32.4011C602.923 5.51769 542.642 0 490.075 0" fill="url(#paint0_linear_1209_372)"/>
<path d="M756.164 529.06C726.324 515.756 694.171 509.564 662.06 509.533L662.048 509.438C661.277 509.468 660.594 509.559 659.849 509.594C656.377 509.625 652.908 509.655 649.448 509.837C645.919 510.176 640.454 510.941 633.856 512.289C633.833 512.289 633.797 512.289 633.772 512.289C633.722 512.32 633.666 512.32 633.612 512.351C631.451 512.776 629.151 513.301 626.759 513.883C626.342 513.979 625.978 514.04 625.586 514.162C623.018 514.805 620.356 515.542 617.593 516.369C617.264 516.43 616.954 516.551 616.614 516.673C613.732 517.533 610.761 518.512 607.732 519.616C605.9 520.259 604.016 521.057 602.145 521.793C600.837 522.34 599.555 522.804 598.222 523.386C596.145 524.275 594.055 525.317 591.944 526.329C590.783 526.851 589.632 527.402 588.471 527.985C586.31 529.119 584.145 530.345 581.958 531.602C580.86 532.219 579.759 532.828 578.661 533.502C576.45 534.851 574.273 536.322 572.086 537.824C571.035 538.528 569.984 539.265 568.945 540.001C566.746 541.595 564.619 543.312 562.483 545.059C561.466 545.885 560.464 546.714 559.477 547.603C557.362 549.443 555.322 551.404 553.279 553.458C552.341 554.377 551.399 555.358 550.458 556.339C548.477 558.486 546.547 560.692 544.651 563.022C543.782 564.096 542.931 565.23 542.073 566.363C540.24 568.785 538.47 571.268 536.771 573.904C536 575.13 535.244 576.387 534.485 577.674C532.861 580.371 531.272 583.162 529.804 586.135C529.13 587.515 528.522 588.956 527.886 590.396C526.494 593.431 525.136 596.558 523.938 599.838C523.806 600.203 523.637 600.515 523.504 600.911C523.551 600.911 523.576 600.911 523.61 600.911C516.829 620.008 513.237 642.937 514.886 670.894C562.835 611.977 632.977 631.687 675.562 671.935C716.46 714.054 738.849 770.518 733.569 830.446C732.992 854.908 732.336 879.033 731.614 902.82C730.975 924.155 739.741 942.64 754.697 955.79C769.35 969.186 789.952 977.125 812.923 976.604C841.678 975.987 866.935 961.89 881.941 940.555C881.941 940.555 881.941 940.312 882.208 940.034C891.101 921.059 896.016 900 896.003 878.205C896.003 834.002 896.003 789.769 896.003 745.566C895.648 657.129 839.867 565.965 756.161 529.058" fill="url(#paint1_linear_1209_372)"/>
<path d="M765.74 380.681C763.726 379.67 763.713 379.638 762.696 378.658C756.831 374.274 750.809 370.197 744.587 366.458C695.085 336.509 635.467 326.393 578.633 335.865C571.692 337.03 564.813 338.532 557.956 340.28C557.663 340.341 557.362 340.401 557.039 340.462C515.017 351.406 475.46 373.446 443.884 406.644C439.204 411.548 434.806 416.606 430.664 421.787C427.402 425.833 424.433 430.033 421.511 434.263C420.739 435.397 419.837 436.47 419.068 437.573C415.986 442.233 413.177 446.954 410.478 451.705C410.025 452.504 409.511 453.238 409.083 454.035C406.602 458.51 404.415 463.077 402.289 467.675C401.703 468.902 400.994 470.128 400.458 471.354C400.433 471.385 400.433 471.385 400.433 471.385C400.433 471.385 400.433 471.416 400.421 471.416C351.958 638.51 514.858 670.942 514.858 670.942C506.865 535.053 619.592 513.35 647.846 510.07C684.688 507.955 721.995 513.902 756.381 528.892C839.351 566.351 895.428 656.841 895.76 745.645C895.76 718.363 895.768 691.05 895.768 663.738C895.439 553.108 850.837 452.625 765.739 380.68" fill="url(#paint2_linear_1209_372)"/>
<path d="M511.754 291.814C454.967 291.814 400.37 303.37 353.008 324.092C340.386 329.273 328.874 334.484 317.437 340.676C316.373 341.688 315.335 342.699 314.321 342.73C309.103 345.796 304.983 347.911 300.842 350.945C299.862 351.684 299.046 352.233 298.154 352.907C298.899 352.421 299.618 351.865 300.388 351.405C270.56 371.698 247.342 397.202 230.75 425.556C229.039 428.56 227.303 431.503 225.823 434.446C221.891 442.355 217.943 450.294 215.009 459.153C212.053 467.031 209.156 475.89 207.201 484.718C206.372 487.293 205.724 489.869 205.161 492.443C204.661 494.895 204.207 497.409 203.803 499.861C203.244 503.631 202.79 507.371 202.374 511.142C201.679 517.61 201.116 524.078 200.797 530.484C199.796 570.089 209.425 610.46 230.506 647.643C240.513 665.239 252.892 680.903 266.994 694.697C267.238 694.94 267.444 695.184 267.688 695.401C271.758 699.355 276.009 703.064 280.323 706.682C281.155 707.359 281.962 708.092 282.804 708.736C413.361 787.424 514.748 670.909 514.748 670.909C514.748 670.909 351.81 638.477 400.323 471.352C410.524 448.331 424.945 426.414 443.774 406.611C527.993 318.144 668.814 308.672 762.586 378.624C696.956 324.582 608.251 291.751 511.754 291.813" fill="url(#paint3_linear_1209_372)"/>
<path d="M405.413 911.493C412.855 910.206 420.125 908.582 427.236 906.68C429.973 905.942 432.588 904.963 435.278 904.167C439.726 902.787 444.21 901.5 448.536 899.905C449.21 899.662 449.831 899.384 450.491 899.141C587.781 841.971 558.109 684.196 514.767 670.892C514.767 670.892 413.159 787.622 282.41 708.505C261.842 691.675 244.039 671.351 230.525 647.625C172.687 545.64 200.181 419.622 300.407 351.387C188.5 420.634 128.172 536.015 128 663.657C128 688.824 130.409 713.838 135.161 737.747C157.327 856.562 279.11 934.392 405.413 911.493" fill="url(#paint4_linear_1209_372)"/>
<path d="M852.593 966.362C840.812 972.677 827.311 976.325 812.94 976.632C811.485 976.663 810.081 976.57 808.65 976.536C803.298 976.379 798.105 975.832 793.106 974.819C778.541 971.907 765.59 965.469 755.423 956.396C755.193 956.178 754.918 956.031 754.714 955.814C752.196 953.607 749.925 951.185 747.772 948.671C738.535 937.942 732.779 924.669 731.803 909.71C731.652 907.473 731.554 905.173 731.634 902.844C731.998 890.827 732.291 878.413 732.635 866.182C732.955 854.288 733.292 842.517 733.59 830.47C734.175 823.849 734.361 817.258 734.29 810.698C734.29 810.142 734.302 809.533 734.29 808.951C734.166 802.912 733.687 796.935 733.02 790.988C732.896 789.884 732.798 788.75 732.648 787.647C731.938 782.221 730.949 776.887 729.789 771.584C729.434 769.898 729.097 768.273 728.679 766.618C727.53 761.867 726.148 757.177 724.659 752.548C723.932 750.371 723.192 748.164 722.41 745.988C720.942 741.942 719.34 737.957 717.62 734.003C716.422 731.306 715.161 728.608 713.844 725.941C712.865 723.979 711.814 722.048 710.775 720.056C708.345 715.549 705.802 711.074 703.052 706.752C702.591 705.987 702.101 705.281 701.622 704.545C698.068 699.089 694.268 693.755 690.198 688.605C690.065 688.448 689.914 688.266 689.781 688.083C685.333 682.504 680.619 677.14 675.607 671.99C675.595 671.959 675.583 671.959 675.557 671.959C668.397 665.154 660.382 659.085 651.876 653.751C649.567 652.28 647.222 650.9 644.825 649.582C643.517 648.878 642.185 648.141 640.842 647.467C638.005 646.026 635.099 644.677 632.165 643.42C631.455 643.142 630.748 642.777 630.016 642.47C626.421 641.029 622.793 639.803 619.102 638.699C618.516 638.517 617.928 638.3 617.343 638.152C613.543 637.079 609.729 636.221 605.869 635.546C605.372 635.485 604.88 635.363 604.367 635.303C600.444 634.66 596.509 634.261 592.549 634.107C592.114 634.107 591.658 634.107 591.216 634.046C587.234 633.95 583.251 634.046 579.254 634.471C579.085 634.471 578.926 634.471 578.757 634.471C578.757 634.502 578.769 634.502 578.769 634.533C567.661 635.697 556.652 638.885 546.107 644.587C535.659 650.626 527.507 657.676 522.179 662.949C519.724 665.463 517.281 668.007 514.922 670.919H514.91C553.904 664.941 589.769 689.617 589.803 723.704C589.396 780.782 588.84 836.541 588.092 889.757C587.498 937.944 614.085 977.764 654.226 1001.24C678.702 1015.53 708.395 1023.84 741.022 1023.87C803.271 1024.27 858.21 991.343 881.966 940.581C874.461 951.248 864.394 960.107 852.601 966.36" fill="url(#paint5_linear_1209_372)"/>
<path d="M626.682 980.679C608.498 963.237 595.644 941.381 590.451 916.367C588.665 907.846 587.785 898.987 587.895 889.76C588.082 877.161 588.25 864.409 588.401 851.535C588.448 847.642 588.498 843.657 588.534 839.763C588.64 829.924 588.764 820.084 588.862 810.091C588.886 807.853 588.901 805.615 588.934 803.377C589.058 791.33 589.164 779.191 589.262 766.96C589.262 766.343 589.286 765.704 589.286 765.09C589.358 757.059 589.41 748.936 589.454 740.874C589.419 741.117 589.33 741.334 589.294 741.578L589.472 721.898C589.448 721.498 589.425 721.099 589.4 720.734C589.134 718.527 588.03 711.568 584.938 703.475C574.074 680.546 545.382 666.2 514.7 670.921C558.164 684.255 587.92 842.92 449.301 899.691C435.321 904.841 420.681 908.918 405.346 911.523C279.043 934.422 157.26 856.591 135.094 737.777C164.409 908.55 327.187 1028.5 512.01 1023.87C562.002 1023.84 609.645 1016.18 654.016 1001.25C643.984 995.362 634.806 988.464 626.669 980.678" fill="url(#paint6_linear_1209_372)"/>
<path d="M676.63 32.3524C442.196 -19.8511 327.157 157.972 297.38 227.832C276.814 276.112 209.629 303.731 174.902 268.295C209.166 317.28 271.387 337.021 339.783 330.185C344.194 328.223 348.273 325.986 352.931 324.055C365.222 318.66 378.054 313.97 391.24 309.862C414.995 298.306 451.959 275.99 477.132 248.677C523.787 198.129 608.384 134.553 694.129 134.522C788.183 134.461 834.009 180.901 863.104 222.652C820.041 133.48 756.4 65.1831 676.63 32.3528" fill="url(#paint7_linear_1209_372)"/>
<path d="M800.483 279.255C716.071 263.836 659.969 319.105 659.969 319.105C659.969 319.105 713.662 338.57 761.871 378.021C764.167 375.876 764.13 375.876 761.848 378.083C762.114 378.265 762.406 378.448 762.672 378.665C763.689 379.646 763.702 379.676 765.717 380.688C845.34 448.034 889.001 540.456 894.622 642.686C894.959 644.586 895.465 646.518 895.746 648.418C895.746 648.418 895.746 489.662 895.746 438.838C895.746 438.838 895.746 431.818 895.746 400.919C895.746 370.02 859.236 290.014 800.481 279.254" fill="url(#paint8_linear_1209_372)"/>
<path d="M860.798 219.3C831.592 178.469 785.876 134.45 694.303 134.512C608.558 134.542 523.961 198.118 477.306 248.667C452.133 275.979 415.17 298.295 391.414 309.852C429 298.172 469.814 291.766 511.864 291.766C598.451 291.766 659.977 319.017 659.977 319.017C659.977 319.017 716.079 263.748 800.491 279.167C859.246 289.927 895.756 369.933 895.756 400.832C895.756 353.687 892.762 278.891 860.798 219.3Z" fill="url(#paint9_linear_1209_372)"/>
<defs>
<linearGradient id="paint0_linear_1209_372" x1="415" y1="2.83673e-06" x2="158.786" y2="236.924" gradientUnits="userSpaceOnUse">
<stop offset="0.0885417" stop-color="#44E8E8"/>
<stop offset="1" stop-color="#E4F1CF"/>
</linearGradient>
<linearGradient id="paint1_linear_1209_372" x1="828.036" y1="585.292" x2="513.333" y2="644.093" gradientUnits="userSpaceOnUse">
<stop stop-color="#FF005C"/>
<stop offset="1" stop-color="#FF008A"/>
</linearGradient>
<linearGradient id="paint2_linear_1209_372" x1="643.318" y1="332.434" x2="310.548" y2="536.78" gradientUnits="userSpaceOnUse">
<stop offset="0.0885417" stop-color="#44E8E8"/>
<stop offset="1" stop-color="#E4F1CF"/>
</linearGradient>
<linearGradient id="paint3_linear_1209_372" x1="662.49" y1="363.936" x2="219.913" y2="492.019" gradientUnits="userSpaceOnUse">
<stop stop-color="#FF005C"/>
<stop offset="1" stop-color="#FF008A"/>
</linearGradient>
<linearGradient id="paint4_linear_1209_372" x1="339.273" y1="351.387" x2="2.81953" y2="478.32" gradientUnits="userSpaceOnUse">
<stop offset="0.0885417" stop-color="#44E8E8"/>
<stop offset="1" stop-color="#E4F1CF"/>
</linearGradient>
<linearGradient id="paint5_linear_1209_372" x1="698.239" y1="634.012" x2="425.85" y2="763.037" gradientUnits="userSpaceOnUse">
<stop offset="0.0885417" stop-color="#44E8E8"/>
<stop offset="1" stop-color="#E4F1CF"/>
</linearGradient>
<linearGradient id="paint6_linear_1209_372" x1="561.569" y1="727.496" x2="163.379" y2="861.059" gradientUnits="userSpaceOnUse">
<stop stop-color="#FF005C"/>
<stop offset="1" stop-color="#FF008A"/>
</linearGradient>
<linearGradient id="paint7_linear_1209_372" x1="740.5" y1="73.0038" x2="274.363" y2="310.852" gradientUnits="userSpaceOnUse">
<stop stop-color="#FF005C"/>
<stop offset="1" stop-color="#FF008A"/>
</linearGradient>
<linearGradient id="paint8_linear_1209_372" x1="853.742" y1="336.919" x2="656.613" y2="365.515" gradientUnits="userSpaceOnUse">
<stop stop-color="#FF005C"/>
<stop offset="1" stop-color="#FF008A"/>
</linearGradient>
<linearGradient id="paint9_linear_1209_372" x1="643.312" y1="134.512" x2="403.11" y2="363.365" gradientUnits="userSpaceOnUse">
<stop offset="0.0885417" stop-color="#44E8E8"/>
<stop offset="1" stop-color="#E4F1CF"/>
</linearGradient>
</defs>
</svg>
