<svg width="48" height="48" viewBox="0 0 48 48" fill="none" xmlns="http://www.w3.org/2000/svg">
<path d="M23.0005 0C15.2377 0 7.20703 3.35229 7.20703 9.44904C7.20703 15.0874 12.6379 13.7784 13.9594 10.6819C15.3576 7.40721 20.7599 -0.93111 31.7702 1.5188C28.2994 0.258642 25.4688 0 23.0005 0" fill="url(#paint0_linear_1209_425)"/>
<path d="M35.4965 24.7987C34.0953 24.1751 32.5856 23.8848 31.0778 23.8834L31.0772 23.8789C31.041 23.8804 31.0089 23.8846 30.974 23.8862C30.8109 23.8877 30.648 23.8891 30.4855 23.8976C30.3199 23.9135 30.0632 23.9494 29.7534 24.0126C29.7523 24.0126 29.7507 24.0126 29.7495 24.0126C29.7471 24.014 29.7445 24.014 29.742 24.0155C29.6405 24.0354 29.5325 24.06 29.4202 24.0873C29.4006 24.0918 29.3835 24.0947 29.3651 24.1004C29.2445 24.1305 29.1195 24.165 28.9898 24.2038C28.9744 24.2067 28.9598 24.2124 28.9438 24.2181C28.8085 24.2584 28.669 24.3043 28.5268 24.356C28.4407 24.3862 28.3523 24.4236 28.2644 24.4581C28.203 24.4837 28.1428 24.5055 28.0802 24.5328C27.9827 24.5744 27.8846 24.6233 27.7854 24.6707C27.7309 24.6951 27.6769 24.721 27.6224 24.7483C27.5209 24.8015 27.4192 24.8589 27.3165 24.9179C27.265 24.9468 27.2133 24.9753 27.1617 25.0069C27.0579 25.0702 26.9557 25.1391 26.853 25.2095C26.8036 25.2425 26.7543 25.2771 26.7055 25.3116C26.6022 25.3863 26.5024 25.4668 26.402 25.5487C26.3543 25.5874 26.3073 25.6263 26.2609 25.6679C26.1616 25.7542 26.0658 25.8461 25.9699 25.9424C25.9258 25.9855 25.8816 26.0315 25.8374 26.0774C25.7444 26.178 25.6538 26.2815 25.5648 26.3907C25.5239 26.441 25.484 26.4942 25.4437 26.5473C25.3576 26.6608 25.2745 26.7772 25.1948 26.9008C25.1585 26.9582 25.1231 27.0171 25.0874 27.0775C25.0111 27.2039 24.9365 27.3347 24.8676 27.4741C24.836 27.5388 24.8074 27.6063 24.7775 27.6738C24.7122 27.8161 24.6484 27.9627 24.5922 28.1164C24.5859 28.1335 24.578 28.1482 24.5718 28.1667C24.574 28.1667 24.5752 28.1667 24.5768 28.1667C24.2583 29.0619 24.0897 30.1367 24.1671 31.4472C26.4186 28.6854 29.7121 29.6094 31.7117 31.496C33.6322 33.4703 34.6835 36.1171 34.4355 38.9262C34.4084 40.0728 34.3776 41.2037 34.3437 42.3187C34.3137 43.3188 34.7253 44.1853 35.4276 44.8017C36.1156 45.4296 37.083 45.8018 38.1616 45.7773C39.5118 45.7484 40.6978 45.0876 41.4024 44.0875C41.4024 44.0875 41.4024 44.0761 41.4149 44.0631C41.8325 43.1737 42.0633 42.1865 42.0627 41.1649C42.0627 39.0929 42.0627 37.0194 42.0627 34.9474C42.0461 30.802 39.4268 26.5286 35.4963 24.7986" fill="url(#paint1_linear_1209_425)"/>
<path d="M35.9439 17.8436C35.8493 17.7962 35.8488 17.7948 35.801 17.7488C35.5256 17.5433 35.2428 17.3522 34.9506 17.1769C32.6263 15.7731 29.8269 15.2989 27.1582 15.7429C26.8323 15.7975 26.5092 15.8679 26.1873 15.9498C26.1735 15.9527 26.1594 15.9555 26.1442 15.9584C24.171 16.4713 22.3136 17.5045 20.8309 19.0606C20.6112 19.2905 20.4047 19.5276 20.2102 19.7705C20.057 19.9601 19.9176 20.157 19.7804 20.3553C19.7442 20.4084 19.7018 20.4587 19.6657 20.5105C19.521 20.7289 19.3891 20.9502 19.2623 21.1729C19.2411 21.2103 19.2169 21.2447 19.1968 21.2821C19.0803 21.4919 18.9777 21.706 18.8778 21.9215C18.8503 21.979 18.817 22.0364 18.7919 22.0939C18.7907 22.0954 18.7907 22.0954 18.7907 22.0954C18.7907 22.0954 18.7907 22.0968 18.7901 22.0968C16.5145 29.9294 24.1636 31.4496 24.1636 31.4496C23.7883 25.0798 29.0814 24.0625 30.4081 23.9087C32.138 23.8096 33.8898 24.0884 35.5044 24.791C39.4004 26.5469 42.0335 30.7886 42.0491 34.9513C42.0491 33.6725 42.0494 32.3922 42.0494 31.1119C42.034 25.9262 39.9397 21.216 35.9439 17.8436" fill="url(#paint2_linear_1209_425)"/>
<path d="M24.0186 13.6798C21.3521 13.6798 18.7885 14.2215 16.5646 15.1928C15.9719 15.4356 15.4313 15.6799 14.8943 15.9702C14.8443 16.0176 14.7956 16.065 14.748 16.0665C14.503 16.2102 14.3095 16.3093 14.115 16.4515C14.0691 16.4861 14.0307 16.5119 13.9889 16.5435C14.0238 16.5207 14.0576 16.4947 14.0937 16.4731C12.6931 17.4243 11.6029 18.6198 10.8238 19.9489C10.7435 20.0897 10.662 20.2277 10.5925 20.3656C10.4079 20.7364 10.2225 21.1085 10.0847 21.5238C9.94588 21.893 9.80986 22.3083 9.71806 22.7221C9.67913 22.8428 9.64873 22.9636 9.62229 23.0842C9.59881 23.1992 9.57749 23.317 9.55854 23.432C9.53227 23.6087 9.51095 23.784 9.49141 23.9607C9.45881 24.2639 9.43236 24.5671 9.41738 24.8674C9.37037 26.7239 9.8225 28.6163 10.8124 30.3593C11.2823 31.184 11.8635 31.9183 12.5257 32.5649C12.5371 32.5763 12.5468 32.5877 12.5583 32.5979C12.7494 32.7833 12.949 32.9571 13.1516 33.1267C13.1906 33.1584 13.2285 33.1928 13.2681 33.223C19.3985 36.9115 24.1591 31.4498 24.1591 31.4498C24.1591 31.4498 16.5083 29.9296 18.7862 22.0956C19.2652 21.0165 19.9424 19.9891 20.8265 19.0609C24.7811 14.914 31.3934 14.47 35.7966 17.749C32.7148 15.2157 28.5496 13.6768 24.0186 13.6797" fill="url(#paint3_linear_1209_425)"/>
<path d="M19.0261 42.7277C19.3756 42.6673 19.7169 42.5912 20.0508 42.502C20.1793 42.4674 20.3021 42.4216 20.4285 42.3842C20.6373 42.3195 20.8478 42.2592 21.051 42.1845C21.0826 42.1731 21.1118 42.16 21.1428 42.1486C27.5893 39.4688 26.1961 32.0731 24.1609 31.4495C24.1609 31.4495 19.3898 36.9212 13.2504 33.2126C12.2846 32.4237 11.4487 31.471 10.8141 30.3588C8.09831 25.5783 9.38931 19.6712 14.0955 16.4727C8.84083 19.7186 6.00808 25.1271 6 31.1103C6 32.29 6.1131 33.4625 6.33623 34.5833C7.37708 40.1527 13.0955 43.801 19.0261 42.7277" fill="url(#paint4_linear_1209_425)"/>
<path d="M40.0241 45.2977C39.4709 45.5937 38.8369 45.7647 38.1621 45.7791C38.0939 45.7805 38.0279 45.7762 37.9607 45.7746C37.7094 45.7672 37.4656 45.7416 37.2308 45.6941C36.5469 45.5576 35.9388 45.2558 35.4614 44.8305C35.4506 44.8203 35.4377 44.8134 35.4281 44.8032C35.3099 44.6998 35.2032 44.5862 35.1022 44.4684C34.6684 43.9655 34.3981 43.3433 34.3523 42.6421C34.3452 42.5372 34.3406 42.4294 34.3444 42.3203C34.3615 41.757 34.3752 41.175 34.3914 40.6017C34.4064 40.0442 34.4222 39.4924 34.4362 38.9277C34.4637 38.6174 34.4724 38.3084 34.4691 38.0009C34.4691 37.9749 34.4697 37.9463 34.4691 37.919C34.4633 37.6359 34.4408 37.3558 34.4095 37.077C34.4036 37.0253 34.3991 36.9721 34.392 36.9204C34.3587 36.6661 34.3122 36.416 34.2577 36.1675C34.2411 36.0884 34.2253 36.0123 34.2056 35.9347C34.1517 35.712 34.0868 35.4921 34.0169 35.2751C33.9827 35.1731 33.948 35.0696 33.9112 34.9677C33.8423 34.778 33.7671 34.5912 33.6864 34.4058C33.6301 34.2794 33.5709 34.1529 33.5091 34.0279C33.4631 33.936 33.4137 33.8455 33.3649 33.7521C33.2508 33.5408 33.1314 33.331 33.0023 33.1284C32.9806 33.0926 32.9577 33.0595 32.9352 33.025C32.7683 32.7692 32.5898 32.5192 32.3987 32.2778C32.3925 32.2705 32.3854 32.2619 32.3792 32.2534C32.1703 31.9918 31.9489 31.7404 31.7136 31.499C31.713 31.4975 31.7125 31.4975 31.7112 31.4975C31.375 31.1785 30.9987 30.894 30.5993 30.644C30.4909 30.5751 30.3807 30.5104 30.2682 30.4486C30.2068 30.4156 30.1442 30.3811 30.0812 30.3495C29.948 30.2819 29.8115 30.2187 29.6737 30.1598C29.6404 30.1467 29.6072 30.1296 29.5728 30.1152C29.404 30.0477 29.2337 29.9902 29.0603 29.9385C29.0329 29.9299 29.0053 29.9197 28.9778 29.9128C28.7993 29.8625 28.6202 29.8223 28.439 29.7907C28.4157 29.7878 28.3926 29.7821 28.3685 29.7793C28.1843 29.7491 27.9995 29.7304 27.8136 29.7232C27.7931 29.7232 27.7717 29.7232 27.751 29.7203C27.564 29.7159 27.377 29.7203 27.1893 29.7403C27.1814 29.7403 27.1739 29.7403 27.166 29.7403C27.166 29.7418 27.1665 29.7418 27.1665 29.7432C26.6449 29.7977 26.128 29.9472 25.6328 30.2145C25.1422 30.4976 24.7594 30.828 24.5093 31.0752C24.394 31.193 24.2793 31.3123 24.1685 31.4488H24.168C25.9989 31.1686 27.683 32.3253 27.6846 33.9231C27.6655 36.5986 27.6394 39.2123 27.6043 41.7068C27.5764 43.9656 28.8248 45.8321 30.7096 46.9328C31.8589 47.6024 33.2532 47.9918 34.7852 47.9932C37.7082 48.012 40.2878 46.4687 41.4033 44.0892C41.0509 44.5892 40.5782 45.0045 40.0245 45.2976" fill="url(#paint5_linear_1209_425)"/>
<path d="M29.4149 45.9682C28.561 45.1506 27.9575 44.1261 27.7136 42.9536C27.6298 42.5542 27.5885 42.1389 27.5936 41.7064C27.6024 41.1158 27.6103 40.5181 27.6174 39.9146C27.6196 39.7321 27.622 39.5453 27.6236 39.3628C27.6286 38.9016 27.6344 38.4403 27.639 37.9719C27.6401 37.867 27.6409 37.7621 27.6424 37.6572C27.6482 37.0925 27.6532 36.5235 27.6578 35.9502C27.6578 35.9213 27.6589 35.8913 27.6589 35.8625C27.6623 35.486 27.6648 35.1053 27.6668 34.7274C27.6652 34.7388 27.661 34.749 27.6593 34.7604L27.6676 33.8379C27.6665 33.8191 27.6654 33.8004 27.6643 33.7833C27.6518 33.6798 27.5999 33.3537 27.4548 32.9743C26.9446 31.8995 25.5974 31.227 24.1567 31.4483C26.1976 32.0734 27.5948 39.5108 21.0858 42.1719C20.4294 42.4133 19.7419 42.6044 19.0219 42.7266C13.0913 43.7999 7.37289 40.1516 6.33203 34.5822C7.70853 42.5872 15.3519 48.2098 24.0304 47.9928C26.3778 47.9913 28.6149 47.6321 30.6984 46.9324C30.2273 46.6565 29.7963 46.3332 29.4143 45.9682" fill="url(#paint6_linear_1209_425)"/>
<path d="M31.7621 1.51737C20.7541 -0.929666 15.3524 7.40579 13.9541 10.6805C12.9885 12.9436 9.83374 14.2383 8.20312 12.5772C9.812 14.8734 12.7336 15.7987 15.9452 15.4783C16.1523 15.3863 16.3438 15.2814 16.5626 15.1909C17.1397 14.938 17.7422 14.7182 18.3614 14.5257C19.4769 13.9839 21.2125 12.9379 22.3945 11.6576C24.5852 9.28815 28.5575 6.30802 32.5838 6.30658C37.0001 6.30371 39.1519 8.48061 40.5181 10.4377C38.496 6.25773 35.5077 3.05631 31.7621 1.51739" fill="url(#paint7_linear_1209_425)"/>
<path d="M37.5784 13.0882C33.6148 12.3655 30.9805 14.9562 30.9805 14.9562C30.9805 14.9562 33.5017 15.8686 35.7654 17.7179C35.8732 17.6174 35.8714 17.6174 35.7643 17.7208C35.7768 17.7293 35.7905 17.7379 35.803 17.7481C35.8507 17.7941 35.8513 17.7955 35.9459 17.8429C39.6847 20.9998 41.7348 25.332 41.9988 30.1241C42.0146 30.2132 42.0383 30.3037 42.0515 30.3928C42.0515 30.3928 42.0515 22.9511 42.0515 20.5687C42.0515 20.5687 42.0515 20.2396 42.0515 18.7913C42.0515 17.3429 40.3372 13.5926 37.5783 13.0882" fill="url(#paint8_linear_1209_425)"/>
<path d="M40.4074 10.2791C39.0361 8.3652 36.8894 6.30181 32.5895 6.30469C28.5633 6.30613 24.591 9.28625 22.4003 11.6557C21.2183 12.936 19.4827 13.982 18.3672 14.5237C20.1321 13.9763 22.0485 13.676 24.023 13.676C28.0887 13.676 30.9777 14.9534 30.9777 14.9534C30.9777 14.9534 33.612 12.3627 37.5757 13.0854C40.3345 13.5898 42.0489 17.3401 42.0489 18.7885C42.0489 16.5785 41.9083 13.0725 40.4074 10.2791Z" fill="url(#paint9_linear_1209_425)"/>
<defs>
<linearGradient id="paint0_linear_1209_425" x1="19.4753" y1="1.32972e-07" x2="7.46369" y2="11.1264" gradientUnits="userSpaceOnUse">
<stop offset="0.0885417" stop-color="#44E8E8"/>
<stop offset="1" stop-color="#E4F1CF"/>
</linearGradient>
<linearGradient id="paint1_linear_1209_425" x1="38.8713" y1="27.4346" x2="24.0959" y2="30.2001" gradientUnits="userSpaceOnUse">
<stop stop-color="#FF005C"/>
<stop offset="1" stop-color="#FF008A"/>
</linearGradient>
<linearGradient id="paint2_linear_1209_425" x1="30.1955" y1="15.582" x2="14.5848" y2="25.1847" gradientUnits="userSpaceOnUse">
<stop offset="0.0885417" stop-color="#44E8E8"/>
<stop offset="1" stop-color="#E4F1CF"/>
</linearGradient>
<linearGradient id="paint3_linear_1209_425" x1="31.0965" y1="17.0605" x2="10.3205" y2="23.0835" gradientUnits="userSpaceOnUse">
<stop stop-color="#FF005C"/>
<stop offset="1" stop-color="#FF008A"/>
</linearGradient>
<linearGradient id="paint4_linear_1209_425" x1="15.9205" y1="16.4727" x2="0.128845" y2="22.4406" gradientUnits="userSpaceOnUse">
<stop offset="0.0885417" stop-color="#44E8E8"/>
<stop offset="1" stop-color="#E4F1CF"/>
</linearGradient>
<linearGradient id="paint5_linear_1209_425" x1="32.7763" y1="29.7188" x2="19.9942" y2="35.7838" gradientUnits="userSpaceOnUse">
<stop offset="0.0885417" stop-color="#44E8E8"/>
<stop offset="1" stop-color="#E4F1CF"/>
</linearGradient>
<linearGradient id="paint6_linear_1209_425" x1="26.3575" y1="34.1003" x2="7.6667" y2="40.3804" gradientUnits="userSpaceOnUse">
<stop stop-color="#FF005C"/>
<stop offset="1" stop-color="#FF008A"/>
</linearGradient>
<linearGradient id="paint7_linear_1209_425" x1="34.7611" y1="3.42291" x2="12.8889" y2="14.6025" gradientUnits="userSpaceOnUse">
<stop stop-color="#FF005C"/>
<stop offset="1" stop-color="#FF008A"/>
</linearGradient>
<linearGradient id="paint8_linear_1209_425" x1="40.0792" y1="15.7912" x2="30.8236" y2="17.1362" gradientUnits="userSpaceOnUse">
<stop stop-color="#FF005C"/>
<stop offset="1" stop-color="#FF008A"/>
</linearGradient>
<linearGradient id="paint9_linear_1209_425" x1="30.1952" y1="6.30469" x2="18.9348" y2="17.0515" gradientUnits="userSpaceOnUse">
<stop offset="0.0885417" stop-color="#44E8E8"/>
<stop offset="1" stop-color="#E4F1CF"/>
</linearGradient>
</defs>
</svg>
