<svg width="144" height="144" viewBox="0 0 144 144" fill="none" xmlns="http://www.w3.org/2000/svg">
<path d="M69.0054 0C45.7171 0 21.625 10.0569 21.625 28.3471C21.625 45.2623 37.9177 41.3352 41.882 32.0457C46.0767 22.2216 62.2835 -2.79333 95.3145 4.5564C84.902 0.775925 76.4104 0 69.0054 0" fill="url(#paint0_linear_1209_516)"/>
<path d="M106.489 74.4C102.286 72.5291 97.7567 71.6584 93.2333 71.6541L93.2316 71.6406C93.123 71.645 93.0268 71.6577 92.9218 71.6626C92.4327 71.667 91.944 71.6712 91.4566 71.6969C90.9596 71.7445 90.1897 71.852 89.2603 72.0417C89.257 72.0417 89.252 72.0417 89.2485 72.0417C89.2414 72.046 89.2335 72.046 89.226 72.0503C88.9214 72.1102 88.5975 72.184 88.2605 72.2658C88.2018 72.2793 88.1506 72.2879 88.0953 72.305C87.7335 72.3954 87.3585 72.499 86.9693 72.6153C86.9231 72.6239 86.8794 72.641 86.8314 72.6581C86.4255 72.7791 86.007 72.9168 85.5803 73.072C85.3221 73.1624 85.0568 73.2746 84.7933 73.3781C84.609 73.4551 84.4284 73.5203 84.2406 73.6022C83.9481 73.7272 83.6537 73.8737 83.3563 74.016C83.1928 74.0894 83.0306 74.1669 82.8671 74.2488C82.5626 74.4083 82.2576 74.5807 81.9496 74.7575C81.795 74.8443 81.6398 74.9299 81.4852 75.0247C81.1737 75.2144 80.867 75.4213 80.559 75.6325C80.4109 75.7315 80.2628 75.8351 80.1165 75.9386C79.8067 76.1627 79.5071 76.4042 79.2061 76.6499C79.0629 76.766 78.9218 76.8827 78.7827 77.0077C78.4848 77.2664 78.1975 77.5422 77.9097 77.831C77.7775 77.9603 77.6448 78.0983 77.5122 78.2362C77.2333 78.538 76.9613 78.8483 76.6943 79.176C76.5718 79.3269 76.4519 79.4864 76.3311 79.6458C76.0729 79.9864 75.8235 80.3355 75.5843 80.7062C75.4756 80.8786 75.3692 81.0553 75.2621 81.2364C75.0334 81.6157 74.8096 82.0081 74.6028 82.4262C74.5079 82.6203 74.4222 82.8229 74.3326 83.0254C74.1365 83.4523 73.9453 83.8919 73.7765 84.3532C73.7578 84.4045 73.7341 84.4485 73.7153 84.5041C73.722 84.5041 73.7255 84.5041 73.7303 84.5041C72.775 87.1896 72.2691 90.414 72.5013 94.3454C79.2558 86.0602 89.1364 88.832 95.1352 94.4919C100.897 100.415 104.05 108.355 103.307 116.783C103.225 120.222 103.133 123.615 103.031 126.96C102.941 129.96 104.176 132.56 106.283 134.409C108.347 136.293 111.249 137.409 114.485 137.336C118.536 137.249 122.093 135.267 124.207 132.267C124.207 132.267 124.207 132.232 124.245 132.193C125.498 129.525 126.19 126.563 126.188 123.499C126.188 117.283 126.188 111.062 126.188 104.846C126.138 92.4098 118.28 79.5898 106.489 74.3997" fill="url(#paint1_linear_1209_516)"/>
<path d="M107.836 53.5348C107.552 53.3926 107.55 53.3882 107.407 53.2503C106.581 52.6339 105.732 52.0605 104.856 51.5347C97.8828 47.3231 89.4845 45.9006 81.4785 47.2326C80.5007 47.3963 79.5316 47.6076 78.5657 47.8533C78.5245 47.862 78.482 47.8705 78.4365 47.879C72.517 49.4179 66.9448 52.5173 62.4967 57.1858C61.8374 57.8755 61.2179 58.5868 60.6345 59.3153C60.1749 59.8844 59.7567 60.4749 59.3451 61.0697C59.2364 61.2292 59.1094 61.3801 59.0009 61.5353C58.5669 62.1905 58.1711 62.8544 57.7909 63.5225C57.7272 63.6349 57.6548 63.7381 57.5944 63.8501C57.2449 64.4796 56.9369 65.1218 56.6373 65.7684C56.5549 65.9408 56.455 66.1132 56.3795 66.2856C56.376 66.29 56.376 66.29 56.376 66.29C56.376 66.29 56.376 66.2943 56.3742 66.2943C49.5474 89.792 72.4947 94.3527 72.4947 94.3527C71.3687 75.2434 87.2482 72.1914 91.2283 71.7301C96.418 71.4327 101.673 72.269 106.517 74.3769C118.205 79.6446 126.104 92.3698 126.151 104.858C126.151 101.021 126.152 97.1805 126.152 93.3397C126.106 77.7824 119.823 63.6519 107.836 53.5347" fill="url(#paint2_linear_1209_516)"/>
<path d="M72.0596 41.0353C64.0602 41.0353 56.3693 42.6605 49.6976 45.5745C47.9195 46.303 46.2978 47.0358 44.6867 47.9066C44.5369 48.0488 44.3906 48.1911 44.2478 48.1955C43.5128 48.6266 42.9324 48.924 42.349 49.3507C42.2111 49.4545 42.0961 49.5318 41.9705 49.6266C42.0754 49.5582 42.1767 49.4801 42.2851 49.4153C38.0833 52.269 34.8127 55.8555 32.4754 59.8429C32.2344 60.2653 31.9898 60.6792 31.7814 61.093C31.2275 62.2052 30.6713 63.3216 30.258 64.5674C29.8416 65.6752 29.4335 66.9211 29.1581 68.1625C29.0413 68.5246 28.9501 68.8868 28.8708 69.2488C28.8003 69.5937 28.7364 69.9472 28.6795 70.292C28.6007 70.8222 28.5367 71.3481 28.4781 71.8783C28.3803 72.7879 28.301 73.6974 28.256 74.5984C28.115 80.1678 29.4714 85.845 32.4411 91.0739C33.8507 93.5482 35.5945 95.751 37.581 97.6908C37.6153 97.725 37.6444 97.7592 37.6788 97.7898C38.2521 98.3459 38.851 98.8674 39.4586 99.3761C39.5758 99.4714 39.6895 99.5744 39.8081 99.665C58.1993 110.731 72.4813 94.3456 72.4813 94.3456C72.4813 94.3456 49.5288 89.7849 56.3626 66.2829C57.7996 63.0456 59.8311 59.9634 62.4835 57.1787C74.3471 44.7381 94.1841 43.4061 107.394 53.2431C98.1484 45.6433 85.6528 41.0265 72.0596 41.0352" fill="url(#paint3_linear_1209_516)"/>
<path d="M57.0783 128.179C58.1267 127.998 59.1508 127.77 60.1524 127.502C60.538 127.398 60.9064 127.261 61.2854 127.149C61.9119 126.955 62.5435 126.774 63.1529 126.549C63.2479 126.515 63.3354 126.476 63.4284 126.442C82.7679 118.403 78.5882 96.2154 72.4827 94.3445C72.4827 94.3445 58.1694 110.76 39.7513 99.6338C36.8539 97.2671 34.3461 94.4091 32.4424 91.0726C24.2949 76.7309 28.1679 59.0097 42.2865 49.4141C26.5225 59.1519 18.0242 75.3774 18 93.3271C18 96.8662 18.3393 100.384 19.0087 103.746C22.1313 120.454 39.2864 131.399 57.0783 128.179" fill="url(#paint4_linear_1209_516)"/>
<path d="M120.072 135.893C118.413 136.781 116.511 137.294 114.486 137.337C114.282 137.342 114.084 137.329 113.882 137.324C113.128 137.302 112.397 137.225 111.693 137.082C109.641 136.673 107.816 135.767 106.384 134.492C106.352 134.461 106.313 134.44 106.284 134.41C105.93 134.099 105.61 133.759 105.307 133.405C104.005 131.896 103.194 130.03 103.057 127.926C103.036 127.612 103.022 127.288 103.033 126.961C103.084 125.271 103.126 123.525 103.174 121.805C103.219 120.133 103.267 118.477 103.309 116.783C103.391 115.852 103.417 114.925 103.407 114.003C103.407 113.925 103.409 113.839 103.407 113.757C103.39 112.908 103.322 112.067 103.228 111.231C103.211 111.076 103.197 110.916 103.176 110.761C103.076 109.998 102.937 109.248 102.773 108.502C102.723 108.265 102.676 108.037 102.617 107.804C102.455 107.136 102.26 106.476 102.051 105.825C101.948 105.519 101.844 105.209 101.734 104.903C101.527 104.334 101.301 103.774 101.059 103.217C100.89 102.838 100.713 102.459 100.527 102.084C100.389 101.808 100.241 101.536 100.095 101.256C99.7525 100.622 99.3942 99.9931 99.0069 99.3853C98.9419 99.2778 98.8729 99.1785 98.8055 99.075C98.3048 98.3077 97.7695 97.5576 97.1962 96.8334C97.1775 96.8114 97.1562 96.7857 97.1375 96.7601C96.5109 95.9755 95.8468 95.2212 95.1408 94.497C95.1391 94.4926 95.1375 94.4926 95.1337 94.4926C94.1251 93.5356 92.9961 92.6821 91.7979 91.9321C91.4726 91.7252 91.1422 91.5311 90.8046 91.3458C90.6203 91.2468 90.4327 91.1432 90.2436 91.0484C89.8439 90.8458 89.4345 90.6561 89.0212 90.4793C88.9213 90.4402 88.8216 90.3889 88.7185 90.3456C88.2121 90.143 87.701 89.9706 87.181 89.8154C87.0986 89.7898 87.0158 89.7592 86.9333 89.7385C86.3979 89.5875 85.8607 89.4669 85.317 89.372C85.247 89.3634 85.1777 89.3463 85.1055 89.3378C84.5529 89.2474 83.9985 89.1913 83.4407 89.1696C83.3794 89.1696 83.3151 89.1696 83.2529 89.161C82.6919 89.1476 82.1309 89.161 81.5678 89.2209C81.5441 89.2209 81.5216 89.2209 81.4979 89.2209C81.4979 89.2253 81.4995 89.2253 81.4995 89.2295C79.9347 89.3932 78.384 89.8416 76.8985 90.6434C75.4267 91.4927 74.2783 92.4841 73.5279 93.2255C73.182 93.579 72.8379 93.9368 72.5056 94.3463H72.5039C77.9968 93.5057 83.049 96.9758 83.0539 101.769C82.9964 109.796 82.9182 117.637 82.8128 125.12C82.7291 131.897 86.4743 137.496 92.1289 140.798C95.5767 142.807 99.7595 143.975 104.356 143.98C113.124 144.036 120.863 139.406 124.21 132.267C123.153 133.768 121.735 135.013 120.073 135.893" fill="url(#paint5_linear_1209_516)"/>
<path d="M88.2486 137.909C85.687 135.456 83.8763 132.382 83.1448 128.865C82.8932 127.666 82.7693 126.421 82.7848 125.123C82.811 123.351 82.8348 121.558 82.856 119.748C82.8626 119.2 82.8698 118.64 82.8747 118.092C82.8897 116.709 82.9072 115.325 82.9209 113.92C82.9243 113.605 82.9265 113.29 82.9311 112.976C82.9486 111.281 82.9636 109.574 82.9773 107.854C82.9773 107.768 82.9807 107.678 82.9807 107.591C82.9908 106.462 82.9981 105.32 83.0044 104.186C82.9994 104.22 82.9869 104.251 82.9819 104.285L83.0068 101.518C83.0035 101.461 83.0002 101.405 82.9967 101.354C82.9592 101.043 82.8037 100.065 82.3683 98.9268C80.8378 95.7024 76.796 93.685 72.474 94.3489C78.5966 96.224 82.7882 118.536 63.2614 126.52C61.2921 127.244 59.2297 127.817 57.0696 128.184C39.2777 131.404 22.1226 120.459 19 103.751C23.1295 127.765 46.0596 144.633 72.095 143.982C79.1373 143.978 85.8486 142.9 92.0991 140.801C90.6858 139.973 89.3929 139.003 88.2468 137.909" fill="url(#paint6_linear_1209_516)"/>
<path d="M95.2823 4.54821C62.2583 -2.7929 46.0532 22.2135 41.8585 32.0375C38.9615 38.8269 29.4973 42.7108 24.6055 37.7277C29.4321 44.6162 38.197 47.3923 47.8317 46.431C48.453 46.1551 49.0276 45.8404 49.6838 45.5689C51.4152 44.8102 53.2228 44.1507 55.0802 43.5731C58.4266 41.9479 63.6336 38.8097 67.1796 34.9689C73.7517 27.8605 85.6687 18.9201 97.7474 18.9158C110.996 18.9072 117.452 25.4379 121.55 31.3091C115.484 18.7693 106.519 9.16503 95.2823 4.54827" fill="url(#paint7_linear_1209_516)"/>
<path d="M112.731 39.2686C100.84 37.1003 92.9375 44.8725 92.9375 44.8725C92.9375 44.8725 100.501 47.6098 107.292 53.1577C107.616 52.856 107.61 52.856 107.289 53.1663C107.326 53.192 107.368 53.2176 107.405 53.2482C107.548 53.3861 107.55 53.3904 107.834 53.5326C119.05 63.0032 125.201 76 125.992 90.3761C126.04 90.6434 126.111 90.915 126.151 91.1822C126.151 91.1822 126.151 68.8572 126.151 61.71C126.151 61.71 126.151 60.7228 126.151 56.3777C126.151 52.0325 121.008 40.7816 112.731 39.2685" fill="url(#paint8_linear_1209_516)"/>
<path d="M121.226 30.8374C117.112 25.0956 110.672 18.9054 97.7726 18.9141C85.6939 18.9184 73.7769 27.8588 67.2048 34.9671C63.6588 38.8079 58.4519 41.9461 55.1055 43.5712C60.4001 41.9289 66.1494 41.0279 72.0729 41.0279C84.2701 41.0279 92.9371 44.8601 92.9371 44.8601C92.9371 44.8601 100.84 37.088 112.731 39.2562C121.008 40.7693 126.151 52.0202 126.151 56.3654C126.151 49.7355 125.729 39.2174 121.226 30.8374Z" fill="url(#paint9_linear_1209_516)"/>
<defs>
<linearGradient id="paint0_linear_1209_516" x1="58.4298" y1="3.98915e-07" x2="22.395" y2="33.3792" gradientUnits="userSpaceOnUse">
<stop offset="0.0885417" stop-color="#44E8E8"/>
<stop offset="1" stop-color="#E4F1CF"/>
</linearGradient>
<linearGradient id="paint1_linear_1209_516" x1="116.614" y1="82.3077" x2="72.2877" y2="90.6041" gradientUnits="userSpaceOnUse">
<stop stop-color="#FF005C"/>
<stop offset="1" stop-color="#FF008A"/>
</linearGradient>
<linearGradient id="paint2_linear_1209_516" x1="90.5904" y1="46.75" x2="43.7583" y2="75.5581" gradientUnits="userSpaceOnUse">
<stop offset="0.0885417" stop-color="#44E8E8"/>
<stop offset="1" stop-color="#E4F1CF"/>
</linearGradient>
<linearGradient id="paint3_linear_1209_516" x1="93.2933" y1="51.1775" x2="30.9654" y2="69.2465" gradientUnits="userSpaceOnUse">
<stop stop-color="#FF005C"/>
<stop offset="1" stop-color="#FF008A"/>
</linearGradient>
<linearGradient id="paint4_linear_1209_516" x1="47.7615" y1="49.4141" x2="0.386536" y2="67.3178" gradientUnits="userSpaceOnUse">
<stop offset="0.0885417" stop-color="#44E8E8"/>
<stop offset="1" stop-color="#E4F1CF"/>
</linearGradient>
<linearGradient id="paint5_linear_1209_516" x1="98.3289" y1="89.1563" x2="59.9825" y2="107.351" gradientUnits="userSpaceOnUse">
<stop offset="0.0885417" stop-color="#44E8E8"/>
<stop offset="1" stop-color="#E4F1CF"/>
</linearGradient>
<linearGradient id="paint6_linear_1209_516" x1="79.0763" y1="102.305" x2="23.004" y2="121.145" gradientUnits="userSpaceOnUse">
<stop stop-color="#FF005C"/>
<stop offset="1" stop-color="#FF008A"/>
</linearGradient>
<linearGradient id="paint7_linear_1209_516" x1="104.28" y1="10.2648" x2="38.6629" y2="43.8035" gradientUnits="userSpaceOnUse">
<stop stop-color="#FF005C"/>
<stop offset="1" stop-color="#FF008A"/>
</linearGradient>
<linearGradient id="paint8_linear_1209_516" x1="120.234" y1="47.3776" x2="92.4668" y2="51.4126" gradientUnits="userSpaceOnUse">
<stop stop-color="#FF005C"/>
<stop offset="1" stop-color="#FF008A"/>
</linearGradient>
<linearGradient id="paint9_linear_1209_516" x1="90.5895" y1="18.9141" x2="56.8084" y2="51.1546" gradientUnits="userSpaceOnUse">
<stop offset="0.0885417" stop-color="#44E8E8"/>
<stop offset="1" stop-color="#E4F1CF"/>
</linearGradient>
</defs>
</svg>
