<svg width="72" height="72" viewBox="0 0 72 72" fill="none" xmlns="http://www.w3.org/2000/svg">
<path d="M34.5027 0C22.8585 0 10.8125 5.02843 10.8125 14.1736C10.8125 22.6311 18.9589 20.6676 20.941 16.0229C23.0383 11.1108 31.1417 -1.39666 47.6572 2.2782C42.451 0.387963 38.2052 0 34.5027 0" fill="url(#paint0_linear_1209_477)"/>
<path d="M53.2447 37.2C51.143 36.2646 48.8784 35.8292 46.6166 35.827L46.6158 35.8203C46.5615 35.8225 46.5134 35.8289 46.4609 35.8313C46.2163 35.8335 45.972 35.8356 45.7283 35.8484C45.4798 35.8723 45.0949 35.926 44.6302 36.0208C44.6285 36.0208 44.626 36.0208 44.6242 36.0208C44.6207 36.023 44.6167 36.023 44.613 36.0251C44.4607 36.0551 44.2988 36.092 44.1303 36.1329C44.1009 36.1396 44.0753 36.1439 44.0476 36.1525C43.8668 36.1977 43.6793 36.2495 43.4846 36.3077C43.4615 36.312 43.4397 36.3205 43.4157 36.3291C43.2128 36.3895 43.0035 36.4584 42.7902 36.536C42.6611 36.5812 42.5284 36.6373 42.3966 36.689C42.3045 36.7275 42.2142 36.7602 42.1203 36.8011C41.9741 36.8636 41.8268 36.9368 41.6781 37.008C41.5964 37.0447 41.5153 37.0835 41.4336 37.1244C41.2813 37.2041 41.1288 37.2903 40.9748 37.3788C40.8975 37.4221 40.8199 37.465 40.7426 37.5124C40.5868 37.6072 40.4335 37.7106 40.2795 37.8163C40.2055 37.8658 40.1314 37.9176 40.0583 37.9693C39.9034 38.0814 39.7535 38.2021 39.6031 38.325C39.5314 38.383 39.4609 38.4413 39.3913 38.5038C39.2424 38.6332 39.0987 38.7711 38.9548 38.9155C38.8888 38.9802 38.8224 39.0491 38.7561 39.1181C38.6166 39.269 38.4807 39.4241 38.3471 39.588C38.2859 39.6635 38.226 39.7432 38.1656 39.8229C38.0365 39.9932 37.9117 40.1677 37.7921 40.3531C37.7378 40.4393 37.6846 40.5277 37.6311 40.6182C37.5167 40.8079 37.4048 41.004 37.3014 41.2131C37.2539 41.3101 37.2111 41.4114 37.1663 41.5127C37.0683 41.7261 36.9726 41.946 36.8883 42.1766C36.8789 42.2022 36.867 42.2242 36.8577 42.252C36.861 42.252 36.8627 42.252 36.8652 42.252C36.3875 43.5948 36.1345 45.207 36.2506 47.1727C39.6279 43.0301 44.5682 44.416 47.5676 47.2459C50.4483 50.2074 52.0252 54.1776 51.6533 58.3913C51.6127 60.1112 51.5664 61.8075 51.5155 63.48C51.4706 64.9802 52.088 66.2798 53.1414 67.2045C54.1734 68.1464 55.6245 68.7046 57.2424 68.668C59.2678 68.6246 61.0467 67.6334 62.1037 66.1333C62.1037 66.1333 62.1037 66.1162 62.1224 66.0966C62.7488 64.7624 63.095 63.2817 63.0941 61.7493C63.0941 58.6413 63.0941 55.5311 63.0941 52.4231C63.0691 46.2049 59.1402 39.7949 53.2445 37.1999" fill="url(#paint1_linear_1209_477)"/>
<path d="M53.9198 26.7674C53.7779 26.6963 53.777 26.6941 53.7054 26.6252C53.2922 26.3169 52.8681 26.0303 52.4299 25.7673C48.9433 23.6616 44.7442 22.9503 40.7412 23.6163C40.2523 23.6982 39.7678 23.8038 39.2848 23.9267C39.2642 23.931 39.243 23.9352 39.2202 23.9395C36.2605 24.709 33.4744 26.2587 31.2503 28.5929C30.9207 28.9377 30.6109 29.2934 30.3192 29.6576C30.0894 29.9422 29.8803 30.2375 29.6745 30.5349C29.6202 30.6146 29.5566 30.6901 29.5024 30.7676C29.2854 31.0952 29.0875 31.4272 28.8974 31.7613C28.8656 31.8175 28.8293 31.869 28.7992 31.9251C28.6244 32.2398 28.4704 32.5609 28.3206 32.8842C28.2794 32.9704 28.2294 33.0566 28.1917 33.1428C28.19 33.145 28.19 33.145 28.19 33.145C28.19 33.145 28.19 33.1472 28.1891 33.1472C24.7757 44.896 36.2493 47.1763 36.2493 47.1763C35.6863 37.6217 43.6261 36.0957 45.6161 35.8651C48.211 35.7164 50.8387 36.1345 53.2606 37.1885C59.1045 39.8223 63.0542 46.1849 63.0775 52.4289C63.0775 50.5107 63.0781 48.5902 63.0781 46.6698C63.055 38.8912 59.9134 31.8259 53.9197 26.7673" fill="url(#paint2_linear_1209_477)"/>
<path d="M36.0279 20.5196C32.0282 20.5196 28.1827 21.3322 24.8468 22.7892C23.9578 23.1535 23.147 23.5199 22.3414 23.9553C22.2665 24.0264 22.1934 24.0975 22.122 24.0997C21.7545 24.3152 21.4643 24.4639 21.1725 24.6773C21.1036 24.7292 21.0461 24.7678 20.9833 24.8153C21.0357 24.781 21.0864 24.742 21.1406 24.7096C19.0397 26.1365 17.4044 27.9297 16.2358 29.9234C16.1152 30.1346 15.9929 30.3415 15.8887 30.5485C15.6118 31.1046 15.3337 31.6628 15.127 32.2857C14.9188 32.8396 14.7148 33.4625 14.5771 34.0832C14.5187 34.2643 14.4731 34.4453 14.4334 34.6264C14.3982 34.7988 14.3662 34.9755 14.3378 35.148C14.2984 35.4131 14.2664 35.676 14.2371 35.9411C14.1882 36.3959 14.1485 36.8507 14.1261 37.3011C14.0556 40.0859 14.7337 42.9245 16.2186 45.5389C16.9234 46.7761 17.7953 47.8774 18.7885 48.8473C18.8057 48.8645 18.8203 48.8816 18.8374 48.8968C19.1241 49.1749 19.4235 49.4356 19.7274 49.69C19.786 49.7377 19.8428 49.7892 19.9021 49.8344C29.0977 55.3672 36.2387 47.1747 36.2387 47.1747C36.2387 47.1747 24.7624 44.8944 28.1794 33.1434C28.8979 31.5247 29.9136 29.9837 31.2398 28.5913C37.1716 22.371 47.0901 21.705 53.6948 26.6235C49.0722 22.8236 42.8245 20.5152 36.0278 20.5195" fill="url(#paint3_linear_1209_477)"/>
<path d="M28.5392 64.0895C29.0634 63.999 29.5754 63.8848 30.0762 63.7511C30.269 63.6992 30.4532 63.6304 30.6427 63.5744C30.956 63.4773 31.2717 63.3869 31.5765 63.2747C31.6239 63.2576 31.6677 63.2381 31.7142 63.221C41.3839 59.2013 39.2941 48.1077 36.2414 47.1723C36.2414 47.1723 29.0847 55.3798 19.8757 49.8169C18.427 48.6335 17.173 47.2045 16.2212 45.5363C12.1475 38.3655 14.084 29.5048 21.1432 24.707C13.2612 29.576 9.01212 37.6887 9 46.6636C9 48.4331 9.16966 50.1919 9.50434 51.873C11.0656 60.2272 19.6432 65.6996 28.5392 64.0895" fill="url(#paint4_linear_1209_477)"/>
<path d="M60.0342 67.9465C59.2044 68.3905 58.2535 68.647 57.2413 68.6686C57.1388 68.6708 57.0399 68.6643 56.9392 68.6619C56.5622 68.6508 56.1964 68.6124 55.8443 68.5411C54.8184 68.3364 53.9063 67.8837 53.1902 67.2458C53.1739 67.2305 53.1546 67.2201 53.1402 67.2048C52.9628 67.0496 52.8029 66.8794 52.6513 66.7026C52.0007 65.9482 51.5953 65.015 51.5265 63.9632C51.5159 63.8058 51.509 63.6442 51.5146 63.4804C51.5402 62.6355 51.5609 61.7626 51.5852 60.9026C51.6076 60.0663 51.6314 59.2386 51.6524 58.3916C51.6936 57.926 51.7067 57.4626 51.7017 57.0014C51.7017 56.9623 51.7025 56.9195 51.7017 56.8785C51.693 56.4539 51.6592 56.0336 51.6123 55.6155C51.6035 55.5379 51.5966 55.4582 51.586 55.3806C51.5361 54.9991 51.4664 54.6241 51.3847 54.2512C51.3597 54.1327 51.336 54.0184 51.3065 53.902C51.2256 53.5679 51.1282 53.2382 51.0234 52.9127C50.9721 52.7597 50.92 52.6045 50.8649 52.4515C50.7615 52.167 50.6487 51.8868 50.5276 51.6087C50.4432 51.4191 50.3544 51.2294 50.2616 51.0419C50.1927 50.9039 50.1186 50.7682 50.0455 50.6281C49.8743 50.3112 49.6952 49.9966 49.5015 49.6927C49.469 49.6389 49.4345 49.5892 49.4008 49.5375C49.1505 49.1539 48.8828 48.7788 48.5961 48.4167C48.5868 48.4057 48.5761 48.3929 48.5668 48.38C48.2535 47.9877 47.9214 47.6106 47.5685 47.2485C47.5676 47.2463 47.5668 47.2463 47.5649 47.2463C47.0606 46.7678 46.4961 46.3411 45.897 45.966C45.7344 45.8626 45.5692 45.7656 45.4003 45.6729C45.3082 45.6234 45.2144 45.5716 45.1198 45.5242C44.92 45.4229 44.7153 45.3281 44.5086 45.2397C44.4587 45.2201 44.4088 45.1944 44.3573 45.1728C44.1041 45.0715 43.8485 44.9853 43.5886 44.9077C43.5473 44.8949 43.5059 44.8796 43.4647 44.8692C43.197 44.7938 42.9284 44.7335 42.6565 44.686C42.6216 44.6817 42.5869 44.6732 42.5508 44.6689C42.2745 44.6237 41.9973 44.5956 41.7184 44.5848C41.6878 44.5848 41.6556 44.5848 41.6245 44.5805C41.344 44.5738 41.0635 44.5805 40.7819 44.6104C40.7701 44.6104 40.7588 44.6104 40.747 44.6104C40.747 44.6126 40.7478 44.6126 40.7478 44.6148C39.9654 44.6966 39.1901 44.9208 38.4473 45.3217C37.7114 45.7463 37.1372 46.242 36.762 46.6128C36.589 46.7895 36.417 46.9684 36.2508 47.1731H36.25C38.9965 46.7529 41.5226 48.4879 41.525 50.8846C41.4963 54.8979 41.4572 58.8185 41.4045 62.5602C41.3626 65.9484 43.2352 68.7482 46.0625 70.3992C47.7864 71.4036 49.8778 71.9877 52.1759 71.9898C56.5603 72.0179 60.4298 69.703 62.103 66.1337C61.5744 66.8838 60.8654 67.5067 60.0347 67.9464" fill="url(#paint5_linear_1209_477)"/>
<path d="M44.1243 68.9524C42.8435 67.726 41.9382 66.1892 41.5724 64.4304C41.4466 63.8313 41.3847 63.2084 41.3924 62.5596C41.4055 61.6738 41.4174 60.7771 41.428 59.8719C41.4313 59.5982 41.4349 59.318 41.4374 59.0442C41.4448 58.3524 41.4536 57.6605 41.4605 56.9578C41.4621 56.8005 41.4633 56.6431 41.4655 56.4858C41.4743 55.6388 41.4818 54.7852 41.4887 53.9253C41.4887 53.8819 41.4903 53.8369 41.4903 53.7938C41.4954 53.2291 41.4991 52.6579 41.5022 52.091C41.4997 52.1082 41.4934 52.1234 41.4909 52.1405L41.5034 50.7568C41.5017 50.7287 41.5001 50.7006 41.4983 50.6749C41.4796 50.5197 41.4019 50.0305 41.1841 49.4615C40.4189 47.8493 38.398 46.8406 36.237 47.1725C39.2983 48.1101 41.3941 59.2662 31.6307 63.2579C30.646 63.62 29.6149 63.9066 28.5348 64.0898C19.6389 65.6999 11.0613 60.2274 9.5 51.8733C11.5647 63.8808 23.0298 72.3146 36.0475 71.9892C39.5686 71.987 42.9243 71.4482 46.0495 70.3985C45.3429 69.9847 44.6965 69.4998 44.1234 68.9523" fill="url(#paint6_linear_1209_477)"/>
<path d="M47.6431 2.27411C31.1311 -1.39645 23.0285 11.1067 20.9312 16.0188C19.4827 19.4134 14.7506 21.3554 12.3047 18.8638C14.718 22.3081 19.1004 23.6961 23.9178 23.2155C24.2285 23.0775 24.5158 22.9202 24.8439 22.7845C25.7096 22.4051 26.6134 22.0753 27.5421 21.7865C29.2153 20.974 31.8187 19.4049 33.5918 17.4844C36.8778 13.9303 42.8363 9.46007 48.8756 9.45792C55.5002 9.45361 58.7278 12.719 60.7772 15.6546C57.7441 9.38464 53.2616 4.58252 47.6431 2.27414" fill="url(#paint7_linear_1209_477)"/>
<path d="M56.3657 19.6363C50.4202 18.5521 46.4688 22.4382 46.4688 22.4382C46.4688 22.4382 50.2506 23.8069 53.6461 26.5808C53.8078 26.4299 53.8052 26.4299 53.6444 26.5851C53.6632 26.5979 53.6838 26.6108 53.7025 26.626C53.7741 26.695 53.775 26.6971 53.9169 26.7683C59.5251 31.5036 62.6003 38.0019 62.9962 45.19C63.0199 45.3236 63.0555 45.4595 63.0753 45.5931C63.0753 45.5931 63.0753 34.4305 63.0753 30.857C63.0753 30.857 63.0753 30.3634 63.0753 28.1908C63.0753 26.0182 60.5038 20.3927 56.3655 19.6362" fill="url(#paint8_linear_1209_477)"/>
<path d="M60.615 15.4187C58.558 12.5478 55.338 9.45272 48.8882 9.45704C42.8489 9.45919 36.8904 13.9294 33.6044 17.4835C31.8314 19.404 29.2279 20.973 27.5547 21.7856C30.202 20.9644 33.0767 20.514 36.0384 20.514C42.137 20.514 46.4705 22.4301 46.4705 22.4301C46.4705 22.4301 50.422 18.544 56.3674 19.6281C60.5057 20.3846 63.0772 26.0101 63.0772 28.1827C63.0772 24.8678 62.8664 19.6087 60.615 15.4187Z" fill="url(#paint9_linear_1209_477)"/>
<defs>
<linearGradient id="paint0_linear_1209_477" x1="29.2149" y1="1.99458e-07" x2="11.1975" y2="16.6896" gradientUnits="userSpaceOnUse">
<stop offset="0.0885417" stop-color="#44E8E8"/>
<stop offset="1" stop-color="#E4F1CF"/>
</linearGradient>
<linearGradient id="paint1_linear_1209_477" x1="58.3069" y1="41.1538" x2="36.1439" y2="45.302" gradientUnits="userSpaceOnUse">
<stop stop-color="#FF005C"/>
<stop offset="1" stop-color="#FF008A"/>
</linearGradient>
<linearGradient id="paint2_linear_1209_477" x1="45.2971" y1="23.375" x2="21.8811" y2="37.779" gradientUnits="userSpaceOnUse">
<stop offset="0.0885417" stop-color="#44E8E8"/>
<stop offset="1" stop-color="#E4F1CF"/>
</linearGradient>
<linearGradient id="paint3_linear_1209_477" x1="46.6447" y1="25.5907" x2="15.4808" y2="34.6252" gradientUnits="userSpaceOnUse">
<stop stop-color="#FF005C"/>
<stop offset="1" stop-color="#FF008A"/>
</linearGradient>
<linearGradient id="paint4_linear_1209_477" x1="23.8807" y1="24.707" x2="0.193268" y2="33.6589" gradientUnits="userSpaceOnUse">
<stop offset="0.0885417" stop-color="#44E8E8"/>
<stop offset="1" stop-color="#E4F1CF"/>
</linearGradient>
<linearGradient id="paint5_linear_1209_477" x1="49.1625" y1="44.5781" x2="29.9893" y2="53.6757" gradientUnits="userSpaceOnUse">
<stop offset="0.0885417" stop-color="#44E8E8"/>
<stop offset="1" stop-color="#E4F1CF"/>
</linearGradient>
<linearGradient id="paint6_linear_1209_477" x1="39.5382" y1="51.1504" x2="11.502" y2="60.5706" gradientUnits="userSpaceOnUse">
<stop stop-color="#FF005C"/>
<stop offset="1" stop-color="#FF008A"/>
</linearGradient>
<linearGradient id="paint7_linear_1209_477" x1="52.1417" y1="5.13241" x2="19.3334" y2="21.9018" gradientUnits="userSpaceOnUse">
<stop stop-color="#FF005C"/>
<stop offset="1" stop-color="#FF008A"/>
</linearGradient>
<linearGradient id="paint8_linear_1209_477" x1="60.1168" y1="23.6908" x2="46.2334" y2="25.7082" gradientUnits="userSpaceOnUse">
<stop stop-color="#FF005C"/>
<stop offset="1" stop-color="#FF008A"/>
</linearGradient>
<linearGradient id="paint9_linear_1209_477" x1="45.2967" y1="9.45703" x2="28.4062" y2="25.5773" gradientUnits="userSpaceOnUse">
<stop offset="0.0885417" stop-color="#44E8E8"/>
<stop offset="1" stop-color="#E4F1CF"/>
</linearGradient>
</defs>
</svg>
