<svg width="128" height="128" viewBox="0 0 128 128" fill="none" xmlns="http://www.w3.org/2000/svg">
<path d="M61.3386 0C40.6378 0 19.2227 8.93943 19.2227 25.1974C19.2227 40.2332 33.7051 36.7424 37.2289 28.4851C40.9575 19.7526 55.3635 -2.48296 84.7244 4.05014C75.4689 0.689712 67.9207 0 61.3386 0" fill="url(#paint0_linear_1209_503)"/>
<path d="M94.656 66.1325C90.9195 64.4695 86.8936 63.6955 82.8727 63.6917L82.8713 63.6797C82.7747 63.6836 82.6892 63.6949 82.5959 63.6993C82.1611 63.7031 81.7267 63.7069 81.2935 63.7297C80.8517 63.7721 80.1673 63.8676 79.3412 64.0362C79.3383 64.0362 79.3338 64.0362 79.3307 64.0362C79.3244 64.0401 79.3174 64.0401 79.3107 64.0438C79.04 64.0971 78.7521 64.1627 78.4525 64.2354C78.4003 64.2474 78.3548 64.255 78.3056 64.2702C77.984 64.3506 77.6507 64.4427 77.3047 64.5461C77.2636 64.5537 77.2248 64.5689 77.1822 64.5841C76.8214 64.6916 76.4493 64.8141 76.0701 64.952C75.8406 65.0324 75.6048 65.1321 75.3705 65.2241C75.2067 65.2925 75.0462 65.3505 74.8793 65.4233C74.6192 65.5344 74.3575 65.6646 74.0932 65.7912C73.9478 65.8563 73.8037 65.9253 73.6583 65.9981C73.3876 66.1398 73.1166 66.2931 72.8428 66.4502C72.7053 66.5274 72.5674 66.6035 72.43 66.6878C72.1531 66.8564 71.8805 67.0402 71.6067 67.228C71.4751 67.316 71.3434 67.4081 71.2134 67.5001C70.938 67.6993 70.6716 67.914 70.4042 68.1324C70.2768 68.2356 70.1514 68.3393 70.0278 68.4504C69.7629 68.6804 69.5076 68.9255 69.2517 69.1823C69.1343 69.2972 69.0163 69.4198 68.8984 69.5424C68.6505 69.8107 68.4088 70.0865 68.1714 70.3778C68.0626 70.5119 67.956 70.6537 67.8486 70.7954C67.6191 71.0981 67.3974 71.4085 67.1847 71.738C67.0881 71.8913 66.9935 72.0483 66.8984 72.2093C66.6951 72.5464 66.4961 72.8952 66.3123 73.2669C66.2279 73.4394 66.1518 73.6194 66.0722 73.7995C65.8978 74.1789 65.7278 74.5697 65.5778 74.9797C65.5612 75.0253 65.5401 75.0644 65.5234 75.1138C65.5293 75.1138 65.5324 75.1138 65.5368 75.1138C64.6876 77.501 64.2379 80.3672 64.4443 83.8617C70.4483 76.4971 79.2311 78.9609 84.5634 83.9919C89.6845 89.2567 92.4879 96.3148 91.8267 103.806C91.7546 106.864 91.6724 109.879 91.5819 112.853C91.5019 115.519 92.5995 117.83 94.4723 119.474C96.307 121.148 98.8868 122.141 101.763 122.076C105.364 121.998 108.526 120.236 110.405 117.569C110.405 117.569 110.405 117.539 110.439 117.504C111.552 115.132 112.168 112.5 112.166 109.776C112.166 104.25 112.166 98.7211 112.166 93.1957C112.122 82.1412 105.137 70.7456 94.6556 66.1322" fill="url(#paint1_linear_1209_503)"/>
<path d="M95.8557 47.5856C95.6034 47.4592 95.6019 47.4553 95.4745 47.3328C94.74 46.7848 93.986 46.2752 93.2069 45.8077C87.0086 42.0641 79.5435 40.7997 72.4271 41.9837C71.5579 42.1292 70.6965 42.317 69.8379 42.5354C69.8013 42.5431 69.7635 42.5506 69.7231 42.5582C64.4613 43.9262 59.5082 46.6812 55.5544 50.831C54.9683 51.444 54.4177 52.0763 53.899 52.7238C53.4906 53.2297 53.1188 53.7546 52.7529 54.2833C52.6563 54.4251 52.5434 54.5592 52.447 54.6972C52.0612 55.2796 51.7094 55.8697 51.3714 56.4636C51.3148 56.5635 51.2504 56.6552 51.1968 56.7548C50.8861 57.3143 50.6123 57.8852 50.346 58.4599C50.2727 58.6132 50.1839 58.7664 50.1169 58.9197C50.1137 58.9236 50.1137 58.9236 50.1137 58.9236C50.1137 58.9236 50.1137 58.9274 50.1122 58.9274C44.0439 79.8142 64.4415 83.8682 64.4415 83.8682C63.4406 66.8821 77.5557 64.1692 81.0936 63.7593C85.7067 63.4949 90.3781 64.2383 94.6837 66.112C105.073 70.7943 112.095 82.1056 112.136 93.2061C112.136 89.7959 112.137 86.3818 112.137 82.9677C112.096 69.139 106.511 56.5786 95.8555 47.5855" fill="url(#paint2_linear_1209_503)"/>
<path d="M64.0508 36.4767C56.9402 36.4767 50.1038 37.9213 44.1734 40.5115C42.5929 41.1591 41.1514 41.8105 39.7194 42.5845C39.5862 42.7109 39.4562 42.8374 39.3292 42.8413C38.6759 43.2245 38.16 43.4889 37.6414 43.8681C37.5188 43.9605 37.4166 44.0291 37.3049 44.1134C37.3982 44.0526 37.4882 43.9832 37.5846 43.9256C33.8497 46.4622 30.9425 49.6502 28.8649 53.1946C28.6506 53.57 28.4332 53.9379 28.2479 54.3058C27.7556 55.2944 27.2612 56.2868 26.8938 57.3941C26.5237 58.3788 26.1609 59.4863 25.9161 60.5898C25.8123 60.9116 25.7312 61.2336 25.6607 61.5554C25.5981 61.8619 25.5413 62.1761 25.4907 62.4827C25.4207 62.9539 25.3638 63.4214 25.3117 63.8927C25.2248 64.7013 25.1543 65.5097 25.1143 66.3105C24.989 71.2611 26.1946 76.3075 28.8343 80.9554C30.0874 83.1548 31.6373 85.1129 33.4032 86.8371C33.4337 86.8675 33.4596 86.898 33.4901 86.9251C33.9997 87.4194 34.532 87.883 35.0722 88.3352C35.1763 88.4199 35.2774 88.5115 35.3828 88.592C51.7305 98.428 64.4257 83.8636 64.4257 83.8636C64.4257 83.8636 44.0234 79.8096 50.0979 58.919C51.3753 56.0414 53.181 53.3017 55.5387 50.8264C66.0841 39.768 83.7171 38.584 95.4588 47.328C87.2408 40.5727 76.1337 36.4689 64.0508 36.4766" fill="url(#paint3_linear_1209_503)"/>
<path d="M50.7363 113.935C51.6682 113.774 52.5785 113.571 53.4688 113.334C53.8116 113.241 54.139 113.119 54.4759 113.019C55.0328 112.847 55.5942 112.686 56.1359 112.487C56.2203 112.456 56.2982 112.422 56.3808 112.391C73.5715 105.245 69.8562 85.5231 64.4291 83.8601C64.4291 83.8601 51.7062 98.4513 35.3345 88.5616C32.759 86.4579 30.5299 83.9175 28.8377 80.9517C21.5955 68.2035 25.0382 52.4513 37.588 43.9219C23.5755 52.5778 16.0215 67.0004 16 82.9557C16 86.1015 16.3016 89.2282 16.8966 92.217C19.6722 107.069 34.9212 116.798 50.7363 113.935" fill="url(#paint4_linear_1209_503)"/>
<path d="M106.728 120.794C105.253 121.583 103.563 122.039 101.763 122.077C101.581 122.081 101.405 122.07 101.226 122.066C100.556 122.046 99.9056 121.978 99.2797 121.851C97.4559 121.487 95.8342 120.682 94.5612 119.548C94.5323 119.521 94.4979 119.502 94.4724 119.475C94.157 119.199 93.8727 118.897 93.6032 118.582C92.4465 117.241 91.7258 115.582 91.6035 113.712C91.5847 113.433 91.5725 113.145 91.5825 112.854C91.628 111.352 91.6646 109.8 91.7078 108.271C91.7478 106.785 91.79 105.313 91.8273 103.807C91.9006 102.98 91.9239 102.156 91.915 101.336C91.915 101.266 91.9165 101.19 91.915 101.117C91.8995 100.363 91.8395 99.6154 91.756 98.872C91.7405 98.7341 91.7282 98.5923 91.7094 98.4544C91.6205 97.7762 91.4966 97.1094 91.3514 96.4465C91.307 96.2358 91.2648 96.0327 91.2124 95.8258C91.0686 95.2319 90.8955 94.6456 90.7091 94.067C90.618 93.7949 90.5253 93.5191 90.4274 93.2471C90.2436 92.7413 90.0431 92.2431 89.8277 91.7489C89.6777 91.4117 89.5198 91.0745 89.3549 90.7411C89.2323 90.4959 89.1006 90.2545 88.9706 90.0055C88.6663 89.4422 88.3478 88.8828 88.0035 88.3425C87.9457 88.2469 87.8845 88.1586 87.8245 88.0666C87.3795 87.3846 86.9036 86.7179 86.394 86.0741C86.3774 86.0546 86.3585 86.0318 86.3418 86.009C85.7849 85.3115 85.1945 84.641 84.567 83.9973C84.5655 83.9934 84.564 83.9934 84.5607 83.9934C83.6641 83.1428 82.6606 82.3841 81.5955 81.7174C81.3064 81.5335 81.0127 81.361 80.7126 81.1962C80.5488 81.1083 80.382 81.0162 80.2139 80.9319C79.8586 80.7518 79.4948 80.5832 79.1273 80.426C79.0385 80.3913 78.9499 80.3457 78.8583 80.3072C78.4082 80.1271 77.9538 79.9739 77.4916 79.8359C77.4184 79.8131 77.3447 79.786 77.2715 79.7675C76.7956 79.6334 76.318 79.5262 75.8347 79.4418C75.7725 79.4341 75.7109 79.419 75.6467 79.4114C75.1555 79.331 74.6627 79.2811 74.1669 79.2619C74.1125 79.2619 74.0553 79.2619 74 79.2542C73.5013 79.2423 73.0027 79.2542 72.5021 79.3075C72.481 79.3075 72.461 79.3075 72.4399 79.3075C72.4399 79.3113 72.4414 79.3113 72.4414 79.3151C71.0505 79.4607 69.6721 79.8592 68.3516 80.5719C67.0434 81.3268 66.0226 82.2081 65.3555 82.8671C65.048 83.1814 64.7422 83.4994 64.4468 83.8634H64.4453C69.3279 83.1162 73.8188 86.2007 73.8231 90.4616C73.772 97.5963 73.7025 104.566 73.6088 111.218C73.5344 117.242 76.8635 122.219 81.8898 125.154C84.9545 126.94 88.6725 127.978 92.758 127.982C100.552 128.032 107.432 123.916 110.406 117.571C109.467 118.905 108.206 120.012 106.729 120.794" fill="url(#paint5_linear_1209_503)"/>
<path d="M78.441 122.586C76.1641 120.406 74.5546 117.674 73.9043 114.547C73.6807 113.482 73.5706 112.374 73.5843 111.221C73.6076 109.646 73.6287 108.052 73.6476 106.443C73.6535 105.956 73.6598 105.458 73.6642 104.971C73.6776 103.741 73.6931 102.511 73.7053 101.262C73.7083 100.983 73.7103 100.703 73.7144 100.423C73.7299 98.9172 73.7432 97.3999 73.7554 95.871C73.7554 95.7939 73.7584 95.714 73.7584 95.6373C73.7674 94.6333 73.774 93.618 73.7795 92.6102C73.7751 92.6406 73.764 92.6678 73.7595 92.6982L73.7817 90.2382C73.7787 90.1883 73.7758 90.1383 73.7727 90.0927C73.7394 89.8168 73.6011 88.947 73.2141 87.9354C71.8537 85.0693 68.261 83.276 64.4191 83.8661C69.8615 85.5329 73.5874 105.366 56.2302 112.462C54.4797 113.106 52.6465 113.616 50.7264 113.941C34.9113 116.804 19.6623 107.075 16.8867 92.2231C20.5574 113.57 40.9397 128.563 64.0823 127.985C70.3421 127.981 76.3077 127.023 81.8637 125.157C80.6075 124.421 79.4582 123.559 78.4394 122.586" fill="url(#paint6_linear_1209_503)"/>
<path d="M84.6949 4.04503C55.3402 -2.48041 40.9357 19.7475 37.2071 28.48C34.632 34.515 26.2194 37.9674 21.8711 33.5379C26.1614 39.661 33.9524 42.1286 42.5166 41.2742C43.0689 41.0289 43.5797 40.7492 44.163 40.5079C45.702 39.8335 47.3087 39.2472 48.9598 38.7338C51.9344 37.2892 56.5627 34.4997 59.7148 31.0856C65.5567 24.7671 76.1495 16.8201 86.8861 16.8163C98.6631 16.8086 104.401 22.6137 108.044 27.8325C102.652 16.686 94.6834 8.14887 84.6949 4.04508" fill="url(#paint7_linear_1209_503)"/>
<path d="M100.204 34.9059C89.6342 32.9785 82.6094 39.8871 82.6094 39.8871C82.6094 39.8871 89.3326 42.3203 95.3691 47.2517C95.6566 46.9835 95.6519 46.9835 95.3662 47.2594C95.3995 47.2822 95.4361 47.305 95.4694 47.3321C95.5967 47.4548 95.5983 47.4586 95.8506 47.585C105.821 56.0033 111.288 67.556 111.992 80.3348C112.034 80.5723 112.097 80.8138 112.132 81.0513C112.132 81.0513 112.132 61.2068 112.132 54.8538C112.132 54.8538 112.132 53.9763 112.132 50.1139C112.132 46.2516 107.561 36.2507 100.204 34.9058" fill="url(#paint8_linear_1209_503)"/>
<path d="M107.758 27.4111C104.101 22.3072 98.377 16.8048 86.9107 16.8125C76.1741 16.8163 65.5812 24.7633 59.7394 31.0819C56.5873 34.4959 51.959 37.2854 48.9844 38.73C53.6907 37.2701 58.8012 36.4693 64.0665 36.4693C74.9085 36.4693 82.6125 39.8757 82.6125 39.8757C82.6125 39.8757 89.6373 32.9671 100.207 34.8944C107.564 36.2394 112.136 46.2402 112.136 50.1026C112.136 44.2094 111.761 34.8599 107.758 27.4111Z" fill="url(#paint9_linear_1209_503)"/>
<defs>
<linearGradient id="paint0_linear_1209_503" x1="51.938" y1="3.54591e-07" x2="19.9071" y2="29.6704" gradientUnits="userSpaceOnUse">
<stop offset="0.0885417" stop-color="#44E8E8"/>
<stop offset="1" stop-color="#E4F1CF"/>
</linearGradient>
<linearGradient id="paint1_linear_1209_503" x1="103.655" y1="73.1615" x2="64.2545" y2="80.5361" gradientUnits="userSpaceOnUse">
<stop stop-color="#FF005C"/>
<stop offset="1" stop-color="#FF008A"/>
</linearGradient>
<linearGradient id="paint2_linear_1209_503" x1="80.5265" y1="41.5547" x2="38.898" y2="67.1619" gradientUnits="userSpaceOnUse">
<stop offset="0.0885417" stop-color="#44E8E8"/>
<stop offset="1" stop-color="#E4F1CF"/>
</linearGradient>
<linearGradient id="paint3_linear_1209_503" x1="82.9252" y1="45.492" x2="27.5226" y2="61.5533" gradientUnits="userSpaceOnUse">
<stop stop-color="#FF005C"/>
<stop offset="1" stop-color="#FF008A"/>
</linearGradient>
<linearGradient id="paint4_linear_1209_503" x1="42.4546" y1="43.9219" x2="0.343588" y2="59.8363" gradientUnits="userSpaceOnUse">
<stop offset="0.0885417" stop-color="#44E8E8"/>
<stop offset="1" stop-color="#E4F1CF"/>
</linearGradient>
<linearGradient id="paint5_linear_1209_503" x1="87.4008" y1="79.25" x2="53.3152" y2="95.4235" gradientUnits="userSpaceOnUse">
<stop offset="0.0885417" stop-color="#44E8E8"/>
<stop offset="1" stop-color="#E4F1CF"/>
</linearGradient>
<linearGradient id="paint6_linear_1209_503" x1="70.2879" y1="90.938" x2="20.4458" y2="107.685" gradientUnits="userSpaceOnUse">
<stop stop-color="#FF005C"/>
<stop offset="1" stop-color="#FF008A"/>
</linearGradient>
<linearGradient id="paint7_linear_1209_503" x1="92.6925" y1="9.12645" x2="34.3665" y2="38.9387" gradientUnits="userSpaceOnUse">
<stop stop-color="#FF005C"/>
<stop offset="1" stop-color="#FF008A"/>
</linearGradient>
<linearGradient id="paint8_linear_1209_503" x1="106.873" y1="42.1139" x2="82.191" y2="45.7005" gradientUnits="userSpaceOnUse">
<stop stop-color="#FF005C"/>
<stop offset="1" stop-color="#FF008A"/>
</linearGradient>
<linearGradient id="paint9_linear_1209_503" x1="80.5258" y1="16.8125" x2="50.4981" y2="45.4708" gradientUnits="userSpaceOnUse">
<stop offset="0.0885417" stop-color="#44E8E8"/>
<stop offset="1" stop-color="#E4F1CF"/>
</linearGradient>
</defs>
</svg>
