<svg width="192" height="192" viewBox="0 0 192 192" fill="none" xmlns="http://www.w3.org/2000/svg">
<path d="M92.0059 0C60.9548 0 28.832 13.4091 28.832 37.7962C28.832 60.3497 50.5557 55.1137 55.8413 42.7276C61.4342 29.6288 83.0433 -3.72444 127.085 6.0752C113.201 1.03457 101.879 0 92.0059 0" fill="url(#paint0_linear_1209_399)"/>
<path d="M141.982 99.1987C136.377 96.7042 130.338 95.5432 124.307 95.5375L124.305 95.5195C124.16 95.5253 124.032 95.5423 123.892 95.5489C123.24 95.5547 122.588 95.5604 121.938 95.5945C121.276 95.6581 120.249 95.8014 119.01 96.0543C119.005 96.0543 118.999 96.0543 118.994 96.0543C118.985 96.0601 118.974 96.0601 118.964 96.0658C118.558 96.1456 118.126 96.244 117.677 96.3532C117.599 96.3711 117.53 96.3825 117.456 96.4053C116.974 96.5259 116.474 96.664 115.955 96.8191C115.894 96.8306 115.835 96.8534 115.771 96.8762C115.23 97.0375 114.672 97.2211 114.103 97.428C113.759 97.5486 113.405 97.6981 113.054 97.8361C112.808 97.9388 112.567 98.0258 112.317 98.1349C111.927 98.3016 111.534 98.4969 111.138 98.6868C110.92 98.7845 110.704 98.888 110.486 98.9971C110.08 99.2097 109.673 99.4396 109.262 99.6754C109.056 99.7911 108.849 99.9053 108.643 100.032C108.228 100.285 107.819 100.56 107.408 100.842C107.211 100.974 107.013 101.112 106.818 101.25C106.405 101.549 106.006 101.871 105.604 102.199C105.413 102.353 105.225 102.509 105.04 102.676C104.642 103.021 104.259 103.388 103.876 103.773C103.699 103.946 103.523 104.13 103.346 104.314C102.974 104.716 102.611 105.13 102.255 105.567C102.092 105.768 101.932 105.981 101.771 106.193C101.427 106.647 101.094 107.113 100.775 107.607C100.63 107.837 100.488 108.072 100.346 108.314C100.041 108.82 99.7422 109.343 99.4665 109.9C99.34 110.159 99.2257 110.429 99.1063 110.699C98.8448 111.268 98.5898 111.855 98.3648 112.47C98.3398 112.538 98.3082 112.597 98.2832 112.671C98.292 112.671 98.2967 112.671 98.3032 112.671C97.0294 116.252 96.3548 120.551 96.6645 125.793C105.671 114.746 118.845 118.441 126.843 125.988C134.525 133.885 138.73 144.472 137.738 155.709C137.63 160.295 137.507 164.819 137.371 169.279C137.251 173.279 138.897 176.745 141.706 179.211C144.459 181.722 148.328 183.211 152.643 183.113C158.043 182.998 162.787 180.354 165.606 176.354C165.606 176.354 165.606 176.308 165.656 176.256C167.326 172.699 168.249 168.75 168.247 164.663C168.247 156.375 168.247 148.082 168.247 139.794C168.18 123.212 157.703 106.118 141.981 99.1983" fill="url(#paint1_linear_1209_399)"/>
<path d="M143.784 71.3784C143.405 71.1888 143.403 71.1829 143.212 70.9991C142.11 70.1772 140.979 69.4128 139.81 68.7116C130.513 63.0962 119.315 61.1995 108.641 62.9755C107.337 63.1938 106.045 63.4755 104.757 63.8032C104.702 63.8146 104.645 63.826 104.585 63.8374C96.692 65.8893 89.2624 70.0218 83.3316 76.2464C82.4525 77.166 81.6265 78.1144 80.8486 79.0858C80.2358 79.8445 79.6782 80.6319 79.1294 81.425C78.9845 81.6376 78.8151 81.8388 78.6705 82.0458C78.0918 82.9194 77.5641 83.8045 77.0572 84.6954C76.9722 84.8453 76.8756 84.9828 76.7952 85.1322C76.3292 85.9714 75.9184 86.8278 75.519 87.6899C75.4091 87.9198 75.2759 88.1497 75.1753 88.3795C75.1706 88.3854 75.1706 88.3854 75.1706 88.3854C75.1706 88.3854 75.1706 88.3912 75.1682 88.3912C66.0658 119.721 96.6622 125.802 96.6622 125.802C95.1609 100.323 116.334 96.2539 121.64 95.6389C128.56 95.2423 135.567 96.3574 142.026 99.1679C157.609 106.191 168.142 123.158 168.204 139.809C168.204 134.694 168.206 129.573 168.206 124.452C168.144 103.709 159.767 84.8679 143.783 71.3783" fill="url(#paint2_linear_1209_399)"/>
<path d="M96.0782 54.7151C85.4123 54.7151 75.1577 56.8819 66.2621 60.7673C63.8913 61.7387 61.7291 62.7157 59.581 63.8768C59.3812 64.0664 59.1862 64.2561 58.9958 64.2619C58.0158 64.8367 57.242 65.2333 56.464 65.8022C56.2801 65.9407 56.1268 66.0437 55.9593 66.1701C56.0992 66.0789 56.2343 65.9747 56.3788 65.8884C50.7765 69.6933 46.4156 74.4753 43.2993 79.7918C42.9779 80.3551 42.6518 80.9069 42.3739 81.4586C41.6353 82.9416 40.8938 84.4301 40.3427 86.0912C39.7874 87.5683 39.2434 89.2294 38.8762 90.8847C38.7204 91.3674 38.5988 91.8503 38.4931 92.3331C38.3991 92.7929 38.3139 93.2642 38.2381 93.724C38.133 94.4309 38.0477 95.1321 37.9695 95.8391C37.8391 97.0519 37.7333 98.2646 37.6734 99.4658C37.4854 106.892 39.2939 114.461 43.2534 121.433C45.133 124.732 47.458 127.669 50.1067 130.256C50.1525 130.301 50.1913 130.347 50.2371 130.388C51.0015 131.129 51.8 131.824 52.6102 132.503C52.7665 132.63 52.9181 132.767 53.0762 132.888C77.5978 147.642 96.6404 125.795 96.6404 125.795C96.6404 125.795 66.037 119.714 75.1489 88.3785C77.0649 84.0621 79.7735 79.9526 83.31 76.2396C99.1282 59.652 125.578 57.876 143.19 70.9921C130.863 60.859 114.202 54.7034 96.0782 54.7149" fill="url(#paint3_linear_1209_399)"/>
<path d="M76.1044 170.903C77.5023 170.661 78.8677 170.357 80.2032 170C80.7174 169.862 81.2085 169.678 81.7138 169.529C82.5493 169.27 83.3913 169.029 84.2039 168.73C84.3305 168.684 84.4472 168.632 84.5711 168.587C110.357 157.867 104.784 128.285 96.6436 125.79C96.6436 125.79 77.5593 147.677 53.0018 132.842C49.1386 129.687 45.7948 125.876 43.2565 121.428C32.3932 102.305 37.5573 78.6769 56.3819 65.8828C35.3633 78.8666 24.0323 100.501 24 124.434C24 129.152 24.4524 133.842 25.3449 138.325C29.5083 160.603 52.3819 175.196 76.1044 170.903" fill="url(#paint4_linear_1209_399)"/>
<path d="M160.096 181.195C157.884 182.379 155.348 183.063 152.649 183.12C152.375 183.126 152.112 183.109 151.843 183.102C150.838 183.073 149.862 182.97 148.923 182.78C146.188 182.234 143.755 181.027 141.846 179.326C141.802 179.285 141.751 179.257 141.712 179.217C141.239 178.803 140.813 178.349 140.409 177.878C138.674 175.866 137.593 173.377 137.409 170.572C137.381 170.153 137.363 169.722 137.378 169.285C137.446 167.032 137.501 164.704 137.566 162.411C137.626 160.181 137.689 157.974 137.745 155.715C137.855 154.473 137.89 153.238 137.876 152.008C137.876 151.903 137.879 151.789 137.876 151.68C137.853 150.548 137.763 149.427 137.638 148.312C137.615 148.105 137.596 147.892 137.568 147.685C137.435 146.668 137.249 145.668 137.031 144.674C136.964 144.358 136.901 144.053 136.822 143.743C136.607 142.852 136.347 141.972 136.067 141.104C135.931 140.696 135.792 140.282 135.645 139.875C135.369 139.116 135.069 138.369 134.745 137.627C134.52 137.122 134.284 136.616 134.036 136.116C133.852 135.748 133.655 135.386 133.46 135.012C133.003 134.167 132.526 133.328 132.009 132.518C131.923 132.374 131.831 132.242 131.741 132.104C131.073 131.081 130.359 130.081 129.595 129.115C129.57 129.086 129.542 129.052 129.517 129.017C128.681 127.971 127.796 126.965 126.854 126C126.852 125.994 126.85 125.994 126.845 125.994C125.5 124.718 123.995 123.58 122.397 122.58C121.963 122.304 121.523 122.045 121.073 121.798C120.827 121.666 120.577 121.528 120.325 121.402C119.792 121.132 119.246 120.879 118.695 120.643C118.562 120.591 118.429 120.522 118.291 120.465C117.616 120.195 116.935 119.965 116.241 119.758C116.131 119.724 116.021 119.683 115.911 119.655C115.197 119.454 114.481 119.293 113.756 119.167C113.663 119.155 113.57 119.132 113.474 119.121C112.737 119 111.998 118.926 111.254 118.897C111.173 118.897 111.087 118.897 111.004 118.885C110.256 118.867 109.508 118.885 108.757 118.965C108.725 118.965 108.695 118.965 108.664 118.965C108.664 118.971 108.666 118.971 108.666 118.977C106.58 119.195 104.512 119.793 102.531 120.862C100.569 121.994 99.0378 123.316 98.0372 124.305C97.576 124.776 97.1171 125.253 96.6741 125.799H96.6719C103.996 124.678 110.732 129.305 110.739 135.696C110.662 146.398 110.558 156.853 110.417 166.831C110.305 175.866 115.299 183.332 122.839 187.735C127.436 190.413 133.013 191.971 139.141 191.977C150.833 192.052 161.151 185.879 165.613 176.361C164.204 178.361 162.313 180.022 160.098 181.194" fill="url(#paint5_linear_1209_399)"/>
<path d="M117.664 183.877C114.248 180.606 111.834 176.508 110.858 171.818C110.523 170.221 110.358 168.56 110.378 166.83C110.413 164.467 110.445 162.076 110.473 159.662C110.482 158.932 110.492 158.185 110.498 157.455C110.518 155.61 110.542 153.765 110.56 151.891C110.564 151.472 110.567 151.052 110.573 150.633C110.597 148.374 110.617 146.098 110.635 143.805C110.635 143.689 110.64 143.569 110.64 143.454C110.653 141.948 110.663 140.425 110.671 138.913C110.665 138.959 110.648 139 110.641 139.045L110.674 135.355C110.67 135.28 110.666 135.205 110.661 135.137C110.611 134.723 110.404 133.419 109.823 131.901C107.782 127.602 102.393 124.912 96.6307 125.797C104.794 128.297 110.383 158.047 84.3473 168.692C81.7215 169.657 78.9717 170.422 76.0915 170.91C52.369 175.204 29.4954 160.61 25.332 138.333C30.838 170.353 61.4114 192.843 96.1254 191.975C105.515 191.969 114.464 190.532 122.797 187.733C120.913 186.63 119.189 185.337 117.661 183.877" fill="url(#paint6_linear_1209_399)"/>
<path d="M127.044 6.06558C83.0123 -3.72257 61.4055 29.6193 55.8126 42.718C51.95 51.7705 39.3311 56.9491 32.8086 50.3049C39.2441 59.4895 50.9306 63.191 63.7769 61.9093C64.6053 61.5414 65.3715 61.1219 66.2464 60.7598C68.5549 59.7483 70.9651 58.8689 73.4416 58.0987C77.9035 55.9319 84.8461 51.7476 89.5741 46.6265C98.3369 37.1487 114.226 25.2282 130.331 25.2224C147.997 25.2109 156.604 33.9185 162.069 41.7468C153.98 25.027 142.027 12.2213 127.044 6.06567" fill="url(#paint7_linear_1209_399)"/>
<path d="M150.306 52.3608C134.451 49.4697 123.914 59.8326 123.914 59.8326C123.914 59.8326 133.999 63.4824 143.054 70.8795C143.485 70.4772 143.478 70.4772 143.049 70.891C143.099 70.9252 143.154 70.9594 143.204 71.0001C143.395 71.1841 143.397 71.1898 143.776 71.3794C158.731 84.0069 166.931 101.336 167.987 120.504C168.051 120.86 168.146 121.223 168.198 121.579C168.198 121.579 168.198 91.8121 168.198 82.2826C168.198 82.2826 168.198 80.9664 168.198 75.1729C168.198 69.3793 161.341 54.3781 150.305 52.3607" fill="url(#paint8_linear_1209_399)"/>
<path d="M161.637 41.1205C156.152 33.4647 147.565 25.2112 130.366 25.2227C114.261 25.2284 98.3719 37.1489 89.6091 46.6267C84.881 51.7478 77.9384 55.932 73.4766 58.0989C80.536 55.909 88.2019 54.7078 96.0998 54.7078C112.363 54.7078 123.919 59.8174 123.919 59.8174C123.919 59.8174 134.456 49.4545 150.311 52.3455C161.346 54.363 168.203 69.3642 168.203 75.1577C168.203 66.3179 167.641 52.2938 161.637 41.1205Z" fill="url(#paint9_linear_1209_399)"/>
<defs>
<linearGradient id="paint0_linear_1209_399" x1="77.9051" y1="5.31887e-07" x2="29.8587" y2="44.5056" gradientUnits="userSpaceOnUse">
<stop offset="0.0885417" stop-color="#44E8E8"/>
<stop offset="1" stop-color="#E4F1CF"/>
</linearGradient>
<linearGradient id="paint1_linear_1209_399" x1="155.481" y1="109.742" x2="96.3797" y2="120.804" gradientUnits="userSpaceOnUse">
<stop stop-color="#FF005C"/>
<stop offset="1" stop-color="#FF008A"/>
</linearGradient>
<linearGradient id="paint2_linear_1209_399" x1="120.79" y1="62.332" x2="58.347" y2="100.743" gradientUnits="userSpaceOnUse">
<stop offset="0.0885417" stop-color="#44E8E8"/>
<stop offset="1" stop-color="#E4F1CF"/>
</linearGradient>
<linearGradient id="paint3_linear_1209_399" x1="124.39" y1="68.238" x2="41.2859" y2="92.33" gradientUnits="userSpaceOnUse">
<stop stop-color="#FF005C"/>
<stop offset="1" stop-color="#FF008A"/>
</linearGradient>
<linearGradient id="paint4_linear_1209_399" x1="63.6819" y1="65.8828" x2="0.515381" y2="89.7545" gradientUnits="userSpaceOnUse">
<stop offset="0.0885417" stop-color="#44E8E8"/>
<stop offset="1" stop-color="#E4F1CF"/>
</linearGradient>
<linearGradient id="paint5_linear_1209_399" x1="131.105" y1="118.879" x2="79.9767" y2="143.139" gradientUnits="userSpaceOnUse">
<stop offset="0.0885417" stop-color="#44E8E8"/>
<stop offset="1" stop-color="#E4F1CF"/>
</linearGradient>
<linearGradient id="paint6_linear_1209_399" x1="105.434" y1="136.405" x2="30.6707" y2="161.526" gradientUnits="userSpaceOnUse">
<stop stop-color="#FF005C"/>
<stop offset="1" stop-color="#FF008A"/>
</linearGradient>
<linearGradient id="paint7_linear_1209_399" x1="139.041" y1="13.6877" x2="51.5518" y2="58.406" gradientUnits="userSpaceOnUse">
<stop stop-color="#FF005C"/>
<stop offset="1" stop-color="#FF008A"/>
</linearGradient>
<linearGradient id="paint8_linear_1209_399" x1="160.309" y1="63.1727" x2="123.286" y2="68.5527" gradientUnits="userSpaceOnUse">
<stop stop-color="#FF005C"/>
<stop offset="1" stop-color="#FF008A"/>
</linearGradient>
<linearGradient id="paint9_linear_1209_399" x1="120.789" y1="25.2227" x2="75.7471" y2="68.2101" gradientUnits="userSpaceOnUse">
<stop offset="0.0885417" stop-color="#44E8E8"/>
<stop offset="1" stop-color="#E4F1CF"/>
</linearGradient>
</defs>
</svg>
