<svg width="256" height="256" viewBox="0 0 256 256" fill="none" xmlns="http://www.w3.org/2000/svg">
<path d="M122.516 0C81.1862 0 38.4297 17.8789 38.4297 50.3949C38.4297 80.4663 67.3446 73.4849 74.38 56.9701C81.8244 39.5051 110.587 -4.96592 169.207 8.10027C150.728 1.37942 135.658 0 122.516 0" fill="url(#paint0_linear_1209_386)"/>
<path d="M189.04 132.265C181.58 128.939 173.542 127.391 165.514 127.383L165.511 127.359C165.318 127.367 165.147 127.39 164.961 127.399C164.093 127.406 163.226 127.414 162.361 127.459C161.479 127.544 160.112 127.735 158.463 128.072C158.457 128.072 158.448 128.072 158.442 128.072C158.429 128.08 158.415 128.08 158.402 128.088C157.861 128.194 157.287 128.325 156.689 128.471C156.584 128.495 156.493 128.51 156.395 128.54C155.753 128.701 155.088 128.885 154.397 129.092C154.315 129.107 154.237 129.138 154.152 129.168C153.432 129.383 152.689 129.628 151.932 129.904C151.474 130.065 151.003 130.264 150.535 130.448C150.208 130.585 149.888 130.701 149.554 130.847C149.035 131.069 148.513 131.329 147.985 131.582C147.695 131.713 147.407 131.851 147.117 131.996C146.576 132.28 146.035 132.586 145.488 132.9C145.214 133.055 144.939 133.207 144.664 133.376C144.111 133.713 143.567 134.08 143.02 134.456C142.758 134.632 142.495 134.816 142.235 135C141.685 135.399 141.154 135.828 140.62 136.265C140.365 136.471 140.115 136.679 139.868 136.901C139.339 137.361 138.83 137.851 138.319 138.365C138.084 138.594 137.849 138.84 137.613 139.085C137.118 139.621 136.636 140.173 136.162 140.756C135.944 141.024 135.732 141.307 135.517 141.591C135.059 142.196 134.616 142.817 134.192 143.476C133.999 143.783 133.81 144.097 133.62 144.419C133.214 145.093 132.817 145.79 132.45 146.534C132.282 146.879 132.13 147.239 131.971 147.599C131.623 148.358 131.283 149.139 130.984 149.959C130.95 150.051 130.908 150.129 130.875 150.228C130.887 150.228 130.893 150.228 130.902 150.228C129.206 155.002 128.308 160.734 128.72 167.723C140.708 152.994 158.243 157.922 168.889 167.984C179.114 178.513 184.711 192.63 183.391 207.612C183.247 213.727 183.083 219.758 182.902 225.705C182.742 231.039 184.934 235.66 188.673 238.948C192.336 242.296 197.487 244.281 203.229 244.151C210.418 243.997 216.732 240.473 220.484 235.139C220.484 235.139 220.484 235.078 220.55 235.008C222.774 230.265 224.002 225 223.999 219.551C223.999 208.501 223.999 197.442 223.999 186.391C223.911 164.282 209.965 141.491 189.039 132.264" fill="url(#paint1_linear_1209_386)"/>
<path d="M191.433 95.1713C190.929 94.9184 190.926 94.9106 190.672 94.6655C189.205 93.5696 187.7 92.5503 186.144 91.6155C173.769 84.1283 158.865 81.5993 144.656 83.9673C142.921 84.2584 141.201 84.634 139.487 85.0709C139.414 85.0862 139.338 85.1013 139.257 85.1165C128.752 87.8524 118.863 93.3624 110.969 101.662C109.799 102.888 108.699 104.153 107.664 105.448C106.848 106.459 106.106 107.509 105.376 108.567C105.183 108.85 104.957 109.118 104.765 109.394C103.995 110.559 103.292 111.739 102.617 112.927C102.504 113.127 102.376 113.31 102.269 113.51C101.648 114.629 101.102 115.77 100.57 116.92C100.424 117.226 100.247 117.533 100.113 117.839C100.106 117.847 100.106 117.847 100.106 117.847C100.106 117.847 100.106 117.855 100.103 117.855C87.9876 159.628 128.712 167.736 128.712 167.736C126.714 133.764 154.896 128.338 161.959 127.519C171.17 126.99 180.496 128.477 189.093 132.224C209.835 141.589 223.854 164.211 223.937 186.412C223.937 179.592 223.939 172.764 223.939 165.935C223.857 138.278 212.706 113.157 191.432 95.171" fill="url(#paint2_linear_1209_386)"/>
<path d="M127.94 72.9535C113.743 72.9535 100.094 75.8426 88.2538 81.0231C85.0982 82.3182 82.2202 83.621 79.361 85.169C79.0951 85.4219 78.8355 85.6747 78.5821 85.6826C77.2776 86.449 76.2476 86.9777 75.2122 87.7363C74.9674 87.9209 74.7633 88.0582 74.5404 88.2268C74.7266 88.1051 74.9064 87.9663 75.0988 87.8512C67.6419 92.9244 61.8375 99.3004 57.6894 106.389C57.2616 107.14 56.8276 107.876 56.4577 108.612C55.4747 110.589 54.4877 112.574 53.7541 114.788C53.0151 116.758 52.2909 118.973 51.8021 121.18C51.5948 121.823 51.433 122.467 51.2922 123.111C51.1672 123.724 51.0537 124.352 50.9528 124.965C50.8129 125.908 50.6994 126.843 50.5954 127.785C50.4218 129.403 50.281 131.019 50.2012 132.621C49.951 142.522 52.3582 152.615 57.6284 161.911C60.1302 166.31 63.2248 170.226 66.7503 173.674C66.8113 173.735 66.863 173.796 66.9239 173.85C67.9414 174.839 69.0042 175.766 70.0827 176.67C70.2906 176.84 70.4924 177.023 70.7028 177.184C103.342 196.856 128.688 167.727 128.688 167.727C128.688 167.727 87.9542 159.619 100.082 117.838C102.633 112.083 106.238 106.603 110.945 101.653C132 79.5361 167.205 77.1681 190.648 94.6561C174.24 81.1454 152.064 72.9378 127.94 72.9531" fill="url(#paint3_linear_1209_386)"/>
<path d="M101.353 227.874C103.213 227.552 105.031 227.146 106.808 226.671C107.493 226.486 108.147 226.242 108.819 226.043C109.931 225.698 111.052 225.376 112.133 224.977C112.302 224.916 112.457 224.847 112.622 224.786C146.944 210.494 139.527 171.05 128.691 167.724C128.691 167.724 103.289 196.907 70.6024 177.127C65.4603 172.92 61.0096 167.839 57.6311 161.907C43.1717 136.411 50.0452 104.907 75.1015 87.8477C47.125 105.159 32.043 134.005 32 165.915C32 172.207 32.6022 178.46 33.7901 184.438C39.3318 214.141 69.7773 233.599 101.353 227.874" fill="url(#paint4_linear_1209_386)"/>
<path d="M213.147 241.592C210.202 243.17 206.826 244.082 203.233 244.159C202.87 244.167 202.519 244.144 202.161 244.135C200.823 244.096 199.525 243.959 198.275 243.706C194.634 242.978 191.396 241.368 188.854 239.1C188.797 239.046 188.728 239.009 188.677 238.954C188.048 238.403 187.48 237.797 186.942 237.169C184.632 234.487 183.193 231.168 182.949 227.428C182.912 226.869 182.887 226.294 182.907 225.712C182.998 222.708 183.071 219.604 183.158 216.546C183.237 213.573 183.322 210.63 183.396 207.618C183.542 205.963 183.589 204.316 183.571 202.676C183.571 202.537 183.574 202.384 183.571 202.239C183.54 200.729 183.42 199.235 183.254 197.748C183.223 197.472 183.198 197.189 183.161 196.913C182.983 195.556 182.736 194.223 182.446 192.897C182.357 192.476 182.273 192.069 182.168 191.656C181.881 190.468 181.536 189.295 181.163 188.138C180.982 187.594 180.797 187.042 180.601 186.498C180.234 185.486 179.834 184.49 179.404 183.502C179.104 182.827 178.789 182.153 178.46 181.486C178.215 180.996 177.952 180.513 177.693 180.015C177.085 178.888 176.449 177.769 175.762 176.689C175.646 176.498 175.524 176.321 175.404 176.137C174.516 174.773 173.566 173.44 172.548 172.152C172.515 172.113 172.477 172.067 172.444 172.022C171.332 170.627 170.153 169.286 168.901 167.999C168.898 167.991 168.895 167.991 168.888 167.991C167.098 166.289 165.094 164.772 162.968 163.439C162.391 163.071 161.804 162.726 161.205 162.396C160.878 162.22 160.545 162.036 160.209 161.868C159.5 161.507 158.774 161.17 158.04 160.856C157.863 160.786 157.686 160.695 157.503 160.618C156.604 160.258 155.697 159.952 154.774 159.676C154.628 159.63 154.481 159.576 154.335 159.539C153.384 159.271 152.431 159.056 151.466 158.887C151.342 158.872 151.219 158.842 151.091 158.827C150.11 158.666 149.126 158.566 148.136 158.528C148.028 158.528 147.913 158.528 147.803 158.512C146.807 158.488 145.812 158.512 144.812 158.619C144.77 158.619 144.73 158.619 144.688 158.619C144.688 158.627 144.691 158.627 144.691 158.634C141.914 158.925 139.162 159.722 136.526 161.148C133.914 162.658 131.876 164.42 130.544 165.738C129.93 166.367 129.319 167.003 128.73 167.731H128.727C138.475 166.236 147.441 172.405 147.45 180.927C147.348 195.196 147.209 209.136 147.022 222.44C146.873 234.487 153.52 244.442 163.555 250.312C169.674 253.883 177.097 255.96 185.254 255.968C200.816 256.068 214.551 247.837 220.49 235.146C218.614 237.813 216.097 240.028 213.149 241.591" fill="url(#paint5_linear_1209_386)"/>
<path d="M156.67 245.172C152.124 240.811 148.91 235.347 147.612 229.094C147.166 226.963 146.946 224.749 146.973 222.442C147.02 219.292 147.062 216.104 147.099 212.886C147.111 211.912 147.124 210.916 147.133 209.943C147.159 207.483 147.19 205.023 147.215 202.525C147.221 201.965 147.225 201.406 147.233 200.846C147.264 197.834 147.29 194.8 147.315 191.742C147.315 191.588 147.321 191.428 147.321 191.275C147.339 189.267 147.352 187.236 147.363 185.22C147.354 185.281 147.332 185.336 147.323 185.396L147.367 180.476C147.361 180.377 147.355 180.277 147.349 180.185C147.283 179.634 147.007 177.894 146.234 175.871C143.518 170.139 136.345 166.552 128.674 167.732C139.54 171.066 146.979 210.732 112.325 224.925C108.83 226.212 105.17 227.231 101.336 227.883C69.7605 233.607 39.3151 214.15 33.7734 184.446C41.1021 227.139 81.7964 257.127 128.002 255.969C140.5 255.962 152.411 254.046 163.503 250.314C160.995 248.842 158.701 247.118 156.667 245.172" fill="url(#paint6_linear_1209_386)"/>
<path d="M169.158 8.09005C110.549 -4.96082 81.7901 39.4949 74.3457 56.96C69.2044 69.0299 52.4082 75.9347 43.7266 67.0758C52.2924 79.322 67.8476 84.2573 84.9465 82.5483C86.0491 82.0578 87.0689 81.4984 88.2334 81.0157C91.3061 79.6669 94.5141 78.4945 97.8105 77.4675C103.749 74.5784 112.99 68.9994 119.283 62.1713C130.947 49.5342 152.096 33.6402 173.532 33.6325C197.046 33.6172 208.502 45.2273 215.776 55.665C205.01 33.3719 189.1 16.2977 169.158 8.09016" fill="url(#paint7_linear_1209_386)"/>
<path d="M200.121 69.8156C179.018 65.9609 164.992 79.7781 164.992 79.7781C164.992 79.7781 178.415 84.6444 190.468 94.5073C191.042 93.971 191.032 93.971 190.462 94.5226C190.528 94.5682 190.601 94.6139 190.668 94.6682C190.922 94.9134 190.925 94.921 191.429 95.1739C211.335 112.011 222.25 135.116 223.655 160.673C223.739 161.149 223.866 161.631 223.936 162.107C223.936 162.107 223.936 122.417 223.936 109.711C223.936 109.711 223.936 107.956 223.936 100.232C223.936 92.507 214.809 72.5054 200.12 69.8155" fill="url(#paint8_linear_1209_386)"/>
<path d="M215.197 54.826C207.895 44.6183 196.467 33.6136 173.573 33.6289C152.137 33.6366 130.988 49.5306 119.324 62.1676C113.031 68.9958 103.79 74.5748 97.8516 77.4639C107.248 74.5441 117.451 72.9424 127.964 72.9424C149.61 72.9424 164.992 79.7552 164.992 79.7552C164.992 79.7552 179.017 65.938 200.12 69.7928C214.809 72.4826 223.936 92.4843 223.936 100.209C223.936 88.4226 223.188 69.7238 215.197 54.826Z" fill="url(#paint9_linear_1209_386)"/>
<defs>
<linearGradient id="paint0_linear_1209_386" x1="103.748" y1="7.09182e-07" x2="39.6943" y2="59.2305" gradientUnits="userSpaceOnUse">
<stop offset="0.0885417" stop-color="#44E8E8"/>
<stop offset="1" stop-color="#E4F1CF"/>
</linearGradient>
<linearGradient id="paint1_linear_1209_386" x1="207.007" y1="146.323" x2="128.332" y2="161.023" gradientUnits="userSpaceOnUse">
<stop stop-color="#FF005C"/>
<stop offset="1" stop-color="#FF008A"/>
</linearGradient>
<linearGradient id="paint2_linear_1209_386" x1="160.827" y1="83.1094" x2="77.6349" y2="134.196" gradientUnits="userSpaceOnUse">
<stop offset="0.0885417" stop-color="#44E8E8"/>
<stop offset="1" stop-color="#E4F1CF"/>
</linearGradient>
<linearGradient id="paint3_linear_1209_386" x1="165.624" y1="90.984" x2="54.98" y2="123.005" gradientUnits="userSpaceOnUse">
<stop stop-color="#FF005C"/>
<stop offset="1" stop-color="#FF008A"/>
</linearGradient>
<linearGradient id="paint4_linear_1209_386" x1="84.818" y1="87.8477" x2="0.704947" y2="119.581" gradientUnits="userSpaceOnUse">
<stop offset="0.0885417" stop-color="#44E8E8"/>
<stop offset="1" stop-color="#E4F1CF"/>
</linearGradient>
<linearGradient id="paint5_linear_1209_386" x1="174.558" y1="158.504" x2="106.462" y2="190.76" gradientUnits="userSpaceOnUse">
<stop offset="0.0885417" stop-color="#44E8E8"/>
<stop offset="1" stop-color="#E4F1CF"/>
</linearGradient>
<linearGradient id="paint6_linear_1209_386" x1="140.392" y1="181.876" x2="40.8446" y2="215.266" gradientUnits="userSpaceOnUse">
<stop stop-color="#FF005C"/>
<stop offset="1" stop-color="#FF008A"/>
</linearGradient>
<linearGradient id="paint7_linear_1209_386" x1="185.125" y1="18.2529" x2="68.5912" y2="77.7143" gradientUnits="userSpaceOnUse">
<stop stop-color="#FF005C"/>
<stop offset="1" stop-color="#FF008A"/>
</linearGradient>
<linearGradient id="paint8_linear_1209_386" x1="213.435" y1="84.2316" x2="164.153" y2="91.3807" gradientUnits="userSpaceOnUse">
<stop stop-color="#FF005C"/>
<stop offset="1" stop-color="#FF008A"/>
</linearGradient>
<linearGradient id="paint9_linear_1209_386" x1="160.826" y1="33.6289" x2="100.775" y2="90.842" gradientUnits="userSpaceOnUse">
<stop offset="0.0885417" stop-color="#44E8E8"/>
<stop offset="1" stop-color="#E4F1CF"/>
</linearGradient>
</defs>
</svg>
