<svg width="32" height="32" viewBox="0 0 32 32" fill="none" xmlns="http://www.w3.org/2000/svg">
<path d="M15.3337 0C10.1585 0 4.80469 2.23486 4.80469 6.29936C4.80469 10.0583 8.4253 9.18561 9.30624 7.12127C10.2384 4.93814 13.8399 -0.62074 21.1801 1.01253C18.8662 0.172428 16.9792 0 15.3337 0" fill="url(#paint0_linear_1209_451)"/>
<path d="M23.663 16.5351C22.7289 16.1193 21.7224 15.9258 20.7172 15.9249L20.7168 15.9219C20.6927 15.9228 20.6713 15.9257 20.648 15.9268C20.5393 15.9277 20.4307 15.9287 20.3224 15.9344C20.2119 15.945 20.0409 15.9689 19.8343 16.011C19.8336 16.011 19.8325 16.011 19.8317 16.011C19.8301 16.012 19.8284 16.012 19.8267 16.0129C19.759 16.0262 19.687 16.0426 19.6121 16.0608C19.5991 16.0638 19.5877 16.0657 19.5754 16.0695C19.495 16.0896 19.4117 16.1126 19.3252 16.1385C19.3149 16.1404 19.3052 16.1442 19.2946 16.148C19.2044 16.1749 19.1114 16.2055 19.0166 16.24C18.9592 16.26 18.9002 16.285 18.8416 16.308C18.8007 16.3251 18.7606 16.3396 18.7188 16.3578C18.6538 16.3856 18.5884 16.4181 18.5223 16.4497C18.486 16.466 18.4499 16.4833 18.4136 16.5015C18.3459 16.5369 18.2782 16.5752 18.2097 16.6145C18.1754 16.6338 18.1409 16.6528 18.1065 16.6739C18.0373 16.716 17.9691 16.762 17.9007 16.809C17.8678 16.831 17.8349 16.854 17.8024 16.877C17.7335 16.9268 17.6669 16.9804 17.6001 17.035C17.5682 17.0608 17.5369 17.0868 17.506 17.1146C17.4398 17.172 17.3759 17.2333 17.312 17.2975C17.2826 17.3262 17.2531 17.3569 17.2236 17.3876C17.1616 17.4546 17.1012 17.5236 17.0419 17.5964C17.0147 17.6299 16.988 17.6654 16.9612 17.7008C16.9038 17.7765 16.8484 17.8541 16.7952 17.9365C16.7711 17.9748 16.7474 18.014 16.7236 18.0543C16.6728 18.1386 16.623 18.2258 16.5771 18.3187C16.556 18.3618 16.537 18.4068 16.5171 18.4518C16.4735 18.5467 16.431 18.6444 16.3935 18.7469C16.3893 18.7583 16.3841 18.7681 16.3799 18.7804C16.3814 18.7804 16.3821 18.7804 16.3832 18.7804C16.1709 19.3772 16.0585 20.0937 16.1101 20.9674C17.6111 19.1262 19.8068 19.7422 21.1399 20.9999C22.4201 22.3161 23.121 24.0806 22.9557 25.9534C22.9377 26.7178 22.9171 27.4717 22.8945 28.2151C22.8745 28.8818 23.1489 29.4594 23.6171 29.8704C24.0758 30.289 24.7207 30.5371 25.4398 30.5208C26.3399 30.5015 27.1306 30.061 27.6003 29.3943C27.6003 29.3943 27.6003 29.3867 27.6087 29.378C27.8871 28.785 28.0409 28.1269 28.0405 27.4459C28.0405 26.0645 28.0405 24.6822 28.0405 23.3009C28.0294 20.5372 26.2832 17.6884 23.6629 16.535" fill="url(#paint1_linear_1209_451)"/>
<path d="M23.9639 11.8945C23.9009 11.8628 23.9005 11.8619 23.8686 11.8312C23.685 11.6942 23.4965 11.5668 23.3017 11.45C21.7522 10.5141 19.8859 10.198 18.1068 10.494C17.8895 10.5304 17.6741 10.5773 17.4595 10.6319C17.4503 10.6338 17.4409 10.6357 17.4308 10.6376C16.1153 10.9796 14.8771 11.6683 13.8886 12.7058C13.7421 12.859 13.6044 13.0171 13.4748 13.179C13.3726 13.3055 13.2797 13.4367 13.1882 13.5689C13.1641 13.6043 13.1358 13.6379 13.1118 13.6723C13.0153 13.8179 12.9274 13.9655 12.8429 14.1139C12.8287 14.1389 12.8126 14.1618 12.7992 14.1867C12.7215 14.3266 12.6531 14.4693 12.5865 14.613C12.5682 14.6513 12.546 14.6897 12.5292 14.728C12.5284 14.7289 12.5284 14.7289 12.5284 14.7289C12.5284 14.7289 12.5284 14.7299 12.528 14.7299C11.011 19.9516 16.1104 20.9651 16.1104 20.9651C15.8602 16.7186 19.3889 16.0404 20.2734 15.9379C21.4267 15.8718 22.5945 16.0576 23.6709 16.526C26.2682 17.6966 28.0236 20.5244 28.034 23.2996C28.034 22.447 28.0343 21.5935 28.0343 20.74C28.024 17.2828 26.6278 14.1427 23.9639 11.8944" fill="url(#paint2_linear_1209_451)"/>
<path d="M16.0137 9.12114C14.236 9.12114 12.5269 9.48228 11.0443 10.1298C10.6492 10.2917 10.2888 10.4546 9.93082 10.6481C9.89753 10.6797 9.86501 10.7113 9.83329 10.7123C9.66995 10.8081 9.54098 10.8742 9.41132 10.969C9.38067 10.9921 9.35512 11.0092 9.3272 11.0303C9.35052 11.0151 9.37303 10.9977 9.39712 10.9834C8.4634 11.6175 7.73659 12.4145 7.21719 13.3006C7.16363 13.3945 7.10928 13.4864 7.06296 13.5784C6.93987 13.8255 6.81629 14.0736 6.72443 14.3505C6.63189 14.5967 6.54121 14.8735 6.48001 15.1494C6.45406 15.2299 6.43379 15.3103 6.41616 15.3908C6.40051 15.4674 6.38629 15.546 6.37366 15.6226C6.35615 15.7404 6.34193 15.8573 6.32891 15.9751C6.30717 16.1773 6.28954 16.3794 6.27955 16.5796C6.24822 17.8172 6.54963 19.0788 7.20956 20.2408C7.52282 20.7907 7.91031 21.2802 8.35176 21.7112C8.3594 21.7188 8.36587 21.7264 8.3735 21.7332C8.5009 21.8568 8.63398 21.9727 8.76902 22.0858C8.79506 22.1069 8.82033 22.1298 8.84668 22.1499C12.9336 24.609 16.1074 20.9679 16.1074 20.9679C16.1074 20.9679 11.0068 19.9544 12.5255 14.7317C12.8448 14.0123 13.2962 13.3274 13.8856 12.7086C16.522 9.94396 20.9302 9.64796 23.8657 11.834C21.8112 10.1451 19.0344 9.11918 16.0137 9.1211" fill="url(#paint3_linear_1209_451)"/>
<path d="M12.6841 28.4838C12.917 28.4436 13.1446 28.3928 13.3672 28.3334C13.4529 28.3103 13.5348 28.2797 13.619 28.2548C13.7582 28.2117 13.8986 28.1715 14.034 28.1217C14.0551 28.1141 14.0745 28.1054 14.0952 28.0978C18.3929 26.3112 17.464 21.3808 16.1073 20.965C16.1073 20.965 12.9265 24.6128 8.83363 22.1404C8.18976 21.6145 7.63246 20.9794 7.20942 20.2379C5.39887 17.0509 6.25954 13.1128 9.39699 10.9805C5.89389 13.1444 4.00539 16.7501 4 20.7389C4 21.5254 4.0754 22.3071 4.22415 23.0542C4.91806 26.7672 8.73031 29.1994 12.6841 28.4838" fill="url(#paint4_linear_1209_451)"/>
<path d="M26.684 30.1985C26.3152 30.3958 25.8926 30.5098 25.4427 30.5194C25.3972 30.5203 25.3532 30.5175 25.3085 30.5164C25.1409 30.5115 24.9784 30.4944 24.8219 30.4627C24.3659 30.3717 23.9605 30.1706 23.6423 29.887C23.635 29.8802 23.6264 29.8756 23.62 29.8688C23.5412 29.7998 23.4701 29.7242 23.4028 29.6456C23.1136 29.3103 22.9334 28.8955 22.9028 28.4281C22.8981 28.3582 22.8951 28.2863 22.8976 28.2135C22.9089 27.838 22.9181 27.45 22.9289 27.0678C22.9389 26.6961 22.9494 26.3283 22.9588 25.9518C22.9771 25.7449 22.9829 25.539 22.9807 25.334C22.9807 25.3166 22.9811 25.2975 22.9807 25.2793C22.9768 25.0906 22.9618 24.9038 22.941 24.718C22.9371 24.6835 22.934 24.6481 22.9293 24.6136C22.9071 24.444 22.8761 24.2774 22.8398 24.1116C22.8287 24.059 22.8181 24.0082 22.805 23.9564C22.7691 23.808 22.7258 23.6614 22.6792 23.5168C22.6565 23.4487 22.6333 23.3798 22.6088 23.3118C22.5629 23.1853 22.5127 23.0608 22.4589 22.9372C22.4214 22.8529 22.3819 22.7686 22.3407 22.6853C22.31 22.624 22.2771 22.5636 22.2446 22.5014C22.1685 22.3606 22.0889 22.2207 22.0028 22.0856C21.9884 22.0617 21.9731 22.0397 21.9581 22.0167C21.8468 21.8462 21.7278 21.6795 21.6005 21.5185C21.5963 21.5136 21.5916 21.5079 21.5874 21.5022C21.4482 21.3279 21.3006 21.1603 21.1437 20.9993C21.1433 20.9984 21.143 20.9984 21.1421 20.9984C20.918 20.7857 20.6671 20.596 20.4008 20.4293C20.3286 20.3834 20.2551 20.3403 20.1801 20.2991C20.1392 20.2771 20.0975 20.254 20.0554 20.233C19.9666 20.1879 19.8756 20.1458 19.7838 20.1065C19.7616 20.0978 19.7394 20.0864 19.7165 20.0768C19.604 20.0318 19.4904 19.9935 19.3749 19.959C19.3565 19.9533 19.3381 19.9465 19.3198 19.9419C19.2008 19.9083 19.0815 19.8815 18.9606 19.8604C18.9451 19.8585 18.9297 19.8547 18.9136 19.8528C18.7908 19.8327 18.6676 19.8203 18.5437 19.8155C18.5301 19.8155 18.5158 19.8155 18.5019 19.8136C18.3773 19.8106 18.2526 19.8136 18.1275 19.8269C18.1222 19.8269 18.1172 19.8269 18.1119 19.8269C18.1119 19.8278 18.1123 19.8278 18.1123 19.8288C17.7646 19.8652 17.42 19.9648 17.0899 20.143C16.7628 20.3317 16.5076 20.552 16.3408 20.7168C16.264 20.7953 16.1875 20.8748 16.1137 20.9658H16.1133C17.3339 20.779 18.4566 21.5502 18.4577 22.6154C18.445 24.3991 18.4276 26.1416 18.4042 27.8045C18.3856 29.3104 19.2178 30.5547 20.4744 31.2885C21.2406 31.7349 22.1701 31.9945 23.1914 31.9955C25.1401 32.008 26.8599 30.9791 27.6035 29.3928C27.3686 29.7261 27.0534 30.003 26.6843 30.1984" fill="url(#paint5_linear_1209_451)"/>
<path d="M19.6112 30.6455C19.042 30.1004 18.6396 29.4174 18.4771 28.6358C18.4212 28.3695 18.3936 28.0926 18.3971 27.8043C18.4029 27.4106 18.4082 27.0121 18.4129 26.6097C18.4144 26.4881 18.4159 26.3635 18.417 26.2419C18.4204 25.9344 18.4243 25.6269 18.4273 25.3146C18.4281 25.2447 18.4285 25.1747 18.4296 25.1048C18.4335 24.7283 18.4368 24.349 18.4398 23.9668C18.4398 23.9475 18.4406 23.9275 18.4406 23.9083C18.4428 23.6574 18.4445 23.4035 18.4459 23.1516C18.4447 23.1592 18.442 23.166 18.4409 23.1736L18.4464 22.5586C18.4457 22.5461 18.4449 22.5336 18.4441 22.5222C18.4358 22.4532 18.4013 22.2358 18.3045 21.9829C17.9644 21.2663 17.0662 20.818 16.1058 20.9655C17.4663 21.3822 18.3978 26.3405 14.0585 28.1146C13.6209 28.2755 13.1626 28.4029 12.6826 28.4844C8.72881 29.1999 4.91656 26.7678 4.22266 23.0548C5.14032 28.3914 10.2359 32.1398 16.0215 31.9952C17.5865 31.9942 19.0779 31.7547 20.4669 31.2882C20.1528 31.1043 19.8655 30.8888 19.6108 30.6455" fill="url(#paint6_linear_1209_451)"/>
<path d="M21.1747 1.01028C13.836 -0.621079 10.2349 4.93589 9.30275 7.11902C8.65898 8.62777 6.55583 9.49086 5.46875 8.38349C6.54133 9.91427 8.48908 10.5312 10.6301 10.3176C10.7682 10.2562 10.8959 10.1863 11.0417 10.126C11.4265 9.95739 11.8282 9.81083 12.2409 9.68247C12.9846 9.32132 14.1417 8.62395 14.9297 7.77043C16.3901 6.1908 19.0384 4.20404 21.7225 4.20309C24.6667 4.20117 26.1013 5.65244 27.0121 6.95715C25.664 4.17052 23.6718 2.03624 21.1747 1.01029" fill="url(#paint7_linear_1209_451)"/>
<path d="M25.051 8.72549C22.4085 8.24365 20.6523 9.9708 20.6523 9.9708C20.6523 9.9708 22.3331 10.5791 23.8423 11.8119C23.9141 11.7449 23.913 11.7449 23.8415 11.8139C23.8499 11.8196 23.859 11.8253 23.8674 11.8321C23.8992 11.8627 23.8996 11.8637 23.9627 11.8953C26.4552 13.9998 27.8219 16.888 27.9979 20.0827C28.0084 20.1421 28.0243 20.2025 28.0331 20.2619C28.0331 20.2619 28.0331 15.3007 28.0331 13.7125C28.0331 13.7125 28.0331 13.4931 28.0331 12.5275C28.0331 11.5619 26.8902 9.06171 25.0509 8.72547" fill="url(#paint8_linear_1209_451)"/>
<path d="M26.9396 6.85277C26.0253 5.5768 24.5943 4.20121 21.7277 4.20313C19.0435 4.20408 16.3953 6.19084 14.9348 7.77046C14.1468 8.62398 12.9897 9.32136 12.2461 9.6825C13.4227 9.31752 14.7003 9.11732 16.0166 9.11732C18.7271 9.11732 20.6531 9.96892 20.6531 9.96892C20.6531 9.96892 22.4093 8.24177 25.0518 8.72361C26.891 9.05984 28.0339 11.56 28.0339 12.5256C28.0339 11.0523 27.9402 8.71498 26.9396 6.85277Z" fill="url(#paint9_linear_1209_451)"/>
<defs>
<linearGradient id="paint0_linear_1209_451" x1="12.9835" y1="8.86478e-08" x2="4.97579" y2="7.41759" gradientUnits="userSpaceOnUse">
<stop offset="0.0885417" stop-color="#44E8E8"/>
<stop offset="1" stop-color="#E4F1CF"/>
</linearGradient>
<linearGradient id="paint1_linear_1209_451" x1="25.9129" y1="18.2923" x2="16.0626" y2="20.136" gradientUnits="userSpaceOnUse">
<stop stop-color="#FF005C"/>
<stop offset="1" stop-color="#FF008A"/>
</linearGradient>
<linearGradient id="paint2_linear_1209_451" x1="20.1316" y1="10.3867" x2="9.7245" y2="16.7885" gradientUnits="userSpaceOnUse">
<stop offset="0.0885417" stop-color="#44E8E8"/>
<stop offset="1" stop-color="#E4F1CF"/>
</linearGradient>
<linearGradient id="paint3_linear_1209_451" x1="20.7323" y1="11.375" x2="6.88164" y2="15.3903" gradientUnits="userSpaceOnUse">
<stop stop-color="#FF005C"/>
<stop offset="1" stop-color="#FF008A"/>
</linearGradient>
<linearGradient id="paint4_linear_1209_451" x1="10.6137" y1="10.9805" x2="0.085897" y2="14.9591" gradientUnits="userSpaceOnUse">
<stop offset="0.0885417" stop-color="#44E8E8"/>
<stop offset="1" stop-color="#E4F1CF"/>
</linearGradient>
<linearGradient id="paint5_linear_1209_451" x1="21.8522" y1="19.8125" x2="13.3307" y2="23.8559" gradientUnits="userSpaceOnUse">
<stop offset="0.0885417" stop-color="#44E8E8"/>
<stop offset="1" stop-color="#E4F1CF"/>
</linearGradient>
<linearGradient id="paint6_linear_1209_451" x1="17.573" y1="22.7335" x2="5.11243" y2="26.9203" gradientUnits="userSpaceOnUse">
<stop stop-color="#FF005C"/>
<stop offset="1" stop-color="#FF008A"/>
</linearGradient>
<linearGradient id="paint7_linear_1209_451" x1="23.1741" y1="2.28064" x2="8.59261" y2="9.73369" gradientUnits="userSpaceOnUse">
<stop stop-color="#FF005C"/>
<stop offset="1" stop-color="#FF008A"/>
</linearGradient>
<linearGradient id="paint8_linear_1209_451" x1="26.7182" y1="10.5275" x2="20.5477" y2="11.4241" gradientUnits="userSpaceOnUse">
<stop stop-color="#FF005C"/>
<stop offset="1" stop-color="#FF008A"/>
</linearGradient>
<linearGradient id="paint9_linear_1209_451" x1="20.1314" y1="4.20313" x2="12.6245" y2="11.3677" gradientUnits="userSpaceOnUse">
<stop offset="0.0885417" stop-color="#44E8E8"/>
<stop offset="1" stop-color="#E4F1CF"/>
</linearGradient>
</defs>
</svg>
