<svg width="512" height="512" viewBox="0 0 512 512" fill="none" xmlns="http://www.w3.org/2000/svg">
<path d="M245.036 0C162.376 0 76.8633 35.7577 76.8633 100.79C76.8633 160.933 134.693 146.97 148.764 113.94C163.653 79.0103 221.178 -9.93184 338.419 16.2005C301.46 2.75885 271.32 0 245.036 0" fill="url(#paint0_linear_1209_373)"/>
<path d="M378.079 264.53C363.159 257.878 347.083 254.782 331.028 254.767L331.022 254.719C330.636 254.734 330.295 254.78 329.922 254.797C328.186 254.813 326.451 254.828 324.721 254.919C322.957 255.088 320.225 255.47 316.926 256.145C316.914 256.145 316.896 256.145 316.884 256.145C316.859 256.16 316.831 256.16 316.804 256.175C315.723 256.388 314.573 256.651 313.377 256.942C313.169 256.99 312.987 257.02 312.791 257.081C311.507 257.402 310.176 257.771 308.794 258.184C308.63 258.215 308.475 258.276 308.304 258.336C306.864 258.767 305.378 259.256 303.864 259.808C302.948 260.13 302.006 260.528 301.07 260.896C300.416 261.17 299.775 261.402 299.109 261.693C298.07 262.138 297.025 262.659 295.97 263.165C295.389 263.425 294.814 263.701 294.234 263.992C293.153 264.559 292.07 265.172 290.977 265.801C290.428 266.109 289.877 266.414 289.329 266.751C288.223 267.425 287.134 268.161 286.041 268.912C285.516 269.264 284.99 269.633 284.471 270.001C283.371 270.797 282.307 271.656 281.239 272.53C280.731 272.942 280.23 273.357 279.736 273.802C278.679 274.721 277.659 275.702 276.638 276.729C276.168 277.189 275.698 277.679 275.227 278.17C274.237 279.243 273.271 280.346 272.324 281.511C271.889 282.048 271.463 282.615 271.035 283.182C270.118 284.393 269.233 285.634 268.384 286.952C267.998 287.565 267.62 288.193 267.24 288.837C266.428 290.186 265.634 291.581 264.9 293.068C264.563 293.757 264.259 294.478 263.941 295.198C263.245 296.716 262.566 298.279 261.967 299.919C261.901 300.101 261.817 300.258 261.75 300.455C261.774 300.455 261.786 300.455 261.803 300.455C258.412 310.004 256.617 321.469 257.441 335.447C281.416 305.988 316.486 315.844 337.778 335.968C358.228 357.027 369.422 385.259 366.782 415.223C366.494 427.454 366.165 439.516 365.804 451.41C365.485 462.078 369.868 471.32 377.346 477.895C384.672 484.593 394.973 488.563 406.459 488.302C420.836 487.994 433.465 480.945 440.968 470.278C440.968 470.278 440.968 470.156 441.101 470.017C445.547 460.529 448.005 450 447.998 439.102C447.998 417.001 447.998 394.884 447.998 372.783C447.821 328.565 419.93 282.982 378.078 264.529" fill="url(#paint1_linear_1209_373)"/>
<path d="M382.869 190.339C381.862 189.833 381.856 189.817 381.347 189.327C378.414 187.135 375.403 185.097 372.292 183.227C347.542 168.253 317.733 163.195 289.316 167.931C285.845 168.513 282.406 169.264 278.977 170.138C278.831 170.168 278.68 170.199 278.519 170.229C257.508 175.701 237.73 186.721 221.942 203.32C219.602 205.772 217.403 208.301 215.332 210.891C213.701 212.915 212.216 215.015 210.755 217.129C210.369 217.696 209.919 218.233 209.534 218.785C207.993 221.114 206.588 223.475 205.239 225.851C205.013 226.25 204.756 226.617 204.541 227.015C203.301 229.253 202.207 231.537 201.144 233.836C200.852 234.449 200.497 235.062 200.229 235.675C200.217 235.69 200.217 235.69 200.217 235.69C200.217 235.69 200.217 235.706 200.21 235.706C175.979 319.253 257.429 335.469 257.429 335.469C253.432 267.525 309.795 256.673 323.922 255.033C342.343 253.976 360.997 256.949 378.189 264.444C419.674 283.173 447.713 328.418 447.878 372.821C447.878 359.18 447.882 345.523 447.882 331.867C447.718 276.552 425.417 226.31 382.868 190.338" fill="url(#paint2_linear_1209_373)"/>
<path d="M255.876 145.907C227.483 145.907 200.184 151.685 176.504 162.046C170.192 164.636 164.437 167.242 158.718 170.338C158.186 170.844 157.667 171.349 157.16 171.365C154.551 172.898 152.491 173.955 150.421 175.473C149.931 175.842 149.523 176.116 149.077 176.454C149.449 176.21 149.809 175.933 150.194 175.702C135.28 185.849 123.671 198.601 115.375 212.778C114.519 214.28 113.651 215.752 112.911 217.223C110.945 221.178 108.971 225.147 107.504 229.577C106.026 233.515 104.578 237.945 103.6 242.359C103.186 243.647 102.862 244.934 102.581 246.222C102.33 247.448 102.103 248.705 101.902 249.931C101.622 251.816 101.395 253.686 101.187 255.571C100.84 258.805 100.558 262.039 100.399 265.242C99.8981 285.045 104.712 305.23 115.253 323.822C120.257 332.619 126.446 340.451 133.497 347.349C133.619 347.47 133.722 347.592 133.844 347.7C135.879 349.678 138.004 351.532 140.161 353.341C140.577 353.68 140.981 354.046 141.402 354.368C206.68 393.712 257.373 335.454 257.373 335.454C257.373 335.454 175.904 319.239 200.161 235.676C205.261 224.166 212.472 213.207 221.886 203.306C263.995 159.072 334.405 154.336 381.291 189.312C348.476 162.291 304.124 145.876 255.876 145.906" fill="url(#paint3_linear_1209_373)"/>
<path d="M202.706 455.745C206.427 455.101 210.062 454.289 213.617 453.338C214.986 452.969 216.293 452.48 217.638 452.081C219.862 451.391 222.104 450.748 224.267 449.951C224.604 449.829 224.915 449.69 225.245 449.568C293.889 420.984 279.053 342.096 257.382 335.444C257.382 335.444 206.578 393.809 141.205 354.25C130.921 345.835 122.019 335.674 115.262 323.811C86.3434 272.818 100.09 209.809 150.203 175.691C94.25 210.315 64.086 268.005 64 331.827C64 344.41 65.2044 356.917 67.5803 368.872C78.6636 428.279 139.555 467.194 202.706 455.745" fill="url(#paint4_linear_1209_373)"/>
<path d="M426.294 483.183C420.403 486.34 413.652 488.164 406.467 488.318C405.74 488.333 405.037 488.287 404.322 488.27C401.646 488.192 399.05 487.918 396.55 487.411C389.268 485.955 382.792 482.737 377.709 478.2C377.594 478.091 377.456 478.017 377.354 477.909C376.095 476.805 374.96 475.594 373.884 474.337C369.265 468.973 366.387 462.337 365.899 454.857C365.823 453.738 365.775 452.589 365.815 451.424C365.996 445.416 366.143 439.208 366.315 433.093C366.475 427.146 366.643 421.26 366.792 415.237C367.085 411.926 367.178 408.631 367.142 405.351C367.142 405.073 367.148 404.768 367.142 404.477C367.08 401.458 366.841 398.469 366.508 395.496C366.445 394.944 366.397 394.377 366.321 393.825C365.967 391.113 365.472 388.446 364.892 385.794C364.715 384.951 364.546 384.139 364.337 383.311C363.763 380.935 363.071 378.59 362.327 376.276C361.963 375.188 361.593 374.084 361.202 372.996C360.468 370.973 359.668 368.98 358.807 367.003C358.208 365.655 357.578 364.306 356.92 362.972C356.43 361.991 355.904 361.026 355.385 360.03C354.17 357.777 352.898 355.539 351.523 353.378C351.293 352.996 351.048 352.642 350.809 352.274C349.032 349.546 347.131 346.879 345.097 344.304C345.03 344.226 344.955 344.135 344.888 344.044C342.664 341.254 340.307 338.572 337.801 335.997C337.795 335.982 337.789 335.982 337.776 335.982C334.196 332.579 330.188 329.544 325.936 326.877C324.781 326.142 323.608 325.452 322.41 324.793C321.756 324.441 321.09 324.072 320.419 323.735C319 323.015 317.547 322.341 316.08 321.712C315.725 321.573 315.372 321.39 315.006 321.237C313.208 320.516 311.394 319.903 309.548 319.352C309.256 319.26 308.962 319.152 308.669 319.078C306.769 318.541 304.862 318.112 302.932 317.775C302.684 317.744 302.438 317.684 302.182 317.653C300.22 317.332 298.252 317.132 296.272 317.055C296.055 317.055 295.827 317.055 295.606 317.025C293.615 316.977 291.624 317.025 289.625 317.238C289.541 317.238 289.461 317.238 289.376 317.238C289.376 317.253 289.382 317.253 289.382 317.268C283.828 317.85 278.324 319.445 273.051 322.296C267.827 325.315 263.751 328.84 261.088 331.476C259.86 332.733 258.638 334.005 257.459 335.461H257.453C276.95 332.473 294.882 344.811 294.9 361.854C294.696 390.393 294.418 418.273 294.044 444.88C293.747 468.974 307.04 488.884 327.111 500.624C339.348 507.767 354.195 511.92 370.509 511.935C401.633 512.135 429.102 495.674 440.98 470.292C437.227 475.626 432.194 480.056 426.297 483.182" fill="url(#paint5_linear_1209_373)"/>
<path d="M313.34 490.34C304.247 481.619 297.821 470.69 295.224 458.184C294.331 453.923 293.891 449.493 293.946 444.88C294.039 438.581 294.124 432.205 294.199 425.767C294.223 423.821 294.248 421.828 294.265 419.882C294.319 414.962 294.381 410.042 294.43 405.045C294.441 403.927 294.449 402.807 294.466 401.689C294.528 395.665 294.581 389.596 294.63 383.48C294.63 383.172 294.641 382.852 294.641 382.545C294.677 378.529 294.704 374.468 294.726 370.437C294.708 370.559 294.664 370.667 294.646 370.789L294.734 360.949C294.723 360.749 294.711 360.549 294.698 360.367C294.565 359.263 294.013 355.784 292.468 351.738C287.036 340.273 272.69 333.1 257.349 335.461C279.081 342.128 293.958 421.46 224.649 449.845C217.659 452.42 210.339 454.459 202.672 455.762C139.521 467.211 78.6302 428.296 67.5469 368.889C82.2042 454.275 163.593 514.249 256.004 511.935C281 511.919 304.821 508.088 327.007 500.624C321.99 497.681 317.401 494.232 313.333 490.339" fill="url(#paint6_linear_1209_373)"/>
<path d="M338.311 16.1762C221.095 -9.92555 163.576 78.986 148.687 113.916C138.405 138.056 104.812 151.866 87.4492 134.148C104.581 158.64 135.691 168.511 169.889 165.093C172.094 164.112 174.134 162.993 176.463 162.028C182.608 159.33 189.024 156.985 195.617 154.931C207.495 149.153 225.977 137.995 238.563 124.339C261.89 99.0645 304.189 67.2764 347.061 67.2611C394.088 67.2304 417 90.4507 431.548 111.326C410.017 66.74 378.196 32.5916 338.311 16.1764" fill="url(#paint7_linear_1209_373)"/>
<path d="M400.237 139.627C358.031 131.918 329.98 159.552 329.98 159.552C329.98 159.552 356.827 169.285 380.931 189.011C382.079 187.938 382.061 187.938 380.92 189.041C381.053 189.133 381.199 189.224 381.332 189.332C381.84 189.823 381.847 189.838 382.854 190.344C422.665 224.017 444.496 270.228 447.306 321.343C447.475 322.293 447.728 323.259 447.868 324.209C447.868 324.209 447.868 244.831 447.868 219.419C447.868 219.419 447.868 215.909 447.868 200.46C447.868 185.01 429.613 145.007 400.236 139.627" fill="url(#paint8_linear_1209_373)"/>
<path d="M430.397 109.652C415.795 89.2366 392.937 67.2272 347.151 67.2578C304.278 67.2731 261.98 99.0612 238.653 124.335C226.066 137.992 207.585 149.15 195.707 154.928C214.5 149.088 234.907 145.885 255.932 145.885C299.225 145.885 329.988 159.51 329.988 159.51C329.988 159.51 358.038 131.876 400.244 139.586C429.622 144.965 447.876 184.969 447.876 200.418C447.876 176.845 446.38 139.448 430.397 109.652Z" fill="url(#paint9_linear_1209_373)"/>
<defs>
<linearGradient id="paint0_linear_1209_373" x1="207.499" y1="1.41836e-06" x2="79.3925" y2="118.461" gradientUnits="userSpaceOnUse">
<stop offset="0.0885417" stop-color="#44E8E8"/>
<stop offset="1" stop-color="#E4F1CF"/>
</linearGradient>
<linearGradient id="paint1_linear_1209_373" x1="414.015" y1="292.646" x2="256.665" y2="322.046" gradientUnits="userSpaceOnUse">
<stop stop-color="#FF005C"/>
<stop offset="1" stop-color="#FF008A"/>
</linearGradient>
<linearGradient id="paint2_linear_1209_373" x1="321.658" y1="166.215" x2="155.274" y2="268.387" gradientUnits="userSpaceOnUse">
<stop offset="0.0885417" stop-color="#44E8E8"/>
<stop offset="1" stop-color="#E4F1CF"/>
</linearGradient>
<linearGradient id="paint3_linear_1209_373" x1="331.243" y1="181.968" x2="109.956" y2="246.009" gradientUnits="userSpaceOnUse">
<stop stop-color="#FF005C"/>
<stop offset="1" stop-color="#FF008A"/>
</linearGradient>
<linearGradient id="paint4_linear_1209_373" x1="169.636" y1="175.691" x2="1.40989" y2="239.157" gradientUnits="userSpaceOnUse">
<stop offset="0.0885417" stop-color="#44E8E8"/>
<stop offset="1" stop-color="#E4F1CF"/>
</linearGradient>
<linearGradient id="paint5_linear_1209_373" x1="349.117" y1="317.008" x2="212.923" y2="381.52" gradientUnits="userSpaceOnUse">
<stop offset="0.0885417" stop-color="#44E8E8"/>
<stop offset="1" stop-color="#E4F1CF"/>
</linearGradient>
<linearGradient id="paint6_linear_1209_373" x1="280.783" y1="363.748" x2="81.6892" y2="430.529" gradientUnits="userSpaceOnUse">
<stop stop-color="#FF005C"/>
<stop offset="1" stop-color="#FF008A"/>
</linearGradient>
<linearGradient id="paint7_linear_1209_373" x1="370.246" y1="36.5019" x2="137.179" y2="155.425" gradientUnits="userSpaceOnUse">
<stop stop-color="#FF005C"/>
<stop offset="1" stop-color="#FF008A"/>
</linearGradient>
<linearGradient id="paint8_linear_1209_373" x1="426.866" y1="168.459" x2="328.303" y2="182.757" gradientUnits="userSpaceOnUse">
<stop stop-color="#FF005C"/>
<stop offset="1" stop-color="#FF008A"/>
</linearGradient>
<linearGradient id="paint9_linear_1209_373" x1="321.655" y1="67.2578" x2="201.554" y2="181.684" gradientUnits="userSpaceOnUse">
<stop offset="0.0885417" stop-color="#44E8E8"/>
<stop offset="1" stop-color="#E4F1CF"/>
</linearGradient>
</defs>
</svg>
