<svg width="36" height="36" viewBox="0 0 36 36" fill="none" xmlns="http://www.w3.org/2000/svg">
<path d="M16.7513 0C10.9293 0 4.90625 2.51421 4.90625 7.08678C4.90625 11.3156 8.97944 10.3338 9.97049 8.01143C11.0192 5.55541 15.0709 -0.698332 23.3286 1.1391C20.7255 0.193981 18.6026 0 16.7513 0" fill="url(#paint0_linear_1209_438)"/>
<path d="M26.1204 18.6C25.0695 18.1323 23.9372 17.9146 22.8064 17.9135L22.806 17.9102C22.7788 17.9112 22.7547 17.9144 22.7285 17.9157C22.6062 17.9167 22.4841 17.9178 22.3622 17.9242C22.2379 17.9361 22.0455 17.963 21.8131 18.0104C21.8123 18.0104 21.811 18.0104 21.8102 18.0104C21.8084 18.0115 21.8064 18.0115 21.8045 18.0126C21.7284 18.0275 21.6474 18.046 21.5632 18.0665C21.5485 18.0698 21.5357 18.072 21.5219 18.0762C21.4314 18.0988 21.3377 18.1248 21.2404 18.1538C21.2288 18.156 21.2179 18.1602 21.2059 18.1645C21.1044 18.1948 20.9998 18.2292 20.8931 18.268C20.8286 18.2906 20.7623 18.3186 20.6964 18.3445C20.6503 18.3638 20.6051 18.3801 20.5582 18.4005C20.4851 18.4318 20.4115 18.4684 20.3371 18.504C20.2962 18.5223 20.2557 18.5417 20.2148 18.5622C20.1387 18.6021 20.0625 18.6452 19.9854 18.6894C19.9468 18.7111 19.908 18.7325 19.8693 18.7562C19.7915 18.8036 19.7148 18.8553 19.6378 18.9081C19.6008 18.9329 19.5637 18.9588 19.5272 18.9847C19.4497 19.0407 19.3748 19.101 19.2996 19.1625C19.2638 19.1915 19.2285 19.2207 19.1937 19.2519C19.1192 19.3166 19.0474 19.3855 18.9755 19.4578C18.9424 19.4901 18.9093 19.5246 18.8761 19.5591C18.8064 19.6345 18.7384 19.7121 18.6716 19.794C18.641 19.8317 18.611 19.8716 18.5808 19.9115C18.5163 19.9966 18.4539 20.0839 18.3941 20.1766C18.3669 20.2197 18.3403 20.2638 18.3136 20.3091C18.2564 20.4039 18.2004 20.502 18.1488 20.6066C18.125 20.6551 18.1036 20.7057 18.0812 20.7564C18.0322 20.8631 17.9844 20.973 17.9422 21.0883C17.9375 21.1011 17.9316 21.1121 17.9269 21.126C17.9285 21.126 17.9294 21.126 17.9306 21.126C17.6918 21.7974 17.5653 22.6035 17.6234 23.5863C19.312 21.5151 21.7822 22.208 23.2819 23.623C24.7222 25.1037 25.5106 27.0888 25.3247 29.1956C25.3044 30.0556 25.2813 30.9037 25.2558 31.74C25.2333 32.4901 25.542 33.1399 26.0687 33.6022C26.5848 34.0732 27.3103 34.3523 28.1193 34.334C29.1319 34.3123 30.0214 33.8167 30.5499 33.0666C30.5499 33.0666 30.5499 33.0581 30.5593 33.0483C30.8725 32.3812 31.0455 31.6409 31.0451 30.8746C31.0451 29.3206 31.0451 27.7655 31.0451 26.2115C31.0326 23.1024 29.0681 19.8974 26.1203 18.5999" fill="url(#paint1_linear_1209_438)"/>
<path d="M26.4599 13.3837C26.389 13.3481 26.3885 13.347 26.3527 13.3126C26.1461 13.1585 25.9341 13.0151 25.7149 12.8837C23.9717 11.8308 21.8721 11.4751 19.8706 11.8082C19.6261 11.8491 19.3839 11.9019 19.1424 11.9633C19.1321 11.9655 19.1215 11.9676 19.1101 11.9698C17.6302 12.3545 16.2372 13.1293 15.1252 14.2965C14.9603 14.4689 14.8055 14.6467 14.6596 14.8288C14.5447 14.9711 14.4402 15.1187 14.3372 15.2674C14.3101 15.3073 14.2783 15.345 14.2512 15.3838C14.1427 15.5476 14.0438 15.7136 13.9487 15.8806C13.9328 15.9087 13.9147 15.9345 13.8996 15.9625C13.8122 16.1199 13.7352 16.2804 13.6603 16.4421C13.6397 16.4852 13.6147 16.5283 13.5959 16.5714C13.595 16.5725 13.595 16.5725 13.595 16.5725C13.595 16.5725 13.595 16.5736 13.5945 16.5736C11.8878 22.448 17.6246 23.5882 17.6246 23.5882C17.3432 18.8108 21.313 18.0478 22.3081 17.9325C23.6055 17.8582 24.9193 18.0673 26.1303 18.5942C29.0522 19.9111 31.0271 23.0924 31.0388 26.2145C31.0388 25.2553 31.039 24.2951 31.039 23.3349C31.0275 19.4456 29.4567 15.913 26.4599 13.3837" fill="url(#paint2_linear_1209_438)"/>
<path d="M17.5159 10.2579C15.516 10.2579 13.5933 10.6641 11.9254 11.3927C11.4808 11.5748 11.0754 11.758 10.6727 11.9757C10.6352 12.0112 10.5986 12.0468 10.5629 12.0479C10.3792 12.1557 10.2341 12.23 10.0882 12.3367C10.0537 12.3627 10.025 12.382 9.99359 12.4057C10.0198 12.3886 10.0452 12.369 10.0723 12.3529C9.02181 13.0663 8.20416 13.9629 7.61983 14.9597C7.55957 15.0654 7.49843 15.1688 7.44632 15.2723C7.30784 15.5503 7.16881 15.8294 7.06547 16.1409C6.96137 16.4178 6.85935 16.7293 6.7905 17.0397C6.7613 17.1302 6.7385 17.2207 6.71867 17.3112C6.70106 17.3974 6.68507 17.4858 6.67086 17.572C6.65115 17.7046 6.63516 17.8361 6.62051 17.9686C6.59606 18.196 6.57622 18.4234 6.56499 18.6486C6.52973 20.041 6.86883 21.4603 7.61124 22.7675C7.96366 23.3861 8.39959 23.9368 8.89622 24.4217C8.90481 24.4303 8.91209 24.4388 8.92068 24.4465C9.064 24.5855 9.21372 24.7159 9.36564 24.8431C9.39493 24.8669 9.42336 24.8926 9.453 24.9153C14.0508 27.6817 17.6213 23.5854 17.6213 23.5854C17.6213 23.5854 11.8832 22.4452 13.5916 16.5698C13.9509 15.7604 14.4588 14.9899 15.1218 14.2937C18.0878 11.1835 23.047 10.8505 26.3494 13.3098C24.0381 11.4098 20.9142 10.2557 17.5159 10.2578" fill="url(#paint3_linear_1209_438)"/>
<path d="M13.7696 32.0428C14.0317 31.9975 14.2877 31.9404 14.5381 31.8736C14.6345 31.8476 14.7266 31.8132 14.8213 31.7852C14.978 31.7367 15.1359 31.6915 15.2882 31.6354C15.312 31.6269 15.3339 31.6171 15.3571 31.6085C20.192 29.5987 19.147 24.0519 17.6207 23.5842C17.6207 23.5842 14.0424 27.688 9.43783 24.9065C8.71348 24.3148 8.08652 23.6003 7.6106 22.7662C5.57373 19.1808 6.54199 14.7505 10.0716 12.3516C6.13062 14.786 4.00606 18.8424 4 23.3298C4 24.2146 4.08483 25.094 4.25217 25.9346C5.03281 30.1116 9.3216 32.8478 13.7696 32.0428" fill="url(#paint4_linear_1209_438)"/>
<path d="M29.5171 33.9733C29.1022 34.1953 28.6267 34.3235 28.1206 34.3343C28.0694 34.3354 28.0199 34.3321 27.9696 34.3309C27.7811 34.3254 27.5982 34.3062 27.4222 34.2706C26.9092 34.1682 26.4531 33.9419 26.0951 33.6229C26.087 33.6152 26.0773 33.61 26.0701 33.6024C25.9814 33.5248 25.9014 33.4397 25.8257 33.3513C25.5003 32.9741 25.2976 32.5075 25.2633 31.9816C25.2579 31.9029 25.2545 31.8221 25.2573 31.7402C25.2701 31.3177 25.2804 30.8813 25.2926 30.4513C25.3038 30.0332 25.3157 29.6193 25.3262 29.1958C25.3468 28.963 25.3533 28.7313 25.3509 28.5007C25.3509 28.4811 25.3513 28.4597 25.3509 28.4393C25.3465 28.227 25.3296 28.0168 25.3061 27.8077C25.3018 27.769 25.2983 27.7291 25.293 27.6903C25.268 27.4995 25.2332 27.312 25.1923 27.1256C25.1798 27.0663 25.168 27.0092 25.1532 26.951C25.1128 26.784 25.0641 26.6191 25.0117 26.4564C24.9861 26.3798 24.96 26.3022 24.9325 26.2257C24.8808 26.0835 24.8244 25.9434 24.7638 25.8044C24.7216 25.7096 24.6772 25.6147 24.6308 25.5209C24.5963 25.452 24.5593 25.3841 24.5227 25.314C24.4371 25.1556 24.3476 24.9983 24.2507 24.8463C24.2345 24.8194 24.2173 24.7946 24.2004 24.7687C24.0752 24.5769 23.9414 24.3894 23.7981 24.2084C23.7934 24.2028 23.7881 24.1964 23.7834 24.19C23.6268 23.9939 23.4607 23.8053 23.2842 23.6242C23.2838 23.6232 23.2834 23.6232 23.2825 23.6232C23.0303 23.3839 22.748 23.1705 22.4485 22.983C22.3672 22.9313 22.2846 22.8828 22.2002 22.8364C22.1541 22.8117 22.1072 22.7858 22.0599 22.7621C21.96 22.7114 21.8577 22.664 21.7543 22.6198C21.7293 22.61 21.7044 22.5972 21.6787 22.5864C21.5521 22.5358 21.4243 22.4927 21.2943 22.4539C21.2737 22.4474 21.253 22.4398 21.2324 22.4346C21.0985 22.3969 20.9642 22.3667 20.8283 22.343C20.8108 22.3408 20.7934 22.3366 20.7754 22.3344C20.6372 22.3118 20.4986 22.2978 20.3592 22.2924C20.3439 22.2924 20.3278 22.2924 20.3122 22.2903C20.172 22.2869 20.0318 22.2903 19.891 22.3052C19.885 22.3052 19.8794 22.3052 19.8735 22.3052C19.8735 22.3063 19.8739 22.3063 19.8739 22.3074C19.4827 22.3483 19.095 22.4604 18.7237 22.6609C18.3557 22.8732 18.0686 23.121 17.881 23.3064C17.7945 23.3948 17.7085 23.4842 17.6254 23.5866H17.625C18.9982 23.3764 20.2613 24.244 20.2625 25.4423C20.2481 27.449 20.2286 29.4092 20.2022 31.2801C20.1813 32.9742 21.1176 34.3741 22.5313 35.1996C23.3932 35.7018 24.4389 35.9938 25.5879 35.9949C27.7801 36.009 29.7149 34.8515 30.5515 33.0669C30.2872 33.4419 29.9327 33.7534 29.5174 33.9732" fill="url(#paint5_linear_1209_438)"/>
<path d="M21.5622 34.4762C20.9218 33.863 20.4691 33.0946 20.2862 32.2152C20.2233 31.9156 20.1923 31.6042 20.1962 31.2798C20.2028 30.8369 20.2087 30.3886 20.214 29.9359C20.2157 29.7991 20.2174 29.659 20.2187 29.5221C20.2224 29.1762 20.2268 28.8302 20.2302 28.4789C20.2311 28.4003 20.2316 28.3216 20.2328 28.2429C20.2371 27.8194 20.2409 27.3926 20.2443 26.9626C20.2443 26.9409 20.2452 26.9185 20.2452 26.8969C20.2477 26.6145 20.2495 26.329 20.2511 26.0455C20.2498 26.0541 20.2467 26.0617 20.2455 26.0703L20.2517 25.3784C20.2509 25.3643 20.2501 25.3503 20.2492 25.3375C20.2398 25.2599 20.2009 25.0152 20.0921 24.7307C19.7095 23.9246 18.699 23.4203 17.6185 23.5862C19.1492 24.055 20.1971 29.6331 15.3154 31.6289C14.823 31.81 14.3074 31.9533 13.7674 32.0449C9.31943 32.8499 5.03064 30.1137 4.25 25.9367C5.28237 31.9404 11.0149 36.1573 17.5238 35.9946C19.2843 35.9935 20.9622 35.7241 22.5248 35.1993C22.1715 34.9924 21.8482 34.7499 21.5617 34.4762" fill="url(#paint6_linear_1209_438)"/>
<path d="M23.3215 1.13705C15.0655 -0.698226 11.0143 5.55337 9.96559 8.00939C9.24136 9.70672 6.8753 10.6777 5.65234 9.43192C6.859 11.154 9.05022 11.8481 11.4589 11.6077C11.6142 11.5388 11.7579 11.4601 11.9219 11.3922C12.3548 11.2026 12.8067 11.0377 13.271 10.8933C14.1076 10.487 15.4094 9.70243 16.2959 8.74222C17.9389 6.96514 20.9181 4.73004 23.9378 4.72896C27.2501 4.7268 28.8639 6.35948 29.8886 7.82728C28.372 4.69232 26.1308 2.29126 23.3215 1.13707" fill="url(#paint7_linear_1209_438)"/>
<path d="M27.6828 9.81813C24.7101 9.27606 22.7344 11.2191 22.7344 11.2191C22.7344 11.2191 24.6253 11.9034 26.3231 13.2904C26.4039 13.215 26.4026 13.215 26.3222 13.2925C26.3316 13.299 26.3419 13.3054 26.3513 13.313C26.387 13.3475 26.3875 13.3486 26.4585 13.3841C29.2625 15.7518 30.8001 19.001 30.9981 22.595C31.01 22.6618 31.0278 22.7297 31.0377 22.7965C31.0377 22.7965 31.0377 17.2153 31.0377 15.4285C31.0377 15.4285 31.0377 15.1817 31.0377 14.0954C31.0377 13.0091 29.7519 10.1964 27.6828 9.81811" fill="url(#paint8_linear_1209_438)"/>
<path d="M29.8075 7.71131C28.779 6.27585 27.169 4.72831 23.9441 4.73047C20.9244 4.73155 17.9452 6.96664 16.3022 8.74372C15.4157 9.70393 14.1139 10.4885 13.2773 10.8948C14.601 10.4842 16.0383 10.2589 17.5192 10.2589C20.5685 10.2589 22.7353 11.217 22.7353 11.217C22.7353 11.217 24.711 9.27394 27.6837 9.81601C29.7529 10.1943 31.0386 13.007 31.0386 14.0933C31.0386 12.4358 30.9332 9.80631 29.8075 7.71131Z" fill="url(#paint9_linear_1209_438)"/>
<defs>
<linearGradient id="paint0_linear_1209_438" x1="14.1074" y1="9.97288e-08" x2="5.09875" y2="8.34479" gradientUnits="userSpaceOnUse">
<stop offset="0.0885417" stop-color="#44E8E8"/>
<stop offset="1" stop-color="#E4F1CF"/>
</linearGradient>
<linearGradient id="paint1_linear_1209_438" x1="28.6515" y1="20.5769" x2="17.57" y2="22.651" gradientUnits="userSpaceOnUse">
<stop stop-color="#FF005C"/>
<stop offset="1" stop-color="#FF008A"/>
</linearGradient>
<linearGradient id="paint2_linear_1209_438" x1="22.1486" y1="11.6875" x2="10.4406" y2="18.8895" gradientUnits="userSpaceOnUse">
<stop offset="0.0885417" stop-color="#44E8E8"/>
<stop offset="1" stop-color="#E4F1CF"/>
</linearGradient>
<linearGradient id="paint3_linear_1209_438" x1="22.8243" y1="12.7934" x2="7.24233" y2="17.3106" gradientUnits="userSpaceOnUse">
<stop stop-color="#FF005C"/>
<stop offset="1" stop-color="#FF008A"/>
</linearGradient>
<linearGradient id="paint4_linear_1209_438" x1="11.4404" y1="12.3516" x2="-0.403366" y2="16.8275" gradientUnits="userSpaceOnUse">
<stop offset="0.0885417" stop-color="#44E8E8"/>
<stop offset="1" stop-color="#E4F1CF"/>
</linearGradient>
<linearGradient id="paint5_linear_1209_438" x1="24.0812" y1="22.2891" x2="14.4946" y2="26.8379" gradientUnits="userSpaceOnUse">
<stop offset="0.0885417" stop-color="#44E8E8"/>
<stop offset="1" stop-color="#E4F1CF"/>
</linearGradient>
<linearGradient id="paint6_linear_1209_438" x1="19.2691" y1="25.5752" x2="5.251" y2="30.2853" gradientUnits="userSpaceOnUse">
<stop stop-color="#FF005C"/>
<stop offset="1" stop-color="#FF008A"/>
</linearGradient>
<linearGradient id="paint7_linear_1209_438" x1="25.5709" y1="2.5662" x2="9.16669" y2="10.9509" gradientUnits="userSpaceOnUse">
<stop stop-color="#FF005C"/>
<stop offset="1" stop-color="#FF008A"/>
</linearGradient>
<linearGradient id="paint8_linear_1209_438" x1="29.5584" y1="11.8454" x2="22.6167" y2="12.8541" gradientUnits="userSpaceOnUse">
<stop stop-color="#FF005C"/>
<stop offset="1" stop-color="#FF008A"/>
</linearGradient>
<linearGradient id="paint9_linear_1209_438" x1="22.1484" y1="4.73047" x2="13.7031" y2="12.7906" gradientUnits="userSpaceOnUse">
<stop offset="0.0885417" stop-color="#44E8E8"/>
<stop offset="1" stop-color="#E4F1CF"/>
</linearGradient>
</defs>
</svg>
