<svg width="96" height="96" viewBox="0 0 96 96" fill="none" xmlns="http://www.w3.org/2000/svg">
<path d="M46.001 0C30.4755 0 14.4141 6.70457 14.4141 18.8981C14.4141 30.1749 25.2759 27.5568 27.9187 21.3638C30.7152 14.8144 41.5197 -1.86222 63.5404 3.0376C56.5987 0.517284 50.9376 0 46.001 0" fill="url(#paint0_linear_1209_412)"/>
<path d="M70.993 49.6013C68.1906 48.3541 65.1712 47.7736 62.1555 47.7707L62.1544 47.7617C62.082 47.7646 62.0179 47.7731 61.9479 47.7764C61.6218 47.7793 61.296 47.7821 60.9711 47.7992C60.6397 47.831 60.1265 47.9027 59.5069 48.0291C59.5047 48.0291 59.5013 48.0291 59.499 48.0291C59.4943 48.032 59.489 48.032 59.484 48.0348C59.281 48.0747 59.065 48.1239 58.8403 48.1785C58.8012 48.1875 58.7671 48.1932 58.7302 48.2046C58.489 48.2649 58.239 48.334 57.9795 48.4115C57.9487 48.4173 57.9196 48.4286 57.8876 48.44C57.617 48.5207 57.338 48.6125 57.0536 48.716C56.8814 48.7762 56.7046 48.851 56.5288 48.92C56.406 48.9713 56.2856 49.0148 56.1604 49.0694C55.9654 49.1528 55.7691 49.2504 55.5708 49.3453C55.4618 49.3942 55.3537 49.4459 55.2447 49.5005C55.0417 49.6068 54.8384 49.7218 54.6331 49.8396C54.53 49.8975 54.4266 49.9546 54.3235 50.0178C54.1158 50.1442 53.9113 50.2821 53.706 50.423C53.6073 50.489 53.5085 50.5581 53.411 50.6271C53.2045 50.7765 53.0047 50.9374 52.8041 51.1012C52.7086 51.1786 52.6146 51.2564 52.5218 51.3398C52.3232 51.5122 52.1316 51.6961 51.9398 51.8886C51.8517 51.9748 51.7632 52.0668 51.6748 52.1588C51.4888 52.36 51.3075 52.5668 51.1295 52.7853C51.0479 52.8859 50.968 52.9922 50.8874 53.0985C50.7153 53.3256 50.549 53.5583 50.3895 53.8055C50.3171 53.9204 50.2461 54.0382 50.1748 54.1589C50.0223 54.4118 49.873 54.6733 49.7352 54.9521C49.6719 55.0815 49.6148 55.2165 49.5551 55.3516C49.4244 55.6361 49.2969 55.9293 49.1844 56.2367C49.1719 56.271 49.1561 56.3003 49.1436 56.3373C49.148 56.3373 49.1503 56.3373 49.1535 56.3373C48.5166 58.1277 48.1794 60.2773 48.3342 62.8982C52.8372 57.3748 59.4243 59.2226 63.4235 62.9959C67.2643 66.9445 69.3669 72.238 68.871 77.8563C68.8169 80.1496 68.7553 82.4113 68.6874 84.6414C68.6274 86.6415 69.4506 88.3744 70.8552 89.6073C72.2312 90.8631 74.1661 91.6074 76.3233 91.5586C79.0237 91.5007 81.3956 90.1792 82.8049 88.179C82.8049 88.179 82.8049 88.1562 82.8299 88.1301C83.6651 86.3512 84.1266 84.3769 84.1254 82.3337C84.1254 78.1897 84.1254 74.0428 84.1254 69.8987C84.0921 61.6078 78.8536 53.0612 70.9927 49.6011" fill="url(#paint1_linear_1209_412)"/>
<path d="M71.8918 35.6873C71.7026 35.5924 71.7014 35.5895 71.6059 35.4976C71.055 35.0866 70.4895 34.7044 69.9052 34.3538C65.2565 31.5461 59.6577 30.5978 54.3203 31.4858C53.6684 31.595 53.0224 31.7358 52.3784 31.8996C52.3509 31.9054 52.3226 31.911 52.2923 31.9167C48.346 32.9427 44.6312 35.0089 41.6658 38.1213C41.2263 38.581 40.8132 39.0553 40.4243 39.5409C40.1179 39.9203 39.8391 40.314 39.5647 40.7106C39.4922 40.8169 39.4075 40.9175 39.3353 41.0209C39.0459 41.4577 38.7821 41.9003 38.5286 42.3458C38.4861 42.4207 38.4378 42.4895 38.3976 42.5642C38.1646 42.9838 37.9592 43.4119 37.7595 43.843C37.7046 43.9579 37.6379 44.0729 37.5876 44.1878C37.5853 44.1907 37.5853 44.1907 37.5853 44.1907C37.5853 44.1907 37.5853 44.1936 37.5841 44.1936C33.0329 59.8587 48.3311 62.8992 48.3311 62.8992C47.5805 50.1596 58.1668 48.125 60.8202 47.8175C64.28 47.6192 67.7836 48.1767 71.0128 49.582C78.8047 53.0938 84.0709 61.5772 84.1021 69.9026C84.1021 67.345 84.1028 64.7844 84.1028 62.2238C84.072 51.8523 79.8833 42.432 71.8916 35.6872" fill="url(#paint2_linear_1209_412)"/>
<path d="M48.0371 27.3595C42.7042 27.3595 37.5769 28.4429 33.1291 30.3856C31.9437 30.8713 30.8626 31.3598 29.7886 31.9403C29.6887 32.0352 29.5911 32.13 29.496 32.1329C29.0059 32.4203 28.619 32.6186 28.2301 32.9031C28.1381 32.9723 28.0614 33.0238 27.9777 33.087C28.0477 33.0414 28.1152 32.9893 28.1875 32.9462C25.3863 34.8486 23.2059 37.2396 21.6477 39.8979C21.487 40.1795 21.3239 40.4554 21.185 40.7313C20.8157 41.4727 20.445 42.217 20.1694 43.0476C19.8918 43.7861 19.6197 44.6166 19.4361 45.4443C19.3583 45.6857 19.2975 45.9271 19.2446 46.1685C19.1976 46.3984 19.155 46.6341 19.1171 46.8639C19.0645 47.2174 19.0219 47.568 18.9828 47.9215C18.9176 48.5279 18.8647 49.1342 18.8348 49.7349C18.7407 53.4478 19.645 57.2326 21.6248 60.7185C22.5646 62.3681 23.727 63.8366 25.0514 65.1298C25.0743 65.1526 25.0937 65.1754 25.1166 65.1958C25.4988 65.5665 25.898 65.9142 26.3032 66.2533C26.3813 66.3169 26.4571 66.3856 26.5361 66.4459C38.7969 73.823 48.3183 62.8997 48.3183 62.8997C48.3183 62.8997 33.0166 59.8592 37.5725 44.1912C38.5305 42.033 39.8848 39.9782 41.653 38.1218C49.5621 29.828 62.7868 28.94 71.5931 35.498C65.4296 30.4315 57.0993 27.3536 48.0371 27.3594" fill="url(#paint3_linear_1209_412)"/>
<path d="M38.0522 85.4514C38.7511 85.3307 39.4338 85.1784 40.1016 85.0002C40.3587 84.9309 40.6043 84.8392 40.8569 84.7645C41.2746 84.6352 41.6957 84.5145 42.1019 84.365C42.1652 84.3422 42.2236 84.3162 42.2856 84.2934C55.1786 78.9337 52.3921 64.1423 48.3218 62.8951C48.3218 62.8951 38.7796 73.8385 26.5009 66.4212C24.5693 64.8434 22.8974 62.9381 21.6283 60.7138C16.1966 51.1527 18.7786 39.3385 28.191 32.9414C17.6817 39.4333 12.0162 50.2503 12 62.2168C12 64.5762 12.2262 66.9212 12.6725 69.1627C14.7542 80.3016 26.1909 87.5981 38.0522 85.4514" fill="url(#paint4_linear_1209_412)"/>
<path d="M80.0482 90.5954C78.9418 91.1874 77.6739 91.5294 76.3243 91.5581C76.1877 91.561 76.0558 91.5524 75.9215 91.5491C75.4188 91.5345 74.9312 91.4831 74.4617 91.3882C73.0939 91.1152 71.8776 90.5116 70.9229 89.661C70.9012 89.6406 70.8754 89.6268 70.8562 89.6064C70.6197 89.3995 70.4065 89.1725 70.2043 88.9368C69.3368 87.931 68.7963 86.6866 68.7046 85.2842C68.6905 85.0745 68.6813 84.8589 68.6888 84.6405C68.7229 83.514 68.7504 82.3501 68.7828 81.2034C68.8128 80.0884 68.8444 78.9849 68.8724 77.8555C68.9274 77.2347 68.9449 76.6169 68.9382 76.0019C68.9382 75.9497 68.9393 75.8926 68.9382 75.838C68.9265 75.2719 68.8816 74.7115 68.819 74.154C68.8073 74.0505 68.7981 73.9442 68.784 73.8408C68.7174 73.3321 68.6244 72.8321 68.5155 72.3349C68.4822 72.1769 68.4505 72.0245 68.4112 71.8693C68.3034 71.4239 68.1736 70.9842 68.0337 70.5503C67.9655 70.3462 67.8959 70.1393 67.8225 69.9353C67.6847 69.5559 67.5343 69.1824 67.3727 68.8117C67.2602 68.5588 67.1418 68.3059 67.0181 68.0559C66.9262 67.8719 66.8274 67.6909 66.7299 67.5041C66.5016 67.0817 66.2628 66.6621 66.0046 66.2569C65.9613 66.1852 65.9153 66.119 65.8703 66.05C65.5366 65.5385 65.1796 65.0384 64.7975 64.5556C64.785 64.5409 64.7708 64.5238 64.7583 64.5067C64.3406 63.9837 63.8978 63.4808 63.4272 62.998C63.4261 62.9951 63.425 62.9951 63.4225 62.9951C62.75 62.3571 61.9974 61.7881 61.1986 61.288C60.9817 61.1501 60.7615 61.0208 60.5364 60.8972C60.4136 60.8312 60.2885 60.7621 60.1624 60.6989C59.8959 60.5638 59.623 60.4374 59.3475 60.3195C59.2808 60.2935 59.2144 60.2593 59.1457 60.2304C58.8081 60.0954 58.4673 59.9804 58.1207 59.877C58.0657 59.8598 58.0105 59.8395 57.9556 59.8256C57.5986 59.725 57.2405 59.6446 56.878 59.5813C56.8313 59.5756 56.7851 59.5642 56.737 59.5585C56.3686 59.4982 55.999 59.4608 55.6271 59.4464C55.5863 59.4464 55.5434 59.4464 55.5019 59.4407C55.1279 59.4317 54.754 59.4407 54.3785 59.4806C54.3627 59.4806 54.3477 59.4806 54.3319 59.4806C54.3319 59.4835 54.333 59.4835 54.333 59.4863C53.2898 59.5955 52.256 59.8944 51.2657 60.4289C50.2845 60.9951 49.5189 61.6561 49.0186 62.1503C48.788 62.386 48.5586 62.6245 48.3371 62.8975H48.3359C51.9979 62.3371 55.366 64.6505 55.3693 67.8462C55.331 73.1972 55.2788 78.4247 55.2085 83.4136C55.1527 87.9312 57.6495 91.6642 61.4193 93.8656C63.7178 95.2048 66.5063 95.9836 69.5704 95.9864C75.4163 96.0239 80.5757 92.9373 82.8066 88.1783C82.1018 89.1784 81.1564 90.0089 80.0489 90.5952" fill="url(#paint5_linear_1209_412)"/>
<path d="M58.8337 91.9404C57.126 90.3052 55.9189 88.2562 55.4312 85.9112C55.2635 85.1123 55.1808 84.2817 55.1912 83.4167C55.2087 82.2356 55.2245 81.0401 55.2386 79.8331C55.2431 79.4681 55.2478 79.0945 55.2511 78.7295C55.2611 77.807 55.2728 76.8846 55.2819 75.9477C55.2842 75.7379 55.2857 75.5281 55.2887 75.3183C55.3004 74.1889 55.3103 73.0509 55.3195 71.9042C55.3195 71.8464 55.3217 71.7865 55.3217 71.7289C55.3285 70.976 55.3334 70.2144 55.3376 69.4586C55.3342 69.4815 55.3259 69.5018 55.3226 69.5246L55.3392 67.6796C55.337 67.6422 55.3348 67.6047 55.3324 67.5705C55.3074 67.3636 55.2038 66.7112 54.9135 65.9525C53.8932 63.8029 51.1987 62.458 48.3173 62.9006C52.399 64.1507 55.1935 79.0254 42.1756 84.3477C40.8627 84.8306 39.4878 85.2127 38.0477 85.457C26.1864 87.6037 14.7497 80.3072 12.668 69.1683C15.421 85.1782 30.7077 96.4234 48.0646 95.9895C52.7595 95.9866 57.2337 95.2681 61.4007 93.8686C60.4585 93.3169 59.5966 92.6703 58.8325 91.9403" fill="url(#paint6_linear_1209_412)"/>
<path d="M63.5241 3.03475C41.5081 -1.85933 30.7047 14.8116 27.9082 21.361C25.9769 25.8872 19.6675 28.4765 16.4062 25.1544C19.624 29.7467 25.4672 31.5975 31.8904 30.9566C32.3046 30.7727 32.6877 30.5629 33.1252 30.3819C34.2794 29.8761 35.4845 29.4364 36.7228 29.0513C38.9537 27.9679 42.425 25.8758 44.789 23.3152C49.1704 18.5763 57.1151 12.616 65.1675 12.6132C74.0002 12.6074 78.3038 16.9612 81.0362 20.8753C76.9921 12.5155 71.0155 6.11263 63.5241 3.03479" fill="url(#paint7_linear_1209_412)"/>
<path d="M75.1529 26.1804C67.2256 24.7349 61.957 29.9163 61.957 29.9163C61.957 29.9163 66.9994 31.7412 71.5268 35.4398C71.7424 35.2386 71.7389 35.2386 71.5246 35.4455C71.5496 35.4626 71.5771 35.4797 71.6021 35.5001C71.6975 35.592 71.6987 35.5949 71.888 35.6897C79.3655 42.0034 83.4657 50.6679 83.9936 60.2521C84.0253 60.4302 84.0728 60.6113 84.0992 60.7895C84.0992 60.7895 84.0992 45.9061 84.0992 41.1413C84.0992 41.1413 84.0992 40.4832 84.0992 37.5864C84.0992 34.6896 80.6705 27.189 75.1527 26.1803" fill="url(#paint8_linear_1209_412)"/>
<path d="M80.8187 20.5583C78.076 16.7304 73.7827 12.6036 65.183 12.6094C57.1306 12.6123 49.1859 18.5725 44.8045 23.3114C42.4405 25.8719 38.9692 27.9641 36.7383 29.0475C40.268 27.9526 44.1009 27.352 48.0499 27.352C56.1814 27.352 61.9594 29.9068 61.9594 29.9068C61.9594 29.9068 67.228 24.7253 75.1553 26.1708C80.673 27.1795 84.1017 34.6801 84.1017 37.5769C84.1017 33.157 83.8206 26.145 80.8187 20.5583Z" fill="url(#paint9_linear_1209_412)"/>
<defs>
<linearGradient id="paint0_linear_1209_412" x1="38.9506" y1="2.65943e-07" x2="14.9274" y2="22.2528" gradientUnits="userSpaceOnUse">
<stop offset="0.0885417" stop-color="#44E8E8"/>
<stop offset="1" stop-color="#E4F1CF"/>
</linearGradient>
<linearGradient id="paint1_linear_1209_412" x1="77.7425" y1="54.8731" x2="48.1918" y2="60.404" gradientUnits="userSpaceOnUse">
<stop stop-color="#FF005C"/>
<stop offset="1" stop-color="#FF008A"/>
</linearGradient>
<linearGradient id="paint2_linear_1209_412" x1="60.3949" y1="31.1641" x2="29.1735" y2="50.3694" gradientUnits="userSpaceOnUse">
<stop offset="0.0885417" stop-color="#44E8E8"/>
<stop offset="1" stop-color="#E4F1CF"/>
</linearGradient>
<linearGradient id="paint3_linear_1209_412" x1="62.1929" y1="34.121" x2="20.641" y2="46.1669" gradientUnits="userSpaceOnUse">
<stop stop-color="#FF005C"/>
<stop offset="1" stop-color="#FF008A"/>
</linearGradient>
<linearGradient id="paint4_linear_1209_412" x1="31.841" y1="32.9414" x2="0.25769" y2="44.8772" gradientUnits="userSpaceOnUse">
<stop offset="0.0885417" stop-color="#44E8E8"/>
<stop offset="1" stop-color="#E4F1CF"/>
</linearGradient>
<linearGradient id="paint5_linear_1209_412" x1="65.5526" y1="59.4375" x2="39.9883" y2="71.5676" gradientUnits="userSpaceOnUse">
<stop offset="0.0885417" stop-color="#44E8E8"/>
<stop offset="1" stop-color="#E4F1CF"/>
</linearGradient>
<linearGradient id="paint6_linear_1209_412" x1="52.7189" y1="68.2045" x2="15.3373" y2="80.7647" gradientUnits="userSpaceOnUse">
<stop stop-color="#FF005C"/>
<stop offset="1" stop-color="#FF008A"/>
</linearGradient>
<linearGradient id="paint7_linear_1209_412" x1="69.5223" y1="6.84581" x2="25.7778" y2="29.205" gradientUnits="userSpaceOnUse">
<stop stop-color="#FF005C"/>
<stop offset="1" stop-color="#FF008A"/>
</linearGradient>
<linearGradient id="paint8_linear_1209_412" x1="80.1545" y1="31.5864" x2="61.6432" y2="34.2763" gradientUnits="userSpaceOnUse">
<stop stop-color="#FF005C"/>
<stop offset="1" stop-color="#FF008A"/>
</linearGradient>
<linearGradient id="paint9_linear_1209_412" x1="60.3943" y1="12.6094" x2="37.8736" y2="34.1031" gradientUnits="userSpaceOnUse">
<stop offset="0.0885417" stop-color="#44E8E8"/>
<stop offset="1" stop-color="#E4F1CF"/>
</linearGradient>
</defs>
</svg>
