<svg width="64" height="64" viewBox="0 0 64 64" fill="none" xmlns="http://www.w3.org/2000/svg">
<path d="M30.6673 0C20.317 0 9.60938 4.46971 9.60938 12.5987C9.60938 20.1166 16.8506 18.3712 18.6125 14.2425C20.4768 9.87628 27.6798 -1.24148 42.3603 2.02507C37.7325 0.344856 33.9584 0 30.6673 0" fill="url(#paint0_linear_1209_464)"/>
<path d="M47.326 33.0662C45.4578 32.2347 43.4448 31.8477 41.4344 31.8458L41.4337 31.8398C41.3854 31.8418 41.3426 31.8474 41.296 31.8496C41.0786 31.8516 40.8614 31.8535 40.6448 31.8648C40.4239 31.886 40.0817 31.9338 39.6687 32.0181C39.6672 32.0181 39.6649 32.0181 39.6634 32.0181C39.6602 32.02 39.6567 32.02 39.6534 32.0219C39.518 32.0485 39.3741 32.0813 39.2243 32.1177C39.1982 32.1237 39.1754 32.1275 39.1508 32.1351C38.9901 32.1753 38.8234 32.2213 38.6504 32.273C38.6299 32.2769 38.6104 32.2845 38.5891 32.2921C38.4087 32.3458 38.2227 32.407 38.0331 32.476C37.9184 32.5162 37.8004 32.566 37.6833 32.612C37.6014 32.6463 37.5211 32.6753 37.4377 32.7116C37.3077 32.7672 37.1768 32.8323 37.0446 32.8956C36.972 32.9282 36.8999 32.9627 36.8272 32.999C36.6919 33.0699 36.5563 33.1465 36.4194 33.2251C36.3507 33.2637 36.2818 33.3018 36.213 33.3439C36.0746 33.4282 35.9383 33.5201 35.8014 33.614C35.7356 33.658 35.6697 33.7041 35.6047 33.7501C35.4671 33.8497 35.3339 33.957 35.2001 34.0662C35.1364 34.1178 35.0738 34.1696 35.0119 34.2252C34.8795 34.3402 34.7518 34.4627 34.6239 34.5911C34.5652 34.6486 34.5062 34.7099 34.4473 34.7712C34.3233 34.9054 34.2024 35.0432 34.0837 35.1889C34.0293 35.256 33.976 35.3268 33.9223 35.3977C33.8076 35.5491 33.6967 35.7042 33.5904 35.869C33.5421 35.9456 33.4948 36.0242 33.4472 36.1046C33.3456 36.2732 33.2461 36.4476 33.1542 36.6334C33.112 36.7197 33.0739 36.8097 33.0341 36.8998C32.947 37.0895 32.862 37.2849 32.787 37.4899C32.7786 37.5127 32.7681 37.5322 32.7598 37.5569C32.7627 37.5569 32.7643 37.5569 32.7664 37.5569C32.3418 38.7505 32.117 40.1836 32.2202 41.9308C35.2222 38.2486 39.6136 39.4805 42.2797 41.996C44.8403 44.6284 46.242 48.1574 45.9114 51.9029C45.8753 53.4318 45.8342 54.9395 45.789 56.4263C45.749 57.7597 46.2978 58.915 47.2342 59.7369C48.1516 60.5741 49.4414 61.0703 50.8796 61.0378C52.6798 60.9992 54.2611 60.1181 55.2007 58.7847C55.2007 58.7847 55.2007 58.7695 55.2173 58.7521C55.7741 57.5662 56.0818 56.25 56.081 54.8878C56.081 52.1251 56.081 49.3605 56.081 46.5979C56.0588 41.0706 52.5665 35.3728 47.3259 33.0661" fill="url(#paint1_linear_1209_464)"/>
<path d="M47.9278 23.7928C47.8017 23.7296 47.8009 23.7276 47.7373 23.6664C47.37 23.3924 46.993 23.1376 46.6035 22.9039C43.5043 21.0321 39.7718 20.3998 36.2135 20.9918C35.7789 21.0646 35.3483 21.1585 34.919 21.2677C34.9006 21.2715 34.8818 21.2753 34.8615 21.2791C32.2307 21.9631 29.7541 23.3406 27.7772 25.4155C27.4842 25.722 27.2088 26.0381 26.9495 26.3619C26.7453 26.6148 26.5594 26.8773 26.3765 27.1417C26.3282 27.2125 26.2717 27.2796 26.2235 27.3486C26.0306 27.6398 25.8547 27.9348 25.6857 28.2318C25.6574 28.2818 25.6252 28.3276 25.5984 28.3774C25.4431 28.6571 25.3061 28.9426 25.173 29.23C25.1364 29.3066 25.092 29.3832 25.0584 29.4598C25.0569 29.4618 25.0569 29.4618 25.0569 29.4618C25.0569 29.4618 25.0569 29.4637 25.0561 29.4637C22.0219 39.9071 32.2207 41.9341 32.2207 41.9341C31.7203 33.4411 38.7779 32.0846 40.5468 31.8796C42.8533 31.7474 45.1891 32.1191 47.3419 33.056C52.5364 35.3972 56.0473 41.0528 56.068 46.6031C56.068 44.8979 56.0685 43.1909 56.0685 41.4839C56.048 34.5695 53.2555 28.2893 47.9278 23.7928" fill="url(#paint2_linear_1209_464)"/>
<path d="M32.0274 18.2384C28.4721 18.2384 25.0539 18.9606 22.0887 20.2558C21.2984 20.5796 20.5777 20.9052 19.8616 21.2923C19.7951 21.3555 19.73 21.4187 19.6666 21.4206C19.3399 21.6122 19.082 21.7444 18.8226 21.9341C18.7613 21.9802 18.7102 22.0146 18.6544 22.0567C18.701 22.0263 18.7461 21.9916 18.7942 21.9628C16.9268 23.2311 15.4732 24.8251 14.4344 26.5973C14.3273 26.785 14.2186 26.969 14.1259 27.1529C13.8797 27.6472 13.6326 28.1434 13.4489 28.6971C13.2638 29.1894 13.0824 29.7431 12.96 30.2949C12.9081 30.4558 12.8676 30.6168 12.8323 30.7777C12.801 30.931 12.7726 31.0881 12.7473 31.2413C12.7123 31.477 12.6839 31.7107 12.6578 31.9464C12.6143 32.3506 12.5791 32.7549 12.5591 33.1553C12.4964 35.6306 13.0993 38.1538 14.4191 40.4777C15.0456 41.5774 15.8206 42.5564 16.7035 43.4186C16.7188 43.4338 16.7317 43.449 16.747 43.4626C17.0018 43.7097 17.268 43.9415 17.538 44.1676C17.5901 44.21 17.6407 44.2557 17.6934 44.296C25.8672 49.214 32.2148 41.9318 32.2148 41.9318C32.2148 41.9318 22.0136 39.9048 25.0509 29.4595C25.6896 28.0207 26.5925 26.6509 27.7713 25.4132C33.044 19.884 41.8605 19.292 47.7313 23.664C43.6224 20.2863 38.0688 18.2345 32.0274 18.2383" fill="url(#paint3_linear_1209_464)"/>
<path d="M25.3681 56.9676C25.8341 56.8871 26.2892 56.7856 26.7344 56.6668C26.9058 56.6206 27.0695 56.5595 27.2379 56.5097C27.5164 56.4234 27.7971 56.343 28.068 56.2434C28.1102 56.2281 28.1491 56.2108 28.1904 56.1956C36.7857 52.6225 34.9281 42.7615 32.2145 41.93C32.2145 41.93 25.8531 49.2257 17.6673 44.2808C16.3795 43.2289 15.2649 41.9587 14.4188 40.4758C10.7977 34.1018 12.5191 26.2256 18.794 21.9609C11.7878 26.2889 8.01077 33.5002 8 41.4778C8 43.0508 8.15081 44.6141 8.44831 46.1085C9.83611 53.5344 17.4606 58.3988 25.3681 56.9676" fill="url(#paint4_linear_1209_464)"/>
<path d="M53.3642 60.3969C52.6266 60.7916 51.7813 61.0196 50.8815 61.0387C50.7905 61.0407 50.7026 61.0349 50.613 61.0328C50.2779 61.023 49.9528 60.9888 49.6398 60.9254C48.7279 60.7435 47.9171 60.3411 47.2806 59.774C47.2662 59.7604 47.249 59.7512 47.2362 59.7376C47.0785 59.5997 46.9363 59.4483 46.8016 59.2912C46.2232 58.6207 45.8629 57.7911 45.8018 56.8561C45.7923 56.7163 45.7862 56.5726 45.7912 56.427C45.814 55.676 45.8323 54.9001 45.8539 54.1356C45.8739 53.3923 45.895 52.6566 45.9136 51.9036C45.9503 51.4898 45.9619 51.0779 45.9575 50.6679C45.9575 50.6332 45.9582 50.5951 45.9575 50.5587C45.9497 50.1813 45.9197 49.8077 45.878 49.436C45.8702 49.367 45.8641 49.2962 45.8547 49.2272C45.8103 48.8881 45.7483 48.5547 45.6757 48.2233C45.6535 48.1179 45.6324 48.0164 45.6062 47.9129C45.5343 47.6159 45.4477 47.3228 45.3545 47.0335C45.309 46.8975 45.2626 46.7595 45.2137 46.6235C45.1218 46.3706 45.0215 46.1216 44.9138 45.8744C44.8388 45.7059 44.7599 45.5372 44.6774 45.3706C44.6162 45.2479 44.5503 45.1273 44.4853 45.0027C44.3331 44.7211 44.1739 44.4414 44.0017 44.1713C43.9729 44.1235 43.9422 44.0793 43.9123 44.0333C43.6897 43.6923 43.4518 43.3589 43.197 43.0371C43.1887 43.0273 43.1792 43.0159 43.1709 43.0045C42.8924 42.6558 42.5973 42.3205 42.2835 41.9987C42.2828 41.9967 42.282 41.9967 42.2804 41.9967C41.8321 41.5714 41.3303 41.1921 40.7978 40.8587C40.6532 40.7667 40.5064 40.6805 40.3563 40.5981C40.2744 40.5541 40.191 40.5081 40.107 40.4659C39.9293 40.3759 39.7474 40.2916 39.5637 40.213C39.5193 40.1956 39.475 40.1728 39.4292 40.1536C39.2041 40.0636 38.9769 39.9869 38.7458 39.918C38.7092 39.9066 38.6724 39.893 38.6357 39.8838C38.3978 39.8167 38.159 39.7631 37.9174 39.7209C37.8863 39.7171 37.8554 39.7095 37.8234 39.7057C37.5778 39.6655 37.3314 39.6406 37.0834 39.6309C37.0562 39.6309 37.0276 39.6309 37 39.6271C36.7507 39.6211 36.5013 39.6271 36.2511 39.6537C36.2405 39.6537 36.2305 39.6537 36.22 39.6537C36.22 39.6557 36.2207 39.6557 36.2207 39.6576C35.5252 39.7303 34.836 39.9296 34.1758 40.286C33.5217 40.6634 33.0113 41.104 32.6778 41.4336C32.524 41.5907 32.3711 41.7497 32.2234 41.9317H32.2227C34.664 41.5581 36.9094 43.1004 36.9115 45.2308C36.886 48.7981 36.8513 52.2831 36.8044 55.609C36.7672 58.6208 38.4317 61.1095 40.9449 62.577C42.4772 63.4698 44.3363 63.989 46.379 63.991C50.2762 64.0159 53.7158 61.9582 55.2031 58.7856C54.7333 59.4523 54.103 60.006 53.3646 60.3968" fill="url(#paint5_linear_1209_464)"/>
<path d="M39.2225 61.291C38.084 60.2009 37.2792 58.8348 36.9541 57.2715C36.8423 56.7389 36.7872 56.1852 36.7941 55.6085C36.8058 54.8211 36.8163 54.0241 36.8258 53.2194C36.8287 52.9761 36.8319 52.7271 36.8341 52.4838C36.8407 51.8688 36.8485 51.2538 36.8546 50.6292C36.8561 50.4893 36.8571 50.3495 36.8591 50.2096C36.8669 49.4567 36.8736 48.698 36.8797 47.9336C36.8797 47.895 36.8812 47.855 36.8812 47.8167C36.8857 47.3147 36.8889 46.807 36.8917 46.3032C36.8895 46.3184 36.8839 46.3319 36.8817 46.3471L36.8928 45.1172C36.8913 45.0922 36.8899 45.0672 36.8883 45.0444C36.8716 44.9064 36.8025 44.4715 36.609 43.9658C35.9288 42.5327 34.1324 41.6361 32.2115 41.9311C34.9327 42.7645 36.7956 52.681 28.1171 56.2292C27.2418 56.5511 26.3252 56.8059 25.3651 56.9687C17.4576 58.3999 9.83312 53.5355 8.44531 46.1096C10.2806 56.7829 20.4718 64.2797 32.0431 63.9904C35.173 63.9884 38.1558 63.5095 40.9338 62.5765C40.3057 62.2086 39.7311 61.7776 39.2216 61.2909" fill="url(#paint6_linear_1209_464)"/>
<path d="M42.3494 2.02056C27.6721 -1.24216 20.4698 9.87178 18.6055 14.238C17.318 17.2555 13.1117 18.9817 10.9375 16.767C13.0827 19.8285 16.9782 21.0624 21.2603 20.6351C21.5364 20.5125 21.7918 20.3727 22.0834 20.252C22.8529 19.9148 23.6563 19.6217 24.4818 19.3649C25.9691 18.6426 28.2833 17.2479 29.8593 15.5409C32.7803 12.3816 38.0767 8.40809 43.445 8.40617C49.3335 8.40234 52.2025 11.3049 54.0242 13.9143C51.3281 8.34103 47.3436 4.07248 42.3494 2.02059" fill="url(#paint7_linear_1209_464)"/>
<path d="M50.102 17.4549C44.8171 16.4912 41.3047 19.9455 41.3047 19.9455C41.3047 19.9455 44.6663 21.1621 47.6846 23.6278C47.8283 23.4937 47.826 23.4937 47.6831 23.6316C47.6997 23.643 47.7181 23.6544 47.7347 23.668C47.7983 23.7293 47.7992 23.7312 47.9253 23.7944C52.9103 28.0036 55.6438 33.7799 55.9958 40.1693C56.0169 40.2881 56.0485 40.4088 56.0661 40.5276C56.0661 40.5276 56.0661 30.6054 56.0661 27.4288C56.0661 27.4288 56.0661 26.9901 56.0661 25.0589C56.0661 23.1277 53.7803 18.1273 50.1018 17.4549" fill="url(#paint8_linear_1209_464)"/>
<path d="M53.8792 13.7055C52.0507 11.1536 49.1885 8.40242 43.4553 8.40625C38.087 8.40817 32.7906 12.3817 29.8697 15.5409C28.2937 17.248 25.9795 18.6427 24.4922 19.365C26.8453 18.635 29.4006 18.2346 32.0333 18.2346C37.4542 18.2346 41.3063 19.9378 41.3063 19.9378C41.3063 19.9378 44.8187 16.4835 50.1035 17.4472C53.782 18.1197 56.0678 23.1201 56.0678 25.0513C56.0678 22.1047 55.8804 17.43 53.8792 13.7055Z" fill="url(#paint9_linear_1209_464)"/>
<defs>
<linearGradient id="paint0_linear_1209_464" x1="25.9671" y1="1.77296e-07" x2="9.95159" y2="14.8352" gradientUnits="userSpaceOnUse">
<stop offset="0.0885417" stop-color="#44E8E8"/>
<stop offset="1" stop-color="#E4F1CF"/>
</linearGradient>
<linearGradient id="paint1_linear_1209_464" x1="51.8257" y1="36.5808" x2="32.1253" y2="40.268" gradientUnits="userSpaceOnUse">
<stop stop-color="#FF005C"/>
<stop offset="1" stop-color="#FF008A"/>
</linearGradient>
<linearGradient id="paint2_linear_1209_464" x1="40.2632" y1="20.7773" x2="19.449" y2="33.5809" gradientUnits="userSpaceOnUse">
<stop offset="0.0885417" stop-color="#44E8E8"/>
<stop offset="1" stop-color="#E4F1CF"/>
</linearGradient>
<linearGradient id="paint3_linear_1209_464" x1="41.4646" y1="22.746" x2="13.7633" y2="30.7767" gradientUnits="userSpaceOnUse">
<stop stop-color="#FF005C"/>
<stop offset="1" stop-color="#FF008A"/>
</linearGradient>
<linearGradient id="paint4_linear_1209_464" x1="21.2273" y1="21.9609" x2="0.171794" y2="29.9182" gradientUnits="userSpaceOnUse">
<stop offset="0.0885417" stop-color="#44E8E8"/>
<stop offset="1" stop-color="#E4F1CF"/>
</linearGradient>
<linearGradient id="paint5_linear_1209_464" x1="43.7004" y1="39.625" x2="26.6576" y2="47.7118" gradientUnits="userSpaceOnUse">
<stop offset="0.0885417" stop-color="#44E8E8"/>
<stop offset="1" stop-color="#E4F1CF"/>
</linearGradient>
<linearGradient id="paint6_linear_1209_464" x1="35.1459" y1="45.467" x2="10.2249" y2="53.8406" gradientUnits="userSpaceOnUse">
<stop stop-color="#FF005C"/>
<stop offset="1" stop-color="#FF008A"/>
</linearGradient>
<linearGradient id="paint7_linear_1209_464" x1="46.3482" y1="4.56127" x2="17.1852" y2="19.4674" gradientUnits="userSpaceOnUse">
<stop stop-color="#FF005C"/>
<stop offset="1" stop-color="#FF008A"/>
</linearGradient>
<linearGradient id="paint8_linear_1209_464" x1="53.4363" y1="21.0589" x2="41.0955" y2="22.8522" gradientUnits="userSpaceOnUse">
<stop stop-color="#FF005C"/>
<stop offset="1" stop-color="#FF008A"/>
</linearGradient>
<linearGradient id="paint9_linear_1209_464" x1="40.2629" y1="8.40625" x2="25.249" y2="22.7354" gradientUnits="userSpaceOnUse">
<stop offset="0.0885417" stop-color="#44E8E8"/>
<stop offset="1" stop-color="#E4F1CF"/>
</linearGradient>
</defs>
</svg>
